<?xml version="1.0" encoding="UTF-8" standalone="no"?>
<!DOCTYPE svg PUBLIC "-//W3C//DTD SVG 1.1//EN" "http://www.w3.org/Graphics/SVG/1.1/DTD/svg11.dtd">
<!-- Generated by Microsoft Visio, SVG Export Long-Logo-Vectored.svg Long Logo 1 -->
<svg xmlns="http://www.w3.org/2000/svg" xmlns:xlink="http://www.w3.org/1999/xlink" xmlns:ev="http://www.w3.org/2001/xml-events"
		xmlns:v="http://schemas.microsoft.com/visio/2003/SVGExtensions/" width="6in" height="1.75in" viewBox="0 0 432 126"
		xml:space="preserve" color-interpolation-filters="sRGB" class="st14">
	<v:documentProperties v:langID="4105" v:metric="true" v:viewMarkup="false">
		<v:userDefs>
			<v:ud v:nameU="msvNoAutoConnect" v:val="VT0(1):26"/>
		</v:userDefs>
	</v:documentProperties>

	<style type="text/css">
	<![CDATA[
		.st1 {fill:none}
		.st2 {fill:#000000;stroke:#000000;stroke-linecap:round;stroke-linejoin:round;stroke-width:0.2}
		.st3 {fill:url(#grad0-10);stroke:none;stroke-linecap:round;stroke-linejoin:round;stroke-width:0.2}
		.st4 {fill:#ffd965;stroke:#000000;stroke-linecap:round;stroke-linejoin:round;stroke-width:0.2}
		.st5 {fill:url(#grad0-16);stroke:none;stroke-linecap:round;stroke-linejoin:round;stroke-width:0.2}
		.st6 {stroke:#000000;stroke-linecap:round;stroke-linejoin:round;stroke-width:0.2}
		.st7 {fill:#ffffff}
		.st8 {stroke:#000000;stroke-linecap:butt;stroke-width:0.2}
		.st9 {fill:none;stroke:#000000;stroke-linecap:round;stroke-linejoin:round;stroke-width:0.2}
		.st10 {fill:none;stroke:none;stroke-linecap:round;stroke-linejoin:round;stroke-width:0.75}
		.st11 {fill:#000000;font-family:Arial Black;font-size:3.16667em}
		.st12 {fill:#ffffff;font-family:Arial Black;font-size:3.25001em;font-weight:bold}
		.st13 {fill:#000000;font-family:Arial Black;font-size:3em}
		.st14 {fill:none;fill-rule:evenodd;font-size:12px;overflow:visible;stroke-linecap:square;stroke-miterlimit:3}
	]]>
	</style>

	<defs id="Patterns_And_Gradients">
		<linearGradient id="grad0-10" x1="0" y1="0" x2="1" y2="0" gradientTransform="rotate(0 0.5 0.5)">
			<stop offset="0.43" stop-color="#ffd965" stop-opacity="1"/>
			<stop offset="0.8" stop-color="#cc9900" stop-opacity="1"/>
		</linearGradient>
		<linearGradient id="grad0-16" x1="0" y1="0" x2="1" y2="0" gradientTransform="rotate(0 0.5 0.5)">
			<stop offset="0" stop-color="#ffd965" stop-opacity="1"/>
			<stop offset="0.62" stop-color="#cc9900" stop-opacity="1"/>
		</linearGradient>
	</defs>
	<g v:mID="8" v:index="4" v:groupContext="foregroundPage">
		<title>Long Logo 1</title>
		<v:pageProperties v:drawingScale="0.0393701" v:pageScale="0.0393701" v:drawingUnits="24" v:shadowOffsetX="8.50394"
				v:shadowOffsetY="-8.50394"/>
		<v:layer v:name="CAD Drawing" v:index="0"/>
		<v:layer v:name="0" v:index="1" color="#000000"/>
		<g id="shape67-1" v:mID="67" v:groupContext="shape" transform="translate(190.159,-353.594)">
			<title>DWG-88997D93B055425887499FD39D</title>
			<v:userDefs>
				<v:ud v:nameU="SOLSH" v:prompt="" v:val="VT4({13D0FF3B-CF5B-4a46-98AB-14030248EAEF})"/>
			</v:userDefs>
			<path d="M0 -1620.48 L2452.06 -1620.48 L2452.06 126 L0 126 L0 -1620.48 Z" class="st1"/>
		</g>
		<g id="shape498-4" v:mID="498" v:groupContext="shape" transform="translate(18,-17.9171)">
			<title>Sheet.498</title>
			<path d="M103.09 33.78 L81.64 33.78 L0 126 L24.04 126 L40.16 107.23 L74.32 107.23 L71.02 126 L86.36 126 L86.36 90.36
						 L54.48 90.36 L103.09 33.78 Z" class="st2"/>
		</g>
		<g id="group499-6" transform="translate(95.5565,-17.9171)" v:mID="499" v:groupContext="group">
			<title>Sheet.499</title>
			<g id="shape500-7" v:mID="500" v:groupContext="shape" transform="translate(2.27818E-13,-35.6378)">
				<title>Sheet.500</title>
				<path d="M25.53 69.42 L29.37 69.42 L54.87 99.17 L54.87 124.96 L53.75 126 L1.11 126 L0 124.96 L0 99.17 L25.53 69.42
							 Z" class="st3"/>
			</g>
			<g id="shape501-11" v:mID="501" v:groupContext="shape" transform="translate(3.7382,-1.18828E-08)">
				<title>Sheet.501</title>
				<path d="M43.24 90.36 L4.27 90.36 L4.29 94.75 L0 97.29 L0 98.28 L4.29 100.76 L4.29 102.67 L0 105.21 L0 106.2 L4.29
							 108.68 L4.29 110.59 L0 113.13 L0 114.12 L4.29 116.66 L4.29 118.51 L0 121.05 L2.35 123.4 L4.29 124.58
							 L4.29 125.34 L4.95 126 L42.57 126 L45 123.56 L43.23 122.47 L43.23 120.62 L47.52 118.08 L47.52 117.09
							 L43.23 114.55 L43.23 112.7 L47.52 110.16 L47.52 109.17 L43.23 106.63 L43.23 104.78 L47.52 102.24 L47.42
							 101.14 L43.23 98.71 L43.23 96.86 L45.62 95.47 L43.23 94.02 L43.24 90.36 Z" class="st4"/>
			</g>
			<g id="shape502-13" v:mID="502" v:groupContext="shape" transform="translate(28.9865,-1.18828E-08)">
				<title>Sheet.502</title>
				<path d="M0 126 L17.16 126 L19.6 123.56 L17.82 122.47 L17.82 120.62 L22.11 118.08 L22.11 117.09 L17.82 114.55 L17.82
							 112.7 L22.11 110.16 L22.11 109.17 L17.82 106.63 L17.82 104.78 L22.11 102.24 L22.02 101.14 L17.82 98.71
							 L17.82 96.86 L20.22 95.47 L17.82 94.02 L17.84 90.36 L0 90.36 L0 126 Z" class="st5"/>
			</g>
			<g id="shape503-17" v:mID="503" v:groupContext="shape" v:layerMember="1"
					transform="translate(-13.7077,204.521) rotate(-149.997)">
				<title>Sheet.503</title>
				<v:userDefs>
					<v:ud v:nameU="SOLSH" v:prompt="" v:val="VT4({13D0FF3B-CF5B-4a46-98AB-14030248EAEF})"/>
					<v:ud v:nameU="DWGEntityType" v:prompt="" v:val="VT4(LINE)"/>
				</v:userDefs>
				<path d="M0 126 L2.76 126" class="st6"/>
			</g>
			<g id="shape504-20" v:mID="504" v:groupContext="shape" v:layerMember="1" transform="translate(3.76922,-9.33741)">
				<title>Sheet.504</title>
				<v:userDefs>
					<v:ud v:nameU="SOLSH" v:prompt="" v:val="VT4({13D0FF3B-CF5B-4a46-98AB-14030248EAEF})"/>
					<v:ud v:nameU="DWGEntityType" v:prompt="" v:val="VT4(SPLINE)"/>
				</v:userDefs>
				<path d="M0 123.57 C0.81 124.04 1.62 124.51 2.43 124.97 C3.01 125.32 3.6 125.66 4.19 126 L0 123.57 Z" class="st1"/>
				<path d="M0 123.57 C0.81 124.04 1.62 124.51 2.43 124.97 C3.01 125.32 3.6 125.66 4.19 126" class="st6"/>
			</g>
			<g id="shape505-23" v:mID="505" v:groupContext="shape" v:layerMember="1" transform="translate(3.76922,-17.2568)">
				<title>Sheet.505</title>
				<v:userDefs>
					<v:ud v:nameU="SOLSH" v:prompt="" v:val="VT4({13D0FF3B-CF5B-4a46-98AB-14030248EAEF})"/>
					<v:ud v:nameU="DWGEntityType" v:prompt="" v:val="VT4(SPLINE)"/>
				</v:userDefs>
				<path d="M0 123.57 C0.81 124.04 1.62 124.51 2.43 124.98 C3.02 125.32 3.6 125.66 4.19 126 L0 123.57 Z" class="st1"/>
				<path d="M0 123.57 C0.81 124.04 1.62 124.51 2.43 124.98 C3.02 125.32 3.6 125.66 4.19 126" class="st6"/>
			</g>
			<g id="shape506-26" v:mID="506" v:groupContext="shape" v:layerMember="1" transform="translate(3.76922,-25.1763)">
				<title>Sheet.506</title>
				<v:userDefs>
					<v:ud v:nameU="SOLSH" v:prompt="" v:val="VT4({13D0FF3B-CF5B-4a46-98AB-14030248EAEF})"/>
					<v:ud v:nameU="DWGEntityType" v:prompt="" v:val="VT4(SPLINE)"/>
				</v:userDefs>
				<path d="M0 123.57 C0.81 124.04 1.62 124.51 2.43 124.98 C3.02 125.32 3.61 125.66 4.19 126 L0 123.57 Z" class="st1"/>
				<path d="M0 123.57 C0.81 124.04 1.62 124.51 2.43 124.98 C3.02 125.32 3.61 125.66 4.19 126" class="st6"/>
			</g>
			<g id="shape507-29" v:mID="507" v:groupContext="shape" v:layerMember="1" transform="translate(46.7902,-13.2302)">
				<title>Sheet.507</title>
				<v:userDefs>
					<v:ud v:nameU="SOLSH" v:prompt="" v:val="VT4({13D0FF3B-CF5B-4a46-98AB-14030248EAEF})"/>
					<v:ud v:nameU="DWGEntityType" v:prompt="" v:val="VT4(SPLINE)"/>
				</v:userDefs>
				<path d="M0 126 C0.63 125.64 1.25 125.27 1.88 124.91 C2.69 124.44 3.5 123.97 4.31 123.5 L0 126 Z" class="st1"/>
				<path d="M0 126 C0.63 125.64 1.25 125.27 1.88 124.91 C2.69 124.44 3.5 123.97 4.31 123.5" class="st6"/>
			</g>
			<g id="shape508-32" v:mID="508" v:groupContext="shape" v:layerMember="1" transform="translate(46.7902,-21.1497)">
				<title>Sheet.508</title>
				<v:userDefs>
					<v:ud v:nameU="SOLSH" v:prompt="" v:val="VT4({13D0FF3B-CF5B-4a46-98AB-14030248EAEF})"/>
					<v:ud v:nameU="DWGEntityType" v:prompt="" v:val="VT4(SPLINE)"/>
				</v:userDefs>
				<path d="M0 126 C0.63 125.64 1.25 125.27 1.88 124.91 C2.69 124.44 3.5 123.97 4.31 123.5 L0 126 Z" class="st1"/>
				<path d="M0 126 C0.63 125.64 1.25 125.27 1.88 124.91 C2.69 124.44 3.5 123.97 4.31 123.5" class="st6"/>
			</g>
			<g id="shape509-35" v:mID="509" v:groupContext="shape" v:layerMember="1" transform="translate(46.7902,-29.0691)">
				<title>Sheet.509</title>
				<v:userDefs>
					<v:ud v:nameU="SOLSH" v:prompt="" v:val="VT4({13D0FF3B-CF5B-4a46-98AB-14030248EAEF})"/>
					<v:ud v:nameU="DWGEntityType" v:prompt="" v:val="VT4(SPLINE)"/>
				</v:userDefs>
				<path d="M0 126 C0.63 125.64 1.25 125.27 1.88 124.91 C2.09 124.79 2.3 124.67 2.51 124.54 L0 126 Z" class="st1"/>
				<path d="M0 126 C0.63 125.64 1.25 125.27 1.88 124.91 C2.09 124.79 2.3 124.67 2.51 124.54" class="st6"/>
			</g>
			<g id="shape510-38" v:mID="510" v:groupContext="shape" v:layerMember="1" transform="translate(46.7902,-5.31083)">
				<title>Sheet.510</title>
				<v:userDefs>
					<v:ud v:nameU="SOLSH" v:prompt="" v:val="VT4({13D0FF3B-CF5B-4a46-98AB-14030248EAEF})"/>
					<v:ud v:nameU="DWGEntityType" v:prompt="" v:val="VT4(SPLINE)"/>
				</v:userDefs>
				<path d="M0 126 C0.63 125.64 1.26 125.27 1.88 124.91 C2.69 124.44 3.5 123.97 4.31 123.5 L0 126 Z" class="st1"/>
				<path d="M0 126 C0.63 125.64 1.26 125.27 1.88 124.91 C2.69 124.44 3.5 123.97 4.31 123.5" class="st6"/>
			</g>
			<g id="shape511-41" v:mID="511" v:groupContext="shape" v:layerMember="1"
					transform="translate(69.6927,14.7255) rotate(30.137)">
				<title>Sheet.511</title>
				<v:userDefs>
					<v:ud v:nameU="SOLSH" v:prompt="" v:val="VT4({13D0FF3B-CF5B-4a46-98AB-14030248EAEF})"/>
					<v:ud v:nameU="DWGEntityType" v:prompt="" v:val="VT4(LINE)"/>
				</v:userDefs>
				<path d="M0 126 L1.77 126" class="st6"/>
			</g>
			<g id="shape512-44" v:mID="512" v:groupContext="shape" v:layerMember="1"
					transform="translate(129.675,113.132) rotate(90)">
				<title>Sheet.512</title>
				<v:userDefs>
					<v:ud v:nameU="SOLSH" v:prompt="" v:val="VT4({13D0FF3B-CF5B-4a46-98AB-14030248EAEF})"/>
					<v:ud v:nameU="DWGEntityType" v:prompt="" v:val="VT4(LINE)"/>
				</v:userDefs>
				<path d="M0 126 L0.99 126" class="st6"/>
			</g>
			<g id="shape513-47" v:mID="513" v:groupContext="shape" v:layerMember="1"
					transform="translate(129.675,105.213) rotate(90)">
				<title>Sheet.513</title>
				<v:userDefs>
					<v:ud v:nameU="SOLSH" v:prompt="" v:val="VT4({13D0FF3B-CF5B-4a46-98AB-14030248EAEF})"/>
					<v:ud v:nameU="DWGEntityType" v:prompt="" v:val="VT4(LINE)"/>
				</v:userDefs>
				<path d="M0 126 L0.99 126" class="st6"/>
			</g>
			<g id="shape514-50" v:mID="514" v:groupContext="shape" v:layerMember="1"
					transform="translate(129.675,97.2934) rotate(90)">
				<title>Sheet.514</title>
				<v:userDefs>
					<v:ud v:nameU="SOLSH" v:prompt="" v:val="VT4({13D0FF3B-CF5B-4a46-98AB-14030248EAEF})"/>
					<v:ud v:nameU="DWGEntityType" v:prompt="" v:val="VT4(LINE)"/>
				</v:userDefs>
				<path d="M0 126 L0.99 126" class="st6"/>
			</g>
			<g id="shape515-53" v:mID="515" v:groupContext="shape" v:layerMember="1"
					transform="translate(-74.8081,102.243) rotate(-90)">
				<title>Sheet.515</title>
				<v:userDefs>
					<v:ud v:nameU="SOLSH" v:prompt="" v:val="VT4({13D0FF3B-CF5B-4a46-98AB-14030248EAEF})"/>
					<v:ud v:nameU="DWGEntityType" v:prompt="" v:val="VT4(LINE)"/>
				</v:userDefs>
				<path d="M0 126 L0.99 126" class="st6"/>
			</g>
			<g id="shape516-56" v:mID="516" v:groupContext="shape" v:layerMember="1"
					transform="translate(-74.8081,110.162) rotate(-90)">
				<title>Sheet.516</title>
				<v:userDefs>
					<v:ud v:nameU="SOLSH" v:prompt="" v:val="VT4({13D0FF3B-CF5B-4a46-98AB-14030248EAEF})"/>
					<v:ud v:nameU="DWGEntityType" v:prompt="" v:val="VT4(LINE)"/>
				</v:userDefs>
				<path d="M0 126 L0.99 126" class="st6"/>
			</g>
			<g id="shape517-59" v:mID="517" v:groupContext="shape" v:layerMember="1"
					transform="translate(-74.8081,118.082) rotate(-90)">
				<title>Sheet.517</title>
				<v:userDefs>
					<v:ud v:nameU="SOLSH" v:prompt="" v:val="VT4({13D0FF3B-CF5B-4a46-98AB-14030248EAEF})"/>
					<v:ud v:nameU="DWGEntityType" v:prompt="" v:val="VT4(LINE)"/>
				</v:userDefs>
				<path d="M0 126 L0.99 126" class="st6"/>
			</g>
			<g id="shape518-62" v:mID="518" v:groupContext="shape" v:layerMember="1" transform="translate(46.9054,-24.8552)">
				<title>Sheet.518</title>
				<v:userDefs>
					<v:ud v:nameU="SOLSH" v:prompt="" v:val="VT4({13D0FF3B-CF5B-4a46-98AB-14030248EAEF})"/>
					<v:ud v:nameU="DWGEntityType" v:prompt="" v:val="VT4(SPLINE)"/>
				</v:userDefs>
				<path d="M4.19 126 C3.47 125.58 2.76 125.17 2.04 124.75 C1.36 124.36 0.68 123.96 0 123.57 L4.19 126 Z" class="st1"/>
				<path d="M4.19 126 C3.47 125.58 2.76 125.17 2.04 124.75 C1.36 124.36 0.68 123.96 0 123.57" class="st6"/>
			</g>
			<g id="shape519-65" v:mID="519" v:groupContext="shape" v:layerMember="1" transform="translate(46.9054,-16.9358)">
				<title>Sheet.519</title>
				<v:userDefs>
					<v:ud v:nameU="SOLSH" v:prompt="" v:val="VT4({13D0FF3B-CF5B-4a46-98AB-14030248EAEF})"/>
					<v:ud v:nameU="DWGEntityType" v:prompt="" v:val="VT4(SPLINE)"/>
				</v:userDefs>
				<path d="M4.19 126 C3.47 125.58 2.76 125.17 2.04 124.75 C1.36 124.36 0.68 123.96 0 123.57 L4.19 126 Z" class="st1"/>
				<path d="M4.19 126 C3.47 125.58 2.76 125.17 2.04 124.75 C1.36 124.36 0.68 123.96 0 123.57" class="st6"/>
			</g>
			<g id="shape520-68" v:mID="520" v:groupContext="shape" v:layerMember="1" transform="translate(46.9054,-9.01638)">
				<title>Sheet.520</title>
				<v:userDefs>
					<v:ud v:nameU="SOLSH" v:prompt="" v:val="VT4({13D0FF3B-CF5B-4a46-98AB-14030248EAEF})"/>
					<v:ud v:nameU="DWGEntityType" v:prompt="" v:val="VT4(SPLINE)"/>
				</v:userDefs>
				<path d="M4.19 126 C3.47 125.58 2.76 125.17 2.04 124.75 C1.36 124.36 0.68 123.96 0 123.57 L4.19 126 Z" class="st1"/>
				<path d="M4.19 126 C3.47 125.58 2.76 125.17 2.04 124.75 C1.36 124.36 0.68 123.96 0 123.57" class="st6"/>
			</g>
			<g id="shape521-71" v:mID="521" v:groupContext="shape" v:layerMember="1"
					transform="translate(-14.6175,232.447) rotate(-149.865)">
				<title>Sheet.521</title>
				<v:userDefs>
					<v:ud v:nameU="SOLSH" v:prompt="" v:val="VT4({13D0FF3B-CF5B-4a46-98AB-14030248EAEF})"/>
					<v:ud v:nameU="DWGEntityType" v:prompt="" v:val="VT4(LINE)"/>
				</v:userDefs>
				<path d="M0 126 L2.01 126" class="st6"/>
			</g>
			<g id="shape522-74" v:mID="522" v:groupContext="shape" v:layerMember="1" transform="translate(3.7693,-5.05667)">
				<title>Sheet.522</title>
				<v:userDefs>
					<v:ud v:nameU="SOLSH" v:prompt="" v:val="VT4({13D0FF3B-CF5B-4a46-98AB-14030248EAEF})"/>
					<v:ud v:nameU="DWGEntityType" v:prompt="" v:val="VT4(SPLINE)"/>
				</v:userDefs>
				<path d="M4.31 123.5 C3.59 123.92 2.87 124.33 2.16 124.75 C1.44 125.17 0.72 125.58 0 126 L4.31 123.5 Z" class="st1"/>
				<path d="M4.31 123.5 C3.59 123.92 2.87 124.33 2.16 124.75 C1.44 125.17 0.72 125.58 0 126" class="st6"/>
			</g>
			<g id="shape523-77" v:mID="523" v:groupContext="shape" v:layerMember="1" transform="translate(3.76933,-12.9761)">
				<title>Sheet.523</title>
				<v:userDefs>
					<v:ud v:nameU="SOLSH" v:prompt="" v:val="VT4({13D0FF3B-CF5B-4a46-98AB-14030248EAEF})"/>
					<v:ud v:nameU="DWGEntityType" v:prompt="" v:val="VT4(SPLINE)"/>
				</v:userDefs>
				<path d="M4.31 123.5 C3.59 123.92 2.87 124.33 2.16 124.75 C1.44 125.17 0.72 125.58 -0 126 L4.31 123.5 Z"
						class="st1"/>
				<path d="M4.31 123.5 C3.59 123.92 2.87 124.33 2.16 124.75 C1.44 125.17 0.72 125.58 -0 126" class="st6"/>
			</g>
			<g id="shape524-80" v:mID="524" v:groupContext="shape" v:layerMember="1" transform="translate(3.76935,-20.8955)">
				<title>Sheet.524</title>
				<v:userDefs>
					<v:ud v:nameU="SOLSH" v:prompt="" v:val="VT4({13D0FF3B-CF5B-4a46-98AB-14030248EAEF})"/>
					<v:ud v:nameU="DWGEntityType" v:prompt="" v:val="VT4(SPLINE)"/>
				</v:userDefs>
				<path d="M4.31 123.5 C3.59 123.92 2.87 124.33 2.16 124.75 C1.44 125.17 0.72 125.58 0 126 L4.31 123.5 Z" class="st1"/>
				<path d="M4.31 123.5 C3.59 123.92 2.87 124.33 2.16 124.75 C1.44 125.17 0.72 125.58 0 126" class="st6"/>
			</g>
			<g id="shape525-83" v:mID="525" v:groupContext="shape" v:layerMember="1" transform="translate(3.76937,-28.815)">
				<title>Sheet.525</title>
				<v:userDefs>
					<v:ud v:nameU="SOLSH" v:prompt="" v:val="VT4({13D0FF3B-CF5B-4a46-98AB-14030248EAEF})"/>
					<v:ud v:nameU="DWGEntityType" v:prompt="" v:val="VT4(SPLINE)"/>
				</v:userDefs>
				<path d="M4.31 123.5 C3.59 123.92 2.87 124.33 2.16 124.75 C1.44 125.17 0.72 125.58 -0 126 L4.31 123.5 Z"
						class="st1"/>
				<path d="M4.31 123.5 C3.59 123.92 2.87 124.33 2.16 124.75 C1.44 125.17 0.72 125.58 -0 126" class="st6"/>
			</g>
			<g id="shape526-86" v:mID="526" v:groupContext="shape" v:layerMember="1"
					transform="translate(97.0574,36.2414) rotate(45)">
				<title>Sheet.526</title>
				<v:userDefs>
					<v:ud v:nameU="SOLSH" v:prompt="" v:val="VT4({13D0FF3B-CF5B-4a46-98AB-14030248EAEF})"/>
					<v:ud v:nameU="DWGEntityType" v:prompt="" v:val="VT4(LINE)"/>
				</v:userDefs>
				<path d="M0 126 L0.94 126" class="st6"/>
			</g>
			<g id="shape527-89" v:mID="527" v:groupContext="shape" v:layerMember="1"
					transform="translate(92.772,31.956) rotate(45)">
				<title>Sheet.527</title>
				<v:userDefs>
					<v:ud v:nameU="SOLSH" v:prompt="" v:val="VT4({13D0FF3B-CF5B-4a46-98AB-14030248EAEF})"/>
					<v:ud v:nameU="DWGEntityType" v:prompt="" v:val="VT4(LINE)"/>
				</v:userDefs>
				<path d="M0 126 L3.32 126" class="st6"/>
			</g>
			<g id="shape528-92" v:mID="528" v:groupContext="shape" v:layerMember="1"
					transform="translate(-42.8532,36.9045) rotate(-45)">
				<title>Sheet.528</title>
				<v:userDefs>
					<v:ud v:nameU="SOLSH" v:prompt="" v:val="VT4({13D0FF3B-CF5B-4a46-98AB-14030248EAEF})"/>
					<v:ud v:nameU="DWGEntityType" v:prompt="" v:val="VT4(LINE)"/>
				</v:userDefs>
				<path d="M0 126 L3.45 126" class="st6"/>
			</g>
			<g id="shape529-95" v:mID="529" v:groupContext="shape" v:layerMember="1"
					transform="translate(-79.0946,98.7776) rotate(-90)">
				<title>Sheet.529</title>
				<v:userDefs>
					<v:ud v:nameU="SOLSH" v:prompt="" v:val="VT4({13D0FF3B-CF5B-4a46-98AB-14030248EAEF})"/>
					<v:ud v:nameU="DWGEntityType" v:prompt="" v:val="VT4(LINE)"/>
				</v:userDefs>
				<path d="M0 126 L1.91 126" class="st6"/>
			</g>
			<g id="shape530-98" v:mID="530" v:groupContext="shape" v:layerMember="1"
					transform="translate(-79.0946,106.697) rotate(-90)">
				<title>Sheet.530</title>
				<v:userDefs>
					<v:ud v:nameU="SOLSH" v:prompt="" v:val="VT4({13D0FF3B-CF5B-4a46-98AB-14030248EAEF})"/>
					<v:ud v:nameU="DWGEntityType" v:prompt="" v:val="VT4(LINE)"/>
				</v:userDefs>
				<path d="M0 126 L1.91 126" class="st6"/>
			</g>
			<g id="shape531-101" v:mID="531" v:groupContext="shape" v:layerMember="1"
					transform="translate(-79.0946,114.617) rotate(-90)">
				<title>Sheet.531</title>
				<v:userDefs>
					<v:ud v:nameU="SOLSH" v:prompt="" v:val="VT4({13D0FF3B-CF5B-4a46-98AB-14030248EAEF})"/>
					<v:ud v:nameU="DWGEntityType" v:prompt="" v:val="VT4(LINE)"/>
				</v:userDefs>
				<path d="M0 126 L1.91 126" class="st6"/>
			</g>
			<g id="shape532-104" v:mID="532" v:groupContext="shape" v:layerMember="1"
					transform="translate(-79.0946,122.537) rotate(-90)">
				<title>Sheet.532</title>
				<v:userDefs>
					<v:ud v:nameU="SOLSH" v:prompt="" v:val="VT4({13D0FF3B-CF5B-4a46-98AB-14030248EAEF})"/>
					<v:ud v:nameU="DWGEntityType" v:prompt="" v:val="VT4(LINE)"/>
				</v:userDefs>
				<path d="M0 126 L1.91 126" class="st6"/>
			</g>
			<g id="shape533-107" v:mID="533" v:groupContext="shape" v:layerMember="1"
					transform="translate(133.962,124.516) rotate(90)">
				<title>Sheet.533</title>
				<v:userDefs>
					<v:ud v:nameU="SOLSH" v:prompt="" v:val="VT4({13D0FF3B-CF5B-4a46-98AB-14030248EAEF})"/>
					<v:ud v:nameU="DWGEntityType" v:prompt="" v:val="VT4(LINE)"/>
				</v:userDefs>
				<path d="M0 126 L0.82 126" class="st6"/>
			</g>
			<g id="shape534-110" v:mID="534" v:groupContext="shape" v:layerMember="1"
					transform="translate(133.962,116.597) rotate(90)">
				<title>Sheet.534</title>
				<v:userDefs>
					<v:ud v:nameU="SOLSH" v:prompt="" v:val="VT4({13D0FF3B-CF5B-4a46-98AB-14030248EAEF})"/>
					<v:ud v:nameU="DWGEntityType" v:prompt="" v:val="VT4(LINE)"/>
				</v:userDefs>
				<path d="M0 126 L1.91 126" class="st6"/>
			</g>
			<g id="shape535-113" v:mID="535" v:groupContext="shape" v:layerMember="1"
					transform="translate(133.962,108.677) rotate(90)">
				<title>Sheet.535</title>
				<v:userDefs>
					<v:ud v:nameU="SOLSH" v:prompt="" v:val="VT4({13D0FF3B-CF5B-4a46-98AB-14030248EAEF})"/>
					<v:ud v:nameU="DWGEntityType" v:prompt="" v:val="VT4(LINE)"/>
				</v:userDefs>
				<path d="M0 126 L1.91 126" class="st6"/>
			</g>
			<g id="shape536-116" v:mID="536" v:groupContext="shape" v:layerMember="1"
					transform="translate(133.962,100.758) rotate(90)">
				<title>Sheet.536</title>
				<v:userDefs>
					<v:ud v:nameU="SOLSH" v:prompt="" v:val="VT4({13D0FF3B-CF5B-4a46-98AB-14030248EAEF})"/>
					<v:ud v:nameU="DWGEntityType" v:prompt="" v:val="VT4(LINE)"/>
				</v:userDefs>
				<path d="M0 126 L1.91 126" class="st6"/>
			</g>
			<g id="shape537-119" v:mID="537" v:groupContext="shape" v:layerMember="1"
					transform="translate(133.945,89.9107) rotate(89.7947)">
				<title>Sheet.537</title>
				<v:userDefs>
					<v:ud v:nameU="SOLSH" v:prompt="" v:val="VT4({13D0FF3B-CF5B-4a46-98AB-14030248EAEF})"/>
					<v:ud v:nameU="DWGEntityType" v:prompt="" v:val="VT4(LINE)"/>
				</v:userDefs>
				<path d="M0 126 L4.39 126" class="st6"/>
			</g>
			<g id="shape538-122" v:mID="538" v:groupContext="shape" v:layerMember="1"
					transform="translate(-79.095,93.4909) rotate(-89.7583)">
				<title>Sheet.538</title>
				<v:userDefs>
					<v:ud v:nameU="SOLSH" v:prompt="" v:val="VT4({13D0FF3B-CF5B-4a46-98AB-14030248EAEF})"/>
					<v:ud v:nameU="DWGEntityType" v:prompt="" v:val="VT4(LINE)"/>
				</v:userDefs>
				<path d="M0 126 L3.66 126" class="st6"/>
			</g>
			<g id="shape539-125" v:mID="539" v:groupContext="shape" v:layerMember="1" transform="translate(8.07828,-29.5038)">
				<title>Sheet.539</title>
				<v:userDefs>
					<v:ud v:nameU="SOLSH" v:prompt="" v:val="VT4({13D0FF3B-CF5B-4a46-98AB-14030248EAEF})"/>
					<v:ud v:nameU="DWGEntityType" v:prompt="" v:val="VT4(SPLINE)"/>
				</v:userDefs>
				<path d="M0 126 C0.88 126 1.88 126 3 126 C4.11 126 5.32 126 6.6 126 C7.88 126 9.25 126 10.68 126 C12.1 126 13.55
							 126 15.04 126 L0 126 Z" class="st7"/>
				<path d="M0 126 C0.88 126 1.88 126 3 126 C4.11 126 5.32 126 6.6 126 C7.88 126 9.25 126 10.68 126 C12.1 126 13.55
							 126 15.04 126" class="st6"/>
			</g>
			<g id="shape540-128" v:mID="540" v:groupContext="shape" v:layerMember="1" transform="translate(11.7103,-31.9769)">
				<title>Sheet.540</title>
				<v:userDefs>
					<v:ud v:nameU="SOLSH" v:prompt="" v:val="VT4({13D0FF3B-CF5B-4a46-98AB-14030248EAEF})"/>
					<v:ud v:nameU="DWGEntityType" v:prompt="" v:val="VT4(LWPOLYLINE)"/>
				</v:userDefs>
				<path d="M0 126 L0.81 126 L1.68 126 L2.61 126 L3.61 126 L4.66 126 L5.76 126 L6.91 126 L8.1 126 L9.32 126 L10.57 126
							 L11.84 126 L13.13 126 L14.43 126 L15.74 126 L17.05 126 L18.36 126 L19.65 126 L20.92 126 L22.17 126 L23.39
							 126 L24.58 126 L25.73 126 L26.83 126 L27.88 126 L28.88 126 L29.82 126 L30.69 126 L31.5 126 L32.23 126
							 L32.89 126 L33.47 126 L33.98 126 L34.4 126 L34.73 126 L34.98 126 L35.14 126 L35.22 126 L35.22 126 L35.22
							 126 L0 126 Z" class="st7"/>
				<path d="M0 126 L0.81 126 L1.68 126 L2.61 126 L3.61 126 L4.66 126 L5.76 126 L6.91 126 L8.1 126 L9.32 126 L10.57 126
							 L11.84 126 L13.13 126 L14.43 126 L15.74 126 L17.05 126 L18.36 126 L19.65 126 L20.92 126 L22.17 126 L23.39
							 126 L24.58 126 L25.73 126 L26.83 126 L27.88 126 L28.88 126 L29.82 126 L30.69 126 L31.5 126 L32.23 126
							 L32.89 126 L33.47 126 L33.98 126 L34.4 126 L34.73 126 L34.98 126 L35.14 126 L35.22 126 L35.22 126 L35.22
							 126" class="st8"/>
			</g>
			<g id="shape541-131" v:mID="541" v:groupContext="shape" v:layerMember="1" transform="translate(10.6489,-4.94964)">
				<title>Sheet.541</title>
				<v:userDefs>
					<v:ud v:nameU="SOLSH" v:prompt="" v:val="VT4({13D0FF3B-CF5B-4a46-98AB-14030248EAEF})"/>
					<v:ud v:nameU="DWGEntityType" v:prompt="" v:val="VT4(SPLINE)"/>
				</v:userDefs>
				<path d="M0 126 C0.67 125.95 1.34 125.91 2.05 125.86 C2.78 125.81 3.55 125.76 4.34 125.71 C5.15 125.66 5.98 125.61
							 6.83 125.56 C7.69 125.51 8.57 125.45 9.46 125.4 C10.36 125.35 11.27 125.3 12.19 125.25 C12.97 125.21
							 13.76 125.17 14.56 125.13 C15.34 125.08 16.13 125.04 16.92 125 C17.7 124.96 18.49 124.92 19.28 124.88
							 C20.07 124.84 20.86 124.8 21.65 124.76 C22.44 124.71 23.22 124.67 23.99 124.63 C24.75 124.58 25.49 124.54
							 26.23 124.5 C26.96 124.45 27.67 124.41 28.37 124.37 C29.06 124.32 29.73 124.28 30.38 124.24 C31.02 124.2
							 31.64 124.16 32.23 124.12 C32.83 124.07 33.4 124.04 33.95 124 C34.49 123.95 35.01 123.91 35.5 123.87
							 C35.99 123.83 36.45 123.79 36.88 123.74 C37.31 123.7 37.71 123.66 38.07 123.61 C38.43 123.57 38.75 123.53
							 39.04 123.48 C39.31 123.44 39.56 123.4 39.76 123.35 C39.96 123.31 40.12 123.27 40.25 123.23 C40.37 123.18
							 40.47 123.14 40.5 123.1 C40.52 123.08 40.52 123.06 40.52 123.03 L0 126 Z" class="st1"/>
				<path d="M0 126 C0.67 125.95 1.34 125.91 2.05 125.86 C2.78 125.81 3.55 125.76 4.34 125.71 C5.15 125.66 5.98 125.61
							 6.83 125.56 C7.69 125.51 8.57 125.45 9.46 125.4 C10.36 125.35 11.27 125.3 12.19 125.25 C12.97 125.21
							 13.76 125.17 14.56 125.13 C15.34 125.08 16.13 125.04 16.92 125 C17.7 124.96 18.49 124.92 19.28 124.88
							 C20.07 124.84 20.86 124.8 21.65 124.76 C22.44 124.71 23.22 124.67 23.99 124.63 C24.75 124.58 25.49 124.54
							 26.23 124.5 C26.96 124.45 27.67 124.41 28.37 124.37 C29.06 124.32 29.73 124.28 30.38 124.24 C31.02 124.2
							 31.64 124.16 32.23 124.12 C32.83 124.07 33.4 124.04 33.95 124 C34.49 123.95 35.01 123.91 35.5 123.87
							 C35.99 123.83 36.45 123.79 36.88 123.74 C37.31 123.7 37.71 123.66 38.07 123.61 C38.43 123.57 38.75 123.53
							 39.04 123.48 C39.31 123.44 39.56 123.4 39.76 123.35 C39.96 123.31 40.12 123.27 40.25 123.23 C40.37 123.18
							 40.47 123.14 40.5 123.1 C40.52 123.08 40.52 123.06 40.52 123.03" class="st6"/>
			</g>
			<g id="shape542-134" v:mID="542" v:groupContext="shape" v:layerMember="1" transform="translate(3.66793,-11.77)">
				<title>Sheet.542</title>
				<v:userDefs>
					<v:ud v:nameU="SOLSH" v:prompt="" v:val="VT4({13D0FF3B-CF5B-4a46-98AB-14030248EAEF})"/>
					<v:ud v:nameU="DWGEntityType" v:prompt="" v:val="VT4(SPLINE)"/>
				</v:userDefs>
				<path d="M0.1 126 C0.1 126 0.1 126 0.1 126 C-0.01 125.96 -0.01 125.92 0.01 125.88 C0.03 125.84 0.07 125.8 0.15 125.76
							 C0.24 125.72 0.36 125.67 0.53 125.63 C0.7 125.59 0.9 125.55 1.14 125.5 C1.38 125.46 1.67 125.42 1.98
							 125.37 C2.3 125.33 2.66 125.29 3.05 125.24 C3.4 125.2 3.79 125.17 4.2 125.13 C4.62 125.09 5.05 125.05
							 5.52 125.01 C5.98 124.97 6.47 124.94 6.98 124.9 C7.63 124.85 8.32 124.81 9.04 124.76 C9.77 124.71 10.53
							 124.66 11.33 124.61 C12.13 124.56 12.96 124.51 13.81 124.46 C14.67 124.41 15.55 124.36 16.44 124.3 C17.34
							 124.25 18.25 124.2 19.17 124.15 C19.95 124.11 20.74 124.07 21.54 124.03 C22.32 123.99 23.11 123.95 23.9
							 123.91 C24.69 123.87 25.47 123.83 26.26 123.78 C27.05 123.74 27.84 123.7 28.63 123.66 C29.42 123.61
							 30.2 123.57 30.97 123.53 C31.73 123.48 32.48 123.44 33.21 123.4 C33.94 123.35 34.65 123.31 35.35 123.27
							 C36.04 123.22 36.71 123.18 37.36 123.14 C38 123.1 38.62 123.06 39.22 123.02 C39.81 122.98 40.38 122.94
							 40.93 122.9 C41.47 122.86 41.99 122.82 42.48 122.77 C42.97 122.73 43.43 122.69 43.86 122.65 C44.29 122.6
							 44.69 122.56 45.05 122.51 C45.41 122.47 45.73 122.43 46.02 122.38 C46.3 122.34 46.54 122.3 46.74 122.25
							 C46.94 122.21 47.1 122.17 47.23 122.13 C47.35 122.08 47.45 122.04 47.48 122 C47.5 121.98 47.5 121.96
							 47.5 121.93 L0.1 126 Z" class="st1"/>
				<path d="M0.1 126 C0.1 126 0.1 126 0.1 126 C-0.01 125.96 -0.01 125.92 0.01 125.88 C0.03 125.84 0.07 125.8 0.15 125.76
							 C0.24 125.72 0.36 125.67 0.53 125.63 C0.7 125.59 0.9 125.55 1.14 125.5 C1.38 125.46 1.67 125.42 1.98
							 125.37 C2.3 125.33 2.66 125.29 3.05 125.24 C3.4 125.2 3.79 125.17 4.2 125.13 C4.62 125.09 5.05 125.05
							 5.52 125.01 C5.98 124.97 6.47 124.94 6.98 124.9 C7.63 124.85 8.32 124.81 9.04 124.76 C9.77 124.71 10.53
							 124.66 11.33 124.61 C12.13 124.56 12.96 124.51 13.81 124.46 C14.67 124.41 15.55 124.36 16.44 124.3 C17.34
							 124.25 18.25 124.2 19.17 124.15 C19.95 124.11 20.74 124.07 21.54 124.03 C22.32 123.99 23.11 123.95 23.9
							 123.91 C24.69 123.87 25.47 123.83 26.26 123.78 C27.05 123.74 27.84 123.7 28.63 123.66 C29.42 123.61
							 30.2 123.57 30.97 123.53 C31.73 123.48 32.48 123.44 33.21 123.4 C33.94 123.35 34.65 123.31 35.35 123.27
							 C36.04 123.22 36.71 123.18 37.36 123.14 C38 123.1 38.62 123.06 39.22 123.02 C39.81 122.98 40.38 122.94
							 40.93 122.9 C41.47 122.86 41.99 122.82 42.48 122.77 C42.97 122.73 43.43 122.69 43.86 122.65 C44.29 122.6
							 44.69 122.56 45.05 122.51 C45.41 122.47 45.73 122.43 46.02 122.38 C46.3 122.34 46.54 122.3 46.74 122.25
							 C46.94 122.21 47.1 122.17 47.23 122.13 C47.35 122.08 47.45 122.04 47.48 122 C47.5 121.98 47.5 121.96
							 47.5 121.93" class="st6"/>
			</g>
			<g id="shape543-137" v:mID="543" v:groupContext="shape" v:layerMember="1" transform="translate(3.66793,-19.6894)">
				<title>Sheet.543</title>
				<v:userDefs>
					<v:ud v:nameU="SOLSH" v:prompt="" v:val="VT4({13D0FF3B-CF5B-4a46-98AB-14030248EAEF})"/>
					<v:ud v:nameU="DWGEntityType" v:prompt="" v:val="VT4(SPLINE)"/>
				</v:userDefs>
				<path d="M0.1 126 C0.1 126 0.1 126 0.1 126 C-0.01 125.96 -0.01 125.92 0.01 125.88 C0.03 125.84 0.07 125.8 0.15 125.76
							 C0.24 125.72 0.36 125.67 0.53 125.63 C0.7 125.59 0.9 125.55 1.14 125.5 C1.38 125.46 1.67 125.42 1.98
							 125.37 C2.3 125.33 2.66 125.29 3.05 125.24 C3.4 125.2 3.79 125.17 4.2 125.13 C4.62 125.09 5.05 125.05
							 5.52 125.01 C5.98 124.97 6.47 124.94 6.98 124.9 C7.63 124.85 8.32 124.81 9.04 124.76 C9.77 124.71 10.53
							 124.66 11.33 124.61 C12.13 124.56 12.96 124.51 13.81 124.46 C14.67 124.41 15.55 124.36 16.44 124.3 C17.34
							 124.25 18.25 124.2 19.17 124.15 C19.95 124.11 20.74 124.07 21.54 124.03 C22.32 123.99 23.11 123.95 23.9
							 123.91 C24.69 123.87 25.47 123.83 26.26 123.78 C27.05 123.74 27.84 123.7 28.63 123.66 C29.42 123.61
							 30.2 123.57 30.97 123.53 C31.73 123.48 32.48 123.44 33.21 123.4 C33.94 123.35 34.65 123.31 35.35 123.27
							 C36.04 123.22 36.71 123.18 37.36 123.14 C38 123.1 38.62 123.06 39.22 123.02 C39.81 122.98 40.38 122.94
							 40.93 122.9 C41.47 122.86 41.99 122.82 42.48 122.77 C42.97 122.73 43.43 122.69 43.86 122.65 C44.29 122.6
							 44.69 122.56 45.05 122.51 C45.41 122.47 45.73 122.43 46.02 122.38 C46.3 122.34 46.54 122.3 46.74 122.25
							 C46.94 122.21 47.1 122.17 47.23 122.13 C47.35 122.08 47.45 122.04 47.48 122 C47.5 121.98 47.5 121.96
							 47.5 121.93 L0.1 126 Z" class="st1"/>
				<path d="M0.1 126 C0.1 126 0.1 126 0.1 126 C-0.01 125.96 -0.01 125.92 0.01 125.88 C0.03 125.84 0.07 125.8 0.15 125.76
							 C0.24 125.72 0.36 125.67 0.53 125.63 C0.7 125.59 0.9 125.55 1.14 125.5 C1.38 125.46 1.67 125.42 1.98
							 125.37 C2.3 125.33 2.66 125.29 3.05 125.24 C3.4 125.2 3.79 125.17 4.2 125.13 C4.62 125.09 5.05 125.05
							 5.52 125.01 C5.98 124.97 6.47 124.94 6.98 124.9 C7.63 124.85 8.32 124.81 9.04 124.76 C9.77 124.71 10.53
							 124.66 11.33 124.61 C12.13 124.56 12.96 124.51 13.81 124.46 C14.67 124.41 15.55 124.36 16.44 124.3 C17.34
							 124.25 18.25 124.2 19.17 124.15 C19.95 124.11 20.74 124.07 21.54 124.03 C22.32 123.99 23.11 123.95 23.9
							 123.91 C24.69 123.87 25.47 123.83 26.26 123.78 C27.05 123.74 27.84 123.7 28.63 123.66 C29.42 123.61
							 30.2 123.57 30.97 123.53 C31.73 123.48 32.48 123.44 33.21 123.4 C33.94 123.35 34.65 123.31 35.35 123.27
							 C36.04 123.22 36.71 123.18 37.36 123.14 C38 123.1 38.62 123.06 39.22 123.02 C39.81 122.98 40.38 122.94
							 40.93 122.9 C41.47 122.86 41.99 122.82 42.48 122.77 C42.97 122.73 43.43 122.69 43.86 122.65 C44.29 122.6
							 44.69 122.56 45.05 122.51 C45.41 122.47 45.73 122.43 46.02 122.38 C46.3 122.34 46.54 122.3 46.74 122.25
							 C46.94 122.21 47.1 122.17 47.23 122.13 C47.35 122.08 47.45 122.04 47.48 122 C47.5 121.98 47.5 121.96
							 47.5 121.93" class="st6"/>
			</g>
			<g id="shape544-140" v:mID="544" v:groupContext="shape" v:layerMember="1" transform="translate(7.9971,-1.48442)">
				<title>Sheet.544</title>
				<v:userDefs>
					<v:ud v:nameU="SOLSH" v:prompt="" v:val="VT4({13D0FF3B-CF5B-4a46-98AB-14030248EAEF})"/>
					<v:ud v:nameU="DWGEntityType" v:prompt="" v:val="VT4(SPLINE)"/>
				</v:userDefs>
				<path d="M0 126 C-0 125.97 -0 125.93 0.03 125.9 C0.08 125.85 0.22 125.79 0.4 125.74 C0.58 125.68 0.81 125.63 1.09
							 125.57 C1.37 125.52 1.71 125.46 2.09 125.4 C2.48 125.35 2.91 125.29 3.39 125.24 C3.86 125.18 4.37 125.13
							 4.93 125.08 C5.48 125.03 6.06 124.98 6.68 124.92 C7.31 124.87 7.98 124.82 8.67 124.76 C9.38 124.71 10.11
							 124.65 10.87 124.6 C11.63 124.54 12.42 124.48 13.22 124.43 C14.02 124.37 14.84 124.32 15.67 124.26 C16.49
							 124.21 17.31 124.15 18.15 124.1 C18.97 124.05 19.79 124 20.61 123.95 C21.44 123.9 22.27 123.84 23.08
							 123.79 C23.91 123.73 24.73 123.68 25.53 123.62 C26.34 123.57 27.13 123.51 27.89 123.45 C28.65 123.4
							 29.39 123.34 30.1 123.29 C30.8 123.23 31.46 123.18 32.1 123.12 C32.72 123.07 33.31 123.02 33.86 122.97
							 C34.42 122.92 34.94 122.87 35.42 122.81 C35.9 122.76 36.34 122.7 36.72 122.65 C37.11 122.59 37.45 122.53
							 37.74 122.48 C38.03 122.42 38.28 122.37 38.45 122.31 C38.59 122.26 38.68 122.22 38.77 122.17 L0 126
							 Z" class="st1"/>
				<path d="M0 126 C-0 125.97 -0 125.93 0.03 125.9 C0.08 125.85 0.22 125.79 0.4 125.74 C0.58 125.68 0.81 125.63 1.09
							 125.57 C1.37 125.52 1.71 125.46 2.09 125.4 C2.48 125.35 2.91 125.29 3.39 125.24 C3.86 125.18 4.37 125.13
							 4.93 125.08 C5.48 125.03 6.06 124.98 6.68 124.92 C7.31 124.87 7.98 124.82 8.67 124.76 C9.38 124.71 10.11
							 124.65 10.87 124.6 C11.63 124.54 12.42 124.48 13.22 124.43 C14.02 124.37 14.84 124.32 15.67 124.26 C16.49
							 124.21 17.31 124.15 18.15 124.1 C18.97 124.05 19.79 124 20.61 123.95 C21.44 123.9 22.27 123.84 23.08
							 123.79 C23.91 123.73 24.73 123.68 25.53 123.62 C26.34 123.57 27.13 123.51 27.89 123.45 C28.65 123.4
							 29.39 123.34 30.1 123.29 C30.8 123.23 31.46 123.18 32.1 123.12 C32.72 123.07 33.31 123.02 33.86 122.97
							 C34.42 122.92 34.94 122.87 35.42 122.81 C35.9 122.76 36.34 122.7 36.72 122.65 C37.11 122.59 37.45 122.53
							 37.74 122.48 C38.03 122.42 38.28 122.37 38.45 122.31 C38.59 122.26 38.68 122.22 38.77 122.17"
						class="st6"/>
			</g>
			<g id="shape545-143" v:mID="545" v:groupContext="shape" v:layerMember="1" transform="translate(7.99702,-9.40362)">
				<title>Sheet.545</title>
				<v:userDefs>
					<v:ud v:nameU="SOLSH" v:prompt="" v:val="VT4({13D0FF3B-CF5B-4a46-98AB-14030248EAEF})"/>
					<v:ud v:nameU="DWGEntityType" v:prompt="" v:val="VT4(SPLINE)"/>
				</v:userDefs>
				<path d="M0 126 C-0 125.97 -0 125.93 0.03 125.9 C0.08 125.85 0.22 125.79 0.4 125.74 C0.58 125.68 0.81 125.63 1.09
							 125.57 C1.37 125.52 1.71 125.46 2.09 125.4 C2.48 125.35 2.91 125.29 3.39 125.24 C3.86 125.18 4.37 125.13
							 4.93 125.08 C5.48 125.03 6.06 124.98 6.68 124.92 C7.31 124.87 7.98 124.82 8.67 124.76 C9.38 124.71 10.11
							 124.65 10.87 124.6 C11.63 124.54 12.42 124.48 13.22 124.43 C14.02 124.37 14.84 124.32 15.67 124.26 C16.49
							 124.21 17.31 124.15 18.15 124.1 C18.97 124.05 19.79 124 20.61 123.95 C21.44 123.9 22.27 123.84 23.08
							 123.79 C23.91 123.73 24.73 123.68 25.53 123.62 C26.34 123.57 27.13 123.51 27.89 123.45 C28.65 123.4
							 29.39 123.34 30.1 123.29 C30.8 123.23 31.46 123.18 32.1 123.12 C32.72 123.07 33.31 123.02 33.86 122.97
							 C34.42 122.92 34.94 122.87 35.42 122.81 C35.9 122.76 36.34 122.7 36.72 122.65 C37.11 122.59 37.45 122.53
							 37.74 122.48 C38.03 122.42 38.28 122.37 38.45 122.31 C38.59 122.26 38.68 122.22 38.77 122.17 L0 126
							 Z" class="st1"/>
				<path d="M0 126 C-0 125.97 -0 125.93 0.03 125.9 C0.08 125.85 0.22 125.79 0.4 125.74 C0.58 125.68 0.81 125.63 1.09
							 125.57 C1.37 125.52 1.71 125.46 2.09 125.4 C2.48 125.35 2.91 125.29 3.39 125.24 C3.86 125.18 4.37 125.13
							 4.93 125.08 C5.48 125.03 6.06 124.98 6.68 124.92 C7.31 124.87 7.98 124.82 8.67 124.76 C9.38 124.71 10.11
							 124.65 10.87 124.6 C11.63 124.54 12.42 124.48 13.22 124.43 C14.02 124.37 14.84 124.32 15.67 124.26 C16.49
							 124.21 17.31 124.15 18.15 124.1 C18.97 124.05 19.79 124 20.61 123.95 C21.44 123.9 22.27 123.84 23.08
							 123.79 C23.91 123.73 24.73 123.68 25.53 123.62 C26.34 123.57 27.13 123.51 27.89 123.45 C28.65 123.4
							 29.39 123.34 30.1 123.29 C30.8 123.23 31.46 123.18 32.1 123.12 C32.72 123.07 33.31 123.02 33.86 122.97
							 C34.42 122.92 34.94 122.87 35.42 122.81 C35.9 122.76 36.34 122.7 36.72 122.65 C37.11 122.59 37.45 122.53
							 37.74 122.48 C38.03 122.42 38.28 122.37 38.45 122.31 C38.59 122.26 38.68 122.22 38.77 122.17"
						class="st6"/>
			</g>
			<g id="shape546-146" v:mID="546" v:groupContext="shape" v:layerMember="1" transform="translate(7.9969,-17.3227)">
				<title>Sheet.546</title>
				<v:userDefs>
					<v:ud v:nameU="SOLSH" v:prompt="" v:val="VT4({13D0FF3B-CF5B-4a46-98AB-14030248EAEF})"/>
					<v:ud v:nameU="DWGEntityType" v:prompt="" v:val="VT4(SPLINE)"/>
				</v:userDefs>
				<path d="M0 126 C-0 125.97 -0 125.93 0.03 125.9 C0.08 125.85 0.22 125.79 0.4 125.74 C0.58 125.68 0.81 125.63 1.09
							 125.57 C1.37 125.52 1.71 125.46 2.09 125.4 C2.48 125.35 2.91 125.29 3.39 125.24 C3.86 125.18 4.37 125.13
							 4.93 125.08 C5.48 125.03 6.06 124.98 6.68 124.92 C7.31 124.87 7.98 124.82 8.67 124.76 C9.38 124.71 10.11
							 124.65 10.87 124.6 C11.63 124.54 12.42 124.48 13.22 124.43 C14.02 124.37 14.84 124.32 15.67 124.26 C16.49
							 124.21 17.31 124.15 18.15 124.1 C18.97 124.05 19.79 124 20.61 123.95 C21.44 123.9 22.27 123.84 23.09
							 123.79 C23.91 123.73 24.73 123.68 25.53 123.62 C26.34 123.56 27.13 123.51 27.89 123.45 C28.65 123.4
							 29.39 123.34 30.1 123.29 C30.8 123.23 31.46 123.18 32.1 123.12 C32.72 123.07 33.31 123.02 33.86 122.97
							 C34.42 122.92 34.94 122.87 35.42 122.81 C35.9 122.76 36.34 122.7 36.72 122.65 C37.11 122.59 37.45 122.53
							 37.74 122.48 C38.03 122.42 38.28 122.36 38.45 122.31 C38.59 122.26 38.68 122.22 38.77 122.17 L0 126
							 Z" class="st1"/>
				<path d="M0 126 C-0 125.97 -0 125.93 0.03 125.9 C0.08 125.85 0.22 125.79 0.4 125.74 C0.58 125.68 0.81 125.63 1.09
							 125.57 C1.37 125.52 1.71 125.46 2.09 125.4 C2.48 125.35 2.91 125.29 3.39 125.24 C3.86 125.18 4.37 125.13
							 4.93 125.08 C5.48 125.03 6.06 124.98 6.68 124.92 C7.31 124.87 7.98 124.82 8.67 124.76 C9.38 124.71 10.11
							 124.65 10.87 124.6 C11.63 124.54 12.42 124.48 13.22 124.43 C14.02 124.37 14.84 124.32 15.67 124.26 C16.49
							 124.21 17.31 124.15 18.15 124.1 C18.97 124.05 19.79 124 20.61 123.95 C21.44 123.9 22.27 123.84 23.09
							 123.79 C23.91 123.73 24.73 123.68 25.53 123.62 C26.34 123.56 27.13 123.51 27.89 123.45 C28.65 123.4
							 29.39 123.34 30.1 123.29 C30.8 123.23 31.46 123.18 32.1 123.12 C32.72 123.07 33.31 123.02 33.86 122.97
							 C34.42 122.92 34.94 122.87 35.42 122.81 C35.9 122.76 36.34 122.7 36.72 122.65 C37.11 122.59 37.45 122.53
							 37.74 122.48 C38.03 122.42 38.28 122.36 38.45 122.31 C38.59 122.26 38.68 122.22 38.77 122.17"
						class="st6"/>
			</g>
			<g id="shape547-149" v:mID="547" v:groupContext="shape" v:layerMember="1" transform="translate(7.99682,-25.2419)">
				<title>Sheet.547</title>
				<v:userDefs>
					<v:ud v:nameU="SOLSH" v:prompt="" v:val="VT4({13D0FF3B-CF5B-4a46-98AB-14030248EAEF})"/>
					<v:ud v:nameU="DWGEntityType" v:prompt="" v:val="VT4(SPLINE)"/>
				</v:userDefs>
				<path d="M0 126 C-0 125.97 -0 125.93 0.03 125.9 C0.08 125.85 0.22 125.79 0.4 125.74 C0.58 125.68 0.81 125.63 1.09
							 125.57 C1.37 125.52 1.71 125.46 2.09 125.4 C2.48 125.35 2.91 125.29 3.39 125.24 C3.86 125.18 4.37 125.13
							 4.93 125.08 C5.48 125.03 6.06 124.98 6.68 124.92 C7.31 124.87 7.98 124.82 8.67 124.76 C9.38 124.71 10.11
							 124.65 10.87 124.6 C11.63 124.54 12.42 124.48 13.22 124.43 C14.02 124.37 14.84 124.32 15.67 124.26 C16.49
							 124.21 17.31 124.15 18.15 124.1 C18.97 124.05 19.79 124 20.61 123.95 C21.44 123.9 22.27 123.84 23.09
							 123.79 C23.91 123.73 24.73 123.68 25.53 123.62 C26.34 123.56 27.13 123.51 27.89 123.45 C28.65 123.4
							 29.39 123.34 30.1 123.28 C30.8 123.23 31.46 123.18 32.1 123.12 C32.72 123.07 33.31 123.02 33.86 122.97
							 C34.42 122.92 34.94 122.87 35.42 122.81 C35.9 122.76 36.34 122.7 36.72 122.65 C37.11 122.59 37.45 122.53
							 37.74 122.48 C38.03 122.42 38.28 122.36 38.45 122.31 C38.59 122.26 38.68 122.22 38.77 122.17 L0 126
							 Z" class="st1"/>
				<path d="M0 126 C-0 125.97 -0 125.93 0.03 125.9 C0.08 125.85 0.22 125.79 0.4 125.74 C0.58 125.68 0.81 125.63 1.09
							 125.57 C1.37 125.52 1.71 125.46 2.09 125.4 C2.48 125.35 2.91 125.29 3.39 125.24 C3.86 125.18 4.37 125.13
							 4.93 125.08 C5.48 125.03 6.06 124.98 6.68 124.92 C7.31 124.87 7.98 124.82 8.67 124.76 C9.38 124.71 10.11
							 124.65 10.87 124.6 C11.63 124.54 12.42 124.48 13.22 124.43 C14.02 124.37 14.84 124.32 15.67 124.26 C16.49
							 124.21 17.31 124.15 18.15 124.1 C18.97 124.05 19.79 124 20.61 123.95 C21.44 123.9 22.27 123.84 23.09
							 123.79 C23.91 123.73 24.73 123.68 25.53 123.62 C26.34 123.56 27.13 123.51 27.89 123.45 C28.65 123.4
							 29.39 123.34 30.1 123.28 C30.8 123.23 31.46 123.18 32.1 123.12 C32.72 123.07 33.31 123.02 33.86 122.97
							 C34.42 122.92 34.94 122.87 35.42 122.81 C35.9 122.76 36.34 122.7 36.72 122.65 C37.11 122.59 37.45 122.53
							 37.74 122.48 C38.03 122.42 38.28 122.36 38.45 122.31 C38.59 122.26 38.68 122.22 38.77 122.17"
						class="st6"/>
			</g>
			<g id="shape548-152" v:mID="548" v:groupContext="shape" v:layerMember="1" transform="translate(5.82774,-2.31306)">
				<title>Sheet.548</title>
				<v:userDefs>
					<v:ud v:nameU="SOLSH" v:prompt="" v:val="VT4({13D0FF3B-CF5B-4a46-98AB-14030248EAEF})"/>
					<v:ud v:nameU="DWGEntityType" v:prompt="" v:val="VT4(SPLINE)"/>
				</v:userDefs>
				<path d="M0.61 126 C0.55 125.97 0.49 125.93 0.43 125.9 C0.31 125.82 0.22 125.75 0.16 125.67 C0.09 125.6 0.05 125.52
							 0.02 125.45 C-0 125.37 -0.01 125.29 0.01 125.22 C0.03 125.14 0.07 125.06 0.14 124.98 C0.2 124.91 0.28
							 124.83 0.39 124.75 C0.52 124.65 0.69 124.56 0.89 124.46 C1.09 124.37 1.32 124.27 1.59 124.18 C1.9 124.07
							 2.26 123.96 2.66 123.85 C3.07 123.74 3.52 123.63 4.01 123.53 C4.27 123.47 4.55 123.42 4.82 123.36 L0.61
							 126 Z" class="st1"/>
				<path d="M0.61 126 C0.55 125.97 0.49 125.93 0.43 125.9 C0.31 125.82 0.22 125.75 0.16 125.67 C0.09 125.6 0.05 125.52
							 0.02 125.45 C-0 125.37 -0.01 125.29 0.01 125.22 C0.03 125.14 0.07 125.06 0.14 124.98 C0.2 124.91 0.28
							 124.83 0.39 124.75 C0.52 124.65 0.69 124.56 0.89 124.46 C1.09 124.37 1.32 124.27 1.59 124.18 C1.9 124.07
							 2.26 123.96 2.66 123.85 C3.07 123.74 3.52 123.63 4.01 123.53 C4.27 123.47 4.55 123.42 4.82 123.36"
						class="st6"/>
			</g>
			<g id="shape549-155" v:mID="549" v:groupContext="shape" v:layerMember="1" transform="translate(3.67543,-4.94964)">
				<title>Sheet.549</title>
				<v:userDefs>
					<v:ud v:nameU="SOLSH" v:prompt="" v:val="VT4({13D0FF3B-CF5B-4a46-98AB-14030248EAEF})"/>
					<v:ud v:nameU="DWGEntityType" v:prompt="" v:val="VT4(SPLINE)"/>
				</v:userDefs>
				<path d="M0 126 C0.01 125.97 0.02 125.95 0.05 125.92 C0.08 125.9 0.13 125.87 0.19 125.84 C0.28 125.81 0.39 125.77
							 0.53 125.74 C0.67 125.7 0.83 125.67 1.02 125.63 C1.22 125.6 1.44 125.56 1.7 125.52 C1.95 125.49 2.23
							 125.45 2.53 125.41 C2.83 125.38 3.15 125.34 3.49 125.3 C3.83 125.27 4.2 125.23 4.59 125.2 C4.99 125.16
							 5.42 125.13 5.86 125.09 C6.31 125.06 6.78 125.02 7.27 124.99 C7.74 124.96 8.23 124.92 8.75 124.89 C9.26
							 124.85 9.78 124.82 10.33 124.78 C10.89 124.75 11.46 124.71 12.05 124.67 C12.64 124.64 13.25 124.6 13.87
							 124.56 C14.47 124.53 15.08 124.49 15.7 124.46 C16.32 124.42 16.95 124.38 17.58 124.35 C18.24 124.31
							 18.9 124.28 19.57 124.24 C20.24 124.2 20.91 124.17 21.58 124.13 C22.24 124.1 22.9 124.06 23.56 124.03
							 C24.22 124 24.88 123.96 25.54 123.93 C26.21 123.9 26.89 123.86 27.56 123.82 C28.23 123.79 28.89 123.75
							 29.55 123.72 C30.19 123.68 30.82 123.64 31.44 123.61 C32.07 123.57 32.68 123.54 33.29 123.5 C33.91 123.46
							 34.52 123.43 35.11 123.39 C35.71 123.35 36.29 123.32 36.86 123.28 C37.41 123.25 37.94 123.21 38.46 123.18
							 C38.98 123.14 39.48 123.11 39.96 123.07 C40.46 123.04 40.93 123 41.39 122.97 C41.84 122.93 42.28 122.9
							 42.69 122.86 C43.09 122.83 43.46 122.79 43.82 122.76 C44.17 122.72 44.5 122.69 44.81 122.65 C45.12 122.62
							 45.41 122.58 45.67 122.54 C45.93 122.5 46.17 122.47 46.38 122.43 C46.58 122.4 46.75 122.36 46.9 122.32
							 C47.05 122.29 47.17 122.25 47.27 122.22 C47.37 122.18 47.43 122.15 47.48 122.11 C47.52 122.08 47.53
							 122.04 47.51 122.01 C47.49 121.98 47.45 121.96 47.41 121.93 L0 126 Z" class="st1"/>
				<path d="M0 126 C0.01 125.97 0.02 125.95 0.05 125.92 C0.08 125.9 0.13 125.87 0.19 125.84 C0.28 125.81 0.39 125.77
							 0.53 125.74 C0.67 125.7 0.83 125.67 1.02 125.63 C1.22 125.6 1.44 125.56 1.7 125.52 C1.95 125.49 2.23
							 125.45 2.53 125.41 C2.83 125.38 3.15 125.34 3.49 125.3 C3.83 125.27 4.2 125.23 4.59 125.2 C4.99 125.16
							 5.42 125.13 5.86 125.09 C6.31 125.06 6.78 125.02 7.27 124.99 C7.74 124.96 8.23 124.92 8.75 124.89 C9.26
							 124.85 9.78 124.82 10.33 124.78 C10.89 124.75 11.46 124.71 12.05 124.67 C12.64 124.64 13.25 124.6 13.87
							 124.56 C14.47 124.53 15.08 124.49 15.7 124.46 C16.32 124.42 16.95 124.38 17.58 124.35 C18.24 124.31
							 18.9 124.28 19.57 124.24 C20.24 124.2 20.91 124.17 21.58 124.13 C22.24 124.1 22.9 124.06 23.56 124.03
							 C24.22 124 24.88 123.96 25.54 123.93 C26.21 123.9 26.89 123.86 27.56 123.82 C28.23 123.79 28.89 123.75
							 29.55 123.72 C30.19 123.68 30.82 123.64 31.44 123.61 C32.07 123.57 32.68 123.54 33.29 123.5 C33.91 123.46
							 34.52 123.43 35.11 123.39 C35.71 123.35 36.29 123.32 36.86 123.28 C37.41 123.25 37.94 123.21 38.46 123.18
							 C38.98 123.14 39.48 123.11 39.96 123.07 C40.46 123.04 40.93 123 41.39 122.97 C41.84 122.93 42.28 122.9
							 42.69 122.86 C43.09 122.83 43.46 122.79 43.82 122.76 C44.17 122.72 44.5 122.69 44.81 122.65 C45.12 122.62
							 45.41 122.58 45.67 122.54 C45.93 122.5 46.17 122.47 46.38 122.43 C46.58 122.4 46.75 122.36 46.9 122.32
							 C47.05 122.29 47.17 122.25 47.27 122.22 C47.37 122.18 47.43 122.15 47.48 122.11 C47.52 122.08 47.53
							 122.04 47.51 122.01 C47.49 121.98 47.45 121.96 47.41 121.93" class="st6"/>
			</g>
			<g id="shape550-158" v:mID="550" v:groupContext="shape" v:layerMember="1" transform="translate(3.67651,-12.868)">
				<title>Sheet.550</title>
				<v:userDefs>
					<v:ud v:nameU="SOLSH" v:prompt="" v:val="VT4({13D0FF3B-CF5B-4a46-98AB-14030248EAEF})"/>
					<v:ud v:nameU="DWGEntityType" v:prompt="" v:val="VT4(SPLINE)"/>
				</v:userDefs>
				<path d="M0.01 126 C0 126 0 125.99 -0 125.99 C-0.02 125.96 0.03 125.92 0.1 125.89 C0.17 125.85 0.26 125.82 0.37 125.78
							 C0.49 125.74 0.64 125.71 0.82 125.67 C0.99 125.64 1.19 125.6 1.41 125.56 C1.64 125.53 1.89 125.49 2.16
							 125.46 C2.44 125.42 2.75 125.38 3.09 125.35 C3.42 125.31 3.78 125.27 4.17 125.24 C4.54 125.2 4.94 125.17
							 5.35 125.13 C5.77 125.1 6.21 125.06 6.67 125.03 C7.14 125 7.63 124.96 8.14 124.93 C8.65 124.89 9.18
							 124.86 9.73 124.82 C10.26 124.79 10.81 124.75 11.37 124.72 C11.94 124.68 12.51 124.64 13.1 124.61 C13.71
							 124.57 14.33 124.53 14.96 124.5 C15.59 124.46 16.23 124.42 16.88 124.39 C17.51 124.35 18.15 124.32 18.79
							 124.28 C19.44 124.25 20.09 124.21 20.74 124.18 C21.41 124.14 22.09 124.11 22.77 124.07 C23.45 124.04
							 24.13 124 24.8 123.97 C25.46 123.93 26.12 123.9 26.77 123.86 C27.43 123.83 28.08 123.79 28.72 123.76
							 C29.39 123.72 30.04 123.69 30.69 123.65 C31.34 123.61 31.98 123.58 32.61 123.54 C33.22 123.5 33.83 123.47
							 34.41 123.43 C35 123.4 35.58 123.36 36.14 123.32 C36.72 123.29 37.29 123.25 37.83 123.22 C38.38 123.18
							 38.91 123.14 39.42 123.11 C39.91 123.08 40.39 123.04 40.85 123.01 C41.31 122.98 41.75 122.94 42.16 122.91
							 C42.59 122.87 43 122.84 43.38 122.8 C43.76 122.76 44.12 122.73 44.45 122.69 C44.78 122.66 45.08 122.62
							 45.35 122.58 C45.63 122.55 45.88 122.51 46.1 122.48 C46.33 122.44 46.54 122.4 46.71 122.37 C46.89 122.33
							 47.03 122.29 47.15 122.26 C47.27 122.22 47.36 122.19 47.41 122.15 C47.47 122.12 47.5 122.08 47.51 122.05
							 C47.53 122.02 47.52 121.98 47.45 121.95 C47.43 121.94 47.42 121.94 47.41 121.93 L0.01 126 Z"
						class="st1"/>
				<path d="M0.01 126 C0 126 0 125.99 -0 125.99 C-0.02 125.96 0.03 125.92 0.1 125.89 C0.17 125.85 0.26 125.82 0.37 125.78
							 C0.49 125.74 0.64 125.71 0.82 125.67 C0.99 125.64 1.19 125.6 1.41 125.56 C1.64 125.53 1.89 125.49 2.16
							 125.46 C2.44 125.42 2.75 125.38 3.09 125.35 C3.42 125.31 3.78 125.27 4.17 125.24 C4.54 125.2 4.94 125.17
							 5.35 125.13 C5.77 125.1 6.21 125.06 6.67 125.03 C7.14 125 7.63 124.96 8.14 124.93 C8.65 124.89 9.18
							 124.86 9.73 124.82 C10.26 124.79 10.81 124.75 11.37 124.72 C11.94 124.68 12.51 124.64 13.1 124.61 C13.71
							 124.57 14.33 124.53 14.96 124.5 C15.59 124.46 16.23 124.42 16.88 124.39 C17.51 124.35 18.15 124.32 18.79
							 124.28 C19.44 124.25 20.09 124.21 20.74 124.18 C21.41 124.14 22.09 124.11 22.77 124.07 C23.45 124.04
							 24.13 124 24.8 123.97 C25.46 123.93 26.12 123.9 26.77 123.86 C27.43 123.83 28.08 123.79 28.72 123.76
							 C29.39 123.72 30.04 123.69 30.69 123.65 C31.34 123.61 31.98 123.58 32.61 123.54 C33.22 123.5 33.83 123.47
							 34.41 123.43 C35 123.4 35.58 123.36 36.14 123.32 C36.72 123.29 37.29 123.25 37.83 123.22 C38.38 123.18
							 38.91 123.14 39.42 123.11 C39.91 123.08 40.39 123.04 40.85 123.01 C41.31 122.98 41.75 122.94 42.16 122.91
							 C42.59 122.87 43 122.84 43.38 122.8 C43.76 122.76 44.12 122.73 44.45 122.69 C44.78 122.66 45.08 122.62
							 45.35 122.58 C45.63 122.55 45.88 122.51 46.1 122.48 C46.33 122.44 46.54 122.4 46.71 122.37 C46.89 122.33
							 47.03 122.29 47.15 122.26 C47.27 122.22 47.36 122.19 47.41 122.15 C47.47 122.12 47.5 122.08 47.51 122.05
							 C47.53 122.02 47.52 121.98 47.45 121.95 C47.43 121.94 47.42 121.94 47.41 121.93" class="st6"/>
			</g>
			<g id="shape551-161" v:mID="551" v:groupContext="shape" v:layerMember="1" transform="translate(3.69322,-20.7873)">
				<title>Sheet.551</title>
				<v:userDefs>
					<v:ud v:nameU="SOLSH" v:prompt="" v:val="VT4({13D0FF3B-CF5B-4a46-98AB-14030248EAEF})"/>
					<v:ud v:nameU="DWGEntityType" v:prompt="" v:val="VT4(SPLINE)"/>
				</v:userDefs>
				<path d="M0 126 C0 125.98 0 125.95 0.03 125.93 C0.06 125.89 0.13 125.86 0.23 125.82 C0.33 125.79 0.45 125.75 0.6
							 125.72 C0.75 125.68 0.93 125.64 1.14 125.61 C1.35 125.57 1.59 125.53 1.85 125.5 C2.11 125.46 2.39 125.42
							 2.69 125.39 C3 125.35 3.33 125.32 3.68 125.28 C4.05 125.25 4.44 125.21 4.85 125.17 C5.26 125.14 5.69
							 125.1 6.15 125.07 C6.59 125.03 7.06 125 7.54 124.97 C8.02 124.93 8.52 124.9 9.04 124.87 C9.57 124.83
							 10.12 124.79 10.69 124.76 C11.26 124.72 11.84 124.68 12.44 124.65 C13.02 124.61 13.61 124.58 14.21 124.54
							 C14.82 124.5 15.43 124.47 16.06 124.43 C16.7 124.4 17.35 124.36 18.01 124.32 C18.67 124.29 19.33 124.25
							 20 124.21 C20.65 124.18 21.31 124.14 21.96 124.11 C22.62 124.08 23.28 124.04 23.94 124.01 C24.62 123.98
							 25.3 123.94 25.97 123.91 C26.65 123.87 27.32 123.83 27.99 123.8 C28.64 123.76 29.28 123.73 29.92 123.69
							 C30.55 123.66 31.18 123.62 31.8 123.59 C32.44 123.55 33.07 123.51 33.69 123.47 C34.3 123.44 34.91 123.4
							 35.5 123.36 C36.07 123.33 36.63 123.29 37.17 123.26 C37.72 123.22 38.24 123.19 38.76 123.15 C39.28 123.12
							 39.79 123.08 40.28 123.05 C40.76 123.01 41.23 122.98 41.68 122.95 C42.11 122.91 42.52 122.88 42.91 122.84
							 C43.3 122.81 43.67 122.77 44.01 122.74 C44.36 122.7 44.69 122.66 45 122.63 C45.3 122.59 45.58 122.55
							 45.83 122.52 C46.07 122.48 46.29 122.44 46.48 122.41 C46.67 122.37 46.83 122.34 46.97 122.3 C47.11 122.27
							 47.23 122.23 47.31 122.19 C47.4 122.16 47.45 122.12 47.48 122.09 C47.51 122.05 47.52 122.02 47.48 121.99
							 C47.45 121.97 47.42 121.95 47.38 121.93 L0 126 Z" class="st1"/>
				<path d="M0 126 C0 125.98 0 125.95 0.03 125.93 C0.06 125.89 0.13 125.86 0.23 125.82 C0.33 125.79 0.45 125.75 0.6
							 125.72 C0.75 125.68 0.93 125.64 1.14 125.61 C1.35 125.57 1.59 125.53 1.85 125.5 C2.11 125.46 2.39 125.42
							 2.69 125.39 C3 125.35 3.33 125.32 3.68 125.28 C4.05 125.25 4.44 125.21 4.85 125.17 C5.26 125.14 5.69
							 125.1 6.15 125.07 C6.59 125.03 7.06 125 7.54 124.97 C8.02 124.93 8.52 124.9 9.04 124.87 C9.57 124.83
							 10.12 124.79 10.69 124.76 C11.26 124.72 11.84 124.68 12.44 124.65 C13.02 124.61 13.61 124.58 14.21 124.54
							 C14.82 124.5 15.43 124.47 16.06 124.43 C16.7 124.4 17.35 124.36 18.01 124.32 C18.67 124.29 19.33 124.25
							 20 124.21 C20.65 124.18 21.31 124.14 21.96 124.11 C22.62 124.08 23.28 124.04 23.94 124.01 C24.62 123.98
							 25.3 123.94 25.97 123.91 C26.65 123.87 27.32 123.83 27.99 123.8 C28.64 123.76 29.28 123.73 29.92 123.69
							 C30.55 123.66 31.18 123.62 31.8 123.59 C32.44 123.55 33.07 123.51 33.69 123.47 C34.3 123.44 34.91 123.4
							 35.5 123.36 C36.07 123.33 36.63 123.29 37.17 123.26 C37.72 123.22 38.24 123.19 38.76 123.15 C39.28 123.12
							 39.79 123.08 40.28 123.05 C40.76 123.01 41.23 122.98 41.68 122.95 C42.11 122.91 42.52 122.88 42.91 122.84
							 C43.3 122.81 43.67 122.77 44.01 122.74 C44.36 122.7 44.69 122.66 45 122.63 C45.3 122.59 45.58 122.55
							 45.83 122.52 C46.07 122.48 46.29 122.44 46.48 122.41 C46.67 122.37 46.83 122.34 46.97 122.3 C47.11 122.27
							 47.23 122.23 47.31 122.19 C47.4 122.16 47.45 122.12 47.48 122.09 C47.51 122.05 47.52 122.02 47.48 121.99
							 C47.45 121.97 47.42 121.95 47.38 121.93" class="st6"/>
			</g>
			<g id="shape552-164" v:mID="552" v:groupContext="shape" v:layerMember="1" transform="translate(3.68331,-28.7066)">
				<title>Sheet.552</title>
				<v:userDefs>
					<v:ud v:nameU="SOLSH" v:prompt="" v:val="VT4({13D0FF3B-CF5B-4a46-98AB-14030248EAEF})"/>
					<v:ud v:nameU="DWGEntityType" v:prompt="" v:val="VT4(SPLINE)"/>
				</v:userDefs>
				<path d="M0.01 126 C0 125.99 -0 125.98 -0 125.97 C0 125.93 0.06 125.9 0.14 125.86 C0.22 125.83 0.32 125.79 0.45 125.76
							 C0.58 125.72 0.74 125.69 0.92 125.65 C1.1 125.61 1.31 125.58 1.55 125.54 C1.79 125.51 2.06 125.47 2.35
							 125.43 C2.64 125.39 2.96 125.36 3.31 125.32 C3.69 125.28 4.11 125.24 4.53 125.2 L0.01 126 Z"
						class="st1"/>
				<path d="M0.01 126 C0 125.99 -0 125.98 -0 125.97 C0 125.93 0.06 125.9 0.14 125.86 C0.22 125.83 0.32 125.79 0.45 125.76
							 C0.58 125.72 0.74 125.69 0.92 125.65 C1.1 125.61 1.31 125.58 1.55 125.54 C1.79 125.51 2.06 125.47 2.35
							 125.43 C2.64 125.39 2.96 125.36 3.31 125.32 C3.69 125.28 4.11 125.24 4.53 125.2" class="st6"/>
			</g>
			<g id="shape553-167" v:mID="553" v:groupContext="shape" v:layerMember="1" transform="translate(15.6917,-0.663126)">
				<title>Sheet.553</title>
				<v:userDefs>
					<v:ud v:nameU="SOLSH" v:prompt="" v:val="VT4({13D0FF3B-CF5B-4a46-98AB-14030248EAEF})"/>
					<v:ud v:nameU="DWGEntityType" v:prompt="" v:val="VT4(SPLINE)"/>
				</v:userDefs>
				<path d="M0 126 C0.59 125.95 1.19 125.91 1.81 125.86 C2.43 125.81 3.08 125.76 3.75 125.71 C4.43 125.66 5.12 125.61
							 5.83 125.57 C6.53 125.52 7.25 125.47 7.97 125.42 C8.69 125.37 9.41 125.33 10.14 125.28 C10.86 125.23
							 11.58 125.19 12.3 125.15 C13.02 125.1 13.74 125.05 14.46 125.01 C15.19 124.96 15.91 124.91 16.62 124.86
							 C17.34 124.82 18.05 124.77 18.74 124.72 C19.43 124.67 20.11 124.62 20.76 124.57 C21.42 124.52 22.05
							 124.47 22.66 124.42 C23.27 124.38 23.85 124.33 24.4 124.28 C24.95 124.24 25.47 124.19 25.96 124.15 C26.46
							 124.1 26.92 124.06 27.35 124.01 C27.79 123.96 28.2 123.92 28.57 123.87 C28.94 123.82 29.28 123.77 29.58
							 123.72 C29.87 123.67 30.13 123.62 30.35 123.57 C30.57 123.52 30.74 123.48 30.88 123.43 C31.02 123.38
							 31.12 123.33 31.16 123.29 C31.19 123.26 31.19 123.23 31.19 123.2 L0 126 Z" class="st1"/>
				<path d="M0 126 C0.59 125.95 1.19 125.91 1.81 125.86 C2.43 125.81 3.08 125.76 3.75 125.71 C4.43 125.66 5.12 125.61
							 5.83 125.57 C6.53 125.52 7.25 125.47 7.97 125.42 C8.69 125.37 9.41 125.33 10.14 125.28 C10.86 125.23
							 11.58 125.19 12.3 125.15 C13.02 125.1 13.74 125.05 14.46 125.01 C15.19 124.96 15.91 124.91 16.62 124.86
							 C17.34 124.82 18.05 124.77 18.74 124.72 C19.43 124.67 20.11 124.62 20.76 124.57 C21.42 124.52 22.05
							 124.47 22.66 124.42 C23.27 124.38 23.85 124.33 24.4 124.28 C24.95 124.24 25.47 124.19 25.96 124.15 C26.46
							 124.1 26.92 124.06 27.35 124.01 C27.79 123.96 28.2 123.92 28.57 123.87 C28.94 123.82 29.28 123.77 29.58
							 123.72 C29.87 123.67 30.13 123.62 30.35 123.57 C30.57 123.52 30.74 123.48 30.88 123.43 C31.02 123.38
							 31.12 123.33 31.16 123.29 C31.19 123.26 31.19 123.23 31.19 123.2" class="st6"/>
			</g>
			<g id="shape554-170" v:mID="554" v:groupContext="shape" v:layerMember="1" transform="translate(8.10828,-7.55721)">
				<title>Sheet.554</title>
				<v:userDefs>
					<v:ud v:nameU="SOLSH" v:prompt="" v:val="VT4({13D0FF3B-CF5B-4a46-98AB-14030248EAEF})"/>
					<v:ud v:nameU="DWGEntityType" v:prompt="" v:val="VT4(SPLINE)"/>
				</v:userDefs>
				<path d="M0 126 C0.04 125.98 0.07 125.95 0.13 125.93 C0.24 125.88 0.42 125.83 0.63 125.78 C0.84 125.73 1.08 125.68
							 1.37 125.63 C1.65 125.58 1.98 125.53 2.34 125.49 C2.7 125.44 3.1 125.39 3.53 125.34 C3.96 125.29 4.41
							 125.25 4.9 125.2 C5.38 125.16 5.9 125.11 6.43 125.07 C6.98 125.02 7.55 124.98 8.15 124.93 C8.75 124.88
							 9.38 124.83 10.03 124.78 C10.68 124.74 11.35 124.69 12.04 124.64 C12.73 124.59 13.43 124.54 14.15 124.49
							 C14.85 124.44 15.58 124.39 16.3 124.35 C17.02 124.3 17.74 124.25 18.47 124.21 C19.19 124.16 19.91 124.12
							 20.62 124.07 C21.35 124.03 22.07 123.98 22.79 123.93 C23.52 123.89 24.23 123.84 24.94 123.79 C25.65
							 123.74 26.35 123.69 27.03 123.64 C27.71 123.59 28.37 123.54 29.02 123.49 C29.66 123.45 30.27 123.4 30.87
							 123.35 C31.45 123.3 32.01 123.26 32.54 123.21 C33.07 123.17 33.57 123.12 34.04 123.08 C34.52 123.03
							 34.97 122.98 35.38 122.94 C35.8 122.89 36.18 122.84 36.52 122.79 C36.87 122.74 37.18 122.69 37.45 122.64
							 C37.72 122.6 37.96 122.55 38.15 122.5 C38.33 122.45 38.48 122.4 38.59 122.35 C38.7 122.31 38.78 122.26
							 38.79 122.22 C38.79 122.2 38.78 122.19 38.77 122.17 L0 126 Z" class="st1"/>
				<path d="M0 126 C0.04 125.98 0.07 125.95 0.13 125.93 C0.24 125.88 0.42 125.83 0.63 125.78 C0.84 125.73 1.08 125.68
							 1.37 125.63 C1.65 125.58 1.98 125.53 2.34 125.49 C2.7 125.44 3.1 125.39 3.53 125.34 C3.96 125.29 4.41
							 125.25 4.9 125.2 C5.38 125.16 5.9 125.11 6.43 125.07 C6.98 125.02 7.55 124.98 8.15 124.93 C8.75 124.88
							 9.38 124.83 10.03 124.78 C10.68 124.74 11.35 124.69 12.04 124.64 C12.73 124.59 13.43 124.54 14.15 124.49
							 C14.85 124.44 15.58 124.39 16.3 124.35 C17.02 124.3 17.74 124.25 18.47 124.21 C19.19 124.16 19.91 124.12
							 20.62 124.07 C21.35 124.03 22.07 123.98 22.79 123.93 C23.52 123.89 24.23 123.84 24.94 123.79 C25.65
							 123.74 26.35 123.69 27.03 123.64 C27.71 123.59 28.37 123.54 29.02 123.49 C29.66 123.45 30.27 123.4 30.87
							 123.35 C31.45 123.3 32.01 123.26 32.54 123.21 C33.07 123.17 33.57 123.12 34.04 123.08 C34.52 123.03
							 34.97 122.98 35.38 122.94 C35.8 122.89 36.18 122.84 36.52 122.79 C36.87 122.74 37.18 122.69 37.45 122.64
							 C37.72 122.6 37.96 122.55 38.15 122.5 C38.33 122.45 38.48 122.4 38.59 122.35 C38.7 122.31 38.78 122.26
							 38.79 122.22 C38.79 122.2 38.78 122.19 38.77 122.17" class="st6"/>
			</g>
			<g id="shape555-173" v:mID="555" v:groupContext="shape" v:layerMember="1" transform="translate(8.09094,-15.4762)">
				<title>Sheet.555</title>
				<v:userDefs>
					<v:ud v:nameU="SOLSH" v:prompt="" v:val="VT4({13D0FF3B-CF5B-4a46-98AB-14030248EAEF})"/>
					<v:ud v:nameU="DWGEntityType" v:prompt="" v:val="VT4(SPLINE)"/>
				</v:userDefs>
				<path d="M0 126 C0.08 125.96 0.17 125.92 0.29 125.88 C0.44 125.83 0.64 125.78 0.87 125.73 C1.11 125.68 1.38 125.63
							 1.7 125.58 C2.01 125.53 2.36 125.48 2.75 125.44 C3.13 125.39 3.55 125.34 4 125.29 C4.45 125.25 4.92
							 125.2 5.43 125.16 C5.93 125.11 6.46 125.07 7.02 125.02 C7.59 124.97 8.18 124.93 8.8 124.88 C9.42 124.83
							 10.06 124.78 10.72 124.73 C11.39 124.68 12.07 124.63 12.77 124.59 C13.47 124.54 14.18 124.49 14.9 124.44
							 C15.62 124.39 16.34 124.34 17.07 124.3 C17.78 124.25 18.51 124.21 19.23 124.16 C19.95 124.12 20.67 124.07
							 21.39 124.03 C22.11 123.98 22.84 123.93 23.55 123.88 C24.27 123.84 24.99 123.79 25.69 123.74 C26.39
							 123.69 27.08 123.64 27.74 123.59 C28.41 123.54 29.06 123.49 29.69 123.44 C30.31 123.39 30.91 123.35
							 31.48 123.3 C32.05 123.25 32.58 123.21 33.09 123.17 C33.61 123.12 34.09 123.08 34.54 123.03 C35 122.98
							 35.42 122.94 35.81 122.89 C36.21 122.84 36.57 122.79 36.89 122.74 C37.21 122.69 37.49 122.64 37.74 122.59
							 C37.98 122.54 38.18 122.5 38.34 122.45 C38.51 122.4 38.63 122.35 38.7 122.3 C38.77 122.26 38.79 122.22
							 38.81 122.17 L0 126 Z" class="st1"/>
				<path d="M0 126 C0.08 125.96 0.17 125.92 0.29 125.88 C0.44 125.83 0.64 125.78 0.87 125.73 C1.11 125.68 1.38 125.63
							 1.7 125.58 C2.01 125.53 2.36 125.48 2.75 125.44 C3.13 125.39 3.55 125.34 4 125.29 C4.45 125.25 4.92
							 125.2 5.43 125.16 C5.93 125.11 6.46 125.07 7.02 125.02 C7.59 124.97 8.18 124.93 8.8 124.88 C9.42 124.83
							 10.06 124.78 10.72 124.73 C11.39 124.68 12.07 124.63 12.77 124.59 C13.47 124.54 14.18 124.49 14.9 124.44
							 C15.62 124.39 16.34 124.34 17.07 124.3 C17.78 124.25 18.51 124.21 19.23 124.16 C19.95 124.12 20.67 124.07
							 21.39 124.03 C22.11 123.98 22.84 123.93 23.55 123.88 C24.27 123.84 24.99 123.79 25.69 123.74 C26.39
							 123.69 27.08 123.64 27.74 123.59 C28.41 123.54 29.06 123.49 29.69 123.44 C30.31 123.39 30.91 123.35
							 31.48 123.3 C32.05 123.25 32.58 123.21 33.09 123.17 C33.61 123.12 34.09 123.08 34.54 123.03 C35 122.98
							 35.42 122.94 35.81 122.89 C36.21 122.84 36.57 122.79 36.89 122.74 C37.21 122.69 37.49 122.64 37.74 122.59
							 C37.98 122.54 38.18 122.5 38.34 122.45 C38.51 122.4 38.63 122.35 38.7 122.3 C38.77 122.26 38.79 122.22
							 38.81 122.17" class="st6"/>
			</g>
			<g id="shape556-176" v:mID="556" v:groupContext="shape" v:layerMember="1" transform="translate(8.09892,-23.3959)">
				<title>Sheet.556</title>
				<v:userDefs>
					<v:ud v:nameU="SOLSH" v:prompt="" v:val="VT4({13D0FF3B-CF5B-4a46-98AB-14030248EAEF})"/>
					<v:ud v:nameU="DWGEntityType" v:prompt="" v:val="VT4(SPLINE)"/>
				</v:userDefs>
				<path d="M0 126 C0.01 125.99 0.02 125.98 0.04 125.97 C0.11 125.92 0.27 125.87 0.45 125.83 C0.64 125.78 0.86 125.73
							 1.12 125.68 C1.38 125.63 1.68 125.58 2.02 125.53 C2.36 125.48 2.74 125.43 3.15 125.39 C3.55 125.34 3.99
							 125.29 4.47 125.25 C4.93 125.2 5.42 125.16 5.95 125.11 C6.47 125.07 7.03 125.02 7.6 124.97 C8.19 124.93
							 8.8 124.88 9.44 124.83 C10.07 124.78 10.73 124.73 11.41 124.68 C12.09 124.63 12.78 124.58 13.49 124.54
							 C14.19 124.49 14.91 124.44 15.64 124.39 C16.35 124.34 17.08 124.3 17.8 124.25 C18.52 124.2 19.24 124.16
							 19.96 124.12 C20.68 124.07 21.41 124.02 22.12 123.98 C22.85 123.93 23.57 123.88 24.28 123.83 C25 123.79
							 25.71 123.74 26.4 123.69 C27.09 123.64 27.76 123.59 28.42 123.54 C29.07 123.49 29.71 123.44 30.32 123.39
							 C30.92 123.35 31.5 123.3 32.05 123.25 C32.59 123.21 33.11 123.16 33.6 123.12 C34.09 123.07 34.56 123.03
							 34.99 122.98 C35.43 122.93 35.83 122.89 36.2 122.84 C36.57 122.79 36.9 122.74 37.2 122.69 C37.49 122.64
							 37.75 122.59 37.97 122.54 C38.18 122.49 38.35 122.45 38.49 122.4 C38.62 122.35 38.72 122.3 38.76 122.26
							 C38.78 122.23 38.78 122.2 38.78 122.17 L0 126 Z" class="st1"/>
				<path d="M0 126 C0.01 125.99 0.02 125.98 0.04 125.97 C0.11 125.92 0.27 125.87 0.45 125.83 C0.64 125.78 0.86 125.73
							 1.12 125.68 C1.38 125.63 1.68 125.58 2.02 125.53 C2.36 125.48 2.74 125.43 3.15 125.39 C3.55 125.34 3.99
							 125.29 4.47 125.25 C4.93 125.2 5.42 125.16 5.95 125.11 C6.47 125.07 7.03 125.02 7.6 124.97 C8.19 124.93
							 8.8 124.88 9.44 124.83 C10.07 124.78 10.73 124.73 11.41 124.68 C12.09 124.63 12.78 124.58 13.49 124.54
							 C14.19 124.49 14.91 124.44 15.64 124.39 C16.35 124.34 17.08 124.3 17.8 124.25 C18.52 124.2 19.24 124.16
							 19.96 124.12 C20.68 124.07 21.41 124.02 22.12 123.98 C22.85 123.93 23.57 123.88 24.28 123.83 C25 123.79
							 25.71 123.74 26.4 123.69 C27.09 123.64 27.76 123.59 28.42 123.54 C29.07 123.49 29.71 123.44 30.32 123.39
							 C30.92 123.35 31.5 123.3 32.05 123.25 C32.59 123.21 33.11 123.16 33.6 123.12 C34.09 123.07 34.56 123.03
							 34.99 122.98 C35.43 122.93 35.83 122.89 36.2 122.84 C36.57 122.79 36.9 122.74 37.2 122.69 C37.49 122.64
							 37.75 122.59 37.97 122.54 C38.18 122.49 38.35 122.45 38.49 122.4 C38.62 122.35 38.72 122.3 38.76 122.26
							 C38.78 122.23 38.78 122.2 38.78 122.17" class="st6"/>
			</g>
			<g id="shape557-179" v:mID="557" v:groupContext="shape" v:layerMember="1" transform="translate(8.10797,-31.3155)">
				<title>Sheet.557</title>
				<v:userDefs>
					<v:ud v:nameU="SOLSH" v:prompt="" v:val="VT4({13D0FF3B-CF5B-4a46-98AB-14030248EAEF})"/>
					<v:ud v:nameU="DWGEntityType" v:prompt="" v:val="VT4(SPLINE)"/>
				</v:userDefs>
				<path d="M0 126 C0.04 125.97 0.08 125.95 0.14 125.92 C0.26 125.87 0.43 125.82 0.65 125.78 C0.86 125.73 1.11 125.68
							 1.4 125.63 C1.68 125.58 2.01 125.53 2.38 125.48 C2.75 125.43 3.16 125.38 3.57 125.34 L0 126 Z"
						class="st1"/>
				<path d="M0 126 C0.04 125.97 0.08 125.95 0.14 125.92 C0.26 125.87 0.43 125.82 0.65 125.78 C0.86 125.73 1.11 125.68
							 1.4 125.63 C1.68 125.58 2.01 125.53 2.38 125.48 C2.75 125.43 3.16 125.38 3.57 125.34" class="st6"/>
			</g>
			<g id="shape558-182" v:mID="558" v:groupContext="shape" v:layerMember="1" transform="translate(15.6917,-0.663126)">
				<title>Sheet.558</title>
				<v:userDefs>
					<v:ud v:nameU="SOLSH" v:prompt="" v:val="VT4({13D0FF3B-CF5B-4a46-98AB-14030248EAEF})"/>
					<v:ud v:nameU="DWGEntityType" v:prompt="" v:val="VT4(SPLINE)"/>
				</v:userDefs>
				<path d="M32.94 124.15 C32.96 124.15 32.97 124.16 32.98 124.16 C33.03 124.19 33.01 124.21 32.99 124.23 C32.96 124.25
							 32.91 124.27 32.84 124.29 C32.76 124.32 32.65 124.34 32.52 124.36 C32.39 124.39 32.23 124.41 32.05 124.43
							 C31.88 124.46 31.68 124.48 31.46 124.5 C31.24 124.52 30.99 124.55 30.73 124.57 C30.46 124.59 30.16 124.62
							 29.84 124.64 C29.53 124.66 29.19 124.69 28.83 124.71 C28.48 124.73 28.11 124.76 27.73 124.78 C27.34
							 124.8 26.94 124.82 26.52 124.84 C26.08 124.86 25.63 124.89 25.17 124.91 C24.7 124.93 24.22 124.95 23.72
							 124.98 C23.24 125 22.75 125.02 22.25 125.05 C21.75 125.07 21.23 125.09 20.71 125.11 C20.17 125.14 19.62
							 125.16 19.07 125.19 C18.51 125.21 17.94 125.23 17.37 125.26 C16.82 125.28 16.27 125.3 15.72 125.32 C15.16
							 125.35 14.6 125.37 14.04 125.39 C13.46 125.41 12.88 125.44 12.3 125.46 C11.72 125.48 11.15 125.5 10.57
							 125.52 C10.01 125.55 9.46 125.57 8.91 125.59 C8.36 125.61 7.81 125.64 7.27 125.66 C6.71 125.68 6.16
							 125.71 5.62 125.73 C5.08 125.75 4.55 125.78 4.03 125.8 C3.31 125.83 2.62 125.87 1.95 125.9 C1.28 125.93
							 0.64 125.97 -0 126 L32.94 124.15 Z" class="st1"/>
				<path d="M32.94 124.15 C32.96 124.15 32.97 124.16 32.98 124.16 C33.03 124.19 33.01 124.21 32.99 124.23 C32.96 124.25
							 32.91 124.27 32.84 124.29 C32.76 124.32 32.65 124.34 32.52 124.36 C32.39 124.39 32.23 124.41 32.05 124.43
							 C31.88 124.46 31.68 124.48 31.46 124.5 C31.24 124.52 30.99 124.55 30.73 124.57 C30.46 124.59 30.16 124.62
							 29.84 124.64 C29.53 124.66 29.19 124.69 28.83 124.71 C28.48 124.73 28.11 124.76 27.73 124.78 C27.34
							 124.8 26.94 124.82 26.52 124.84 C26.08 124.86 25.63 124.89 25.17 124.91 C24.7 124.93 24.22 124.95 23.72
							 124.98 C23.24 125 22.75 125.02 22.25 125.05 C21.75 125.07 21.23 125.09 20.71 125.11 C20.17 125.14 19.62
							 125.16 19.07 125.19 C18.51 125.21 17.94 125.23 17.37 125.26 C16.82 125.28 16.27 125.3 15.72 125.32 C15.16
							 125.35 14.6 125.37 14.04 125.39 C13.46 125.41 12.88 125.44 12.3 125.46 C11.72 125.48 11.15 125.5 10.57
							 125.52 C10.01 125.55 9.46 125.57 8.91 125.59 C8.36 125.61 7.81 125.64 7.27 125.66 C6.71 125.68 6.16
							 125.71 5.62 125.73 C5.08 125.75 4.55 125.78 4.03 125.8 C3.31 125.83 2.62 125.87 1.95 125.9 C1.28 125.93
							 0.64 125.97 -0 126" class="st6"/>
			</g>
			<g id="shape559-185" v:mID="559" v:groupContext="shape" v:layerMember="1" transform="translate(7.97616,-0.663126)">
				<title>Sheet.559</title>
				<v:userDefs>
					<v:ud v:nameU="SOLSH" v:prompt="" v:val="VT4({13D0FF3B-CF5B-4a46-98AB-14030248EAEF})"/>
					<v:ud v:nameU="DWGEntityType" v:prompt="" v:val="VT4(SPLINE)"/>
				</v:userDefs>
				<path d="M7.72 126 C7.2 126 6.68 126 6.2 126 C5.7 126 5.24 126 4.8 126 C4.45 126 4.11 126 3.79 126 C3.47 126 3.17
							 126 2.88 126 C2.59 126 2.32 126 2.07 126 C1.82 126 1.59 126 1.38 126 C1.18 126 1 126 0.85 126 C0.69
							 126 0.55 126 0.43 126 C0.32 126 0.22 126 0.15 126 C0.07 126 0.02 126 0 126 C-0 126 -0 126 0 126 L7.72
							 126 Z" class="st1"/>
				<path d="M7.72 126 C7.2 126 6.68 126 6.2 126 C5.7 126 5.24 126 4.8 126 C4.45 126 4.11 126 3.79 126 C3.47 126 3.17
							 126 2.88 126 C2.59 126 2.32 126 2.07 126 C1.82 126 1.59 126 1.38 126 C1.18 126 1 126 0.85 126 C0.69
							 126 0.55 126 0.43 126 C0.32 126 0.22 126 0.15 126 C0.07 126 0.02 126 0 126 C-0 126 -0 126 0 126"
						class="st6"/>
			</g>
			<g id="shape560-188" v:mID="560" v:groupContext="shape" v:layerMember="1" transform="translate(8.62505,-1.18827E-08)">
				<title>Sheet.560</title>
				<v:userDefs>
					<v:ud v:nameU="SOLSH" v:prompt="" v:val="VT4({13D0FF3B-CF5B-4a46-98AB-14030248EAEF})"/>
					<v:ud v:nameU="DWGEntityType" v:prompt="" v:val="VT4(SPLINE)"/>
				</v:userDefs>
				<path d="M0.18 126 C0.07 126 -0.03 126 -0 126 C0.09 126 1.46 126 3.32 126 C5.18 126 7.54 126 10.54 126 C13.65 126
							 17.45 126 22.07 126 C26.7 126 32.16 126 37.62 126 L0.18 126 Z" class="st1"/>
				<path d="M0.18 126 C0.07 126 -0.03 126 -0 126 C0.09 126 1.46 126 3.32 126 C5.18 126 7.54 126 10.54 126 C13.65 126
							 17.45 126 22.07 126 C26.7 126 32.16 126 37.62 126" class="st6"/>
			</g>
			<g id="shape561-191" v:mID="561" v:groupContext="shape" transform="translate(0,-62.4686)">
				<title>Sheet.561</title>
				<path d="M41.15 126 C42.21 124.81 43.29 123.78 44.43 123.04 C45 122.67 45.58 122.37 46.18 122.16 C46.78 121.96 47.39
							 121.85 47.99 121.85 C48.59 121.84 49.2 121.95 49.79 122.15 C50.39 122.35 50.99 122.65 51.56 123.02 C52.71
							 123.77 53.81 124.8 54.87 126 L29.37 96.25 L25.53 96.25 L0 126 C1.06 124.81 2.14 123.78 3.28 123.04 C3.85
							 122.67 4.43 122.37 5.03 122.16 C5.63 121.96 6.24 121.85 6.84 121.85 C7.44 121.84 8.05 121.95 8.64 122.15
							 C9.24 122.35 9.84 122.65 10.41 123.02 C11.56 123.77 12.66 124.8 13.72 126 C15.81 124.82 18.03 123.77
							 20.32 123.02 C22.62 122.28 25.06 121.84 27.46 121.85 C28.65 121.85 29.85 121.95 31.04 122.15 C32.23
							 122.36 33.42 122.66 34.57 123.03 C36.87 123.78 39.04 124.81 41.15 126 Z" class="st9"/>
			</g>
			<g id="shape562-193" v:mID="562" v:groupContext="shape" transform="translate(12.5696,-35.6378)">
				<title>Sheet.562</title>
				<path d="M0 126 L3.34 126 L1.11 124.96 L0 126 Z" class="st9"/>
			</g>
			<g id="shape563-195" v:mID="563" v:groupContext="shape" transform="translate(38.8243,-35.6378)">
				<title>Sheet.563</title>
				<path d="M0 126 L3.45 126 L2.23 124.96 L0 126 Z" class="st9"/>
			</g>
			<g id="shape564-197" v:mID="564" v:groupContext="shape" transform="translate(41.1505,-35.6378)">
				<title>Sheet.564</title>
				<path d="M13.72 99.17 C12.66 97.97 11.56 96.94 10.41 96.19 C9.84 95.82 9.24 95.52 8.64 95.32 C8.05 95.12 7.44 95.01
							 6.84 95.02 C6.24 95.02 5.63 95.13 5.03 95.33 C4.43 95.54 3.85 95.84 3.28 96.21 C2.14 96.95 1.06 97.98
							 0 99.17 L0 124.96 L1.11 126 L12.6 126 L13.72 124.96 L13.72 99.17 Z" class="st9"/>
			</g>
			<g id="shape565-199" v:mID="565" v:groupContext="shape" transform="translate(13.7168,-35.6378)">
				<title>Sheet.565</title>
				<path d="M27.43 99.17 C25.33 97.98 23.15 96.95 20.85 96.2 C19.7 95.83 18.51 95.52 17.32 95.32 C16.13 95.12 14.94
							 95.02 13.74 95.01 C11.34 95.01 8.9 95.45 6.61 96.19 C4.31 96.94 2.09 97.99 0 99.17 L0 124.96 L2.23 126
							 L25.21 126 L27.43 124.96 L27.43 99.17 Z" class="st9"/>
			</g>
			<g id="shape566-201" v:mID="566" v:groupContext="shape" transform="translate(-6.09512E-14,-35.6378)">
				<title>Sheet.566</title>
				<path d="M13.72 99.21 L13.72 99.17 L13.68 99.17 C12.63 97.97 11.55 96.93 10.41 96.18 C9.84 95.79 9.24 95.49 8.64
							 95.28 C8.05 95.08 7.44 94.97 6.84 94.98 C6.24 94.98 5.63 95.09 5.03 95.3 C4.43 95.51 3.85 95.81 3.28
							 96.19 C2.15 96.94 1.08 97.97 0.03 99.17 L0 99.17 L0 99.21 L0 124.96 L1.11 126 L12.6 126 L13.72 124.96
							 L13.72 99.21 Z" class="st9"/>
			</g>
			<g id="shape567-203" v:mID="567" v:groupContext="shape" v:layerMember="1" transform="translate(23.7975,-29.5103)">
				<title>Sheet.567</title>
				<v:userDefs>
					<v:ud v:nameU="SOLSH" v:prompt="" v:val="VT4({13D0FF3B-CF5B-4a46-98AB-14030248EAEF})"/>
					<v:ud v:nameU="DWGEntityType" v:prompt="" v:val="VT4(SPLINE)"/>
				</v:userDefs>
				<path d="M0 126 C0.66 125.98 1.31 125.97 1.97 125.95 C2.63 125.93 3.28 125.91 3.94 125.9 C4.62 125.88 5.29 125.86
							 5.96 125.85 C6.63 125.83 7.3 125.81 7.96 125.79 C8.6 125.77 9.22 125.76 9.85 125.74 C10.47 125.72 11.08
							 125.7 11.68 125.68 C12.3 125.66 12.91 125.65 13.5 125.63 C14.1 125.61 14.68 125.59 15.24 125.57 C15.78
							 125.55 16.3 125.54 16.81 125.52 C17.32 125.5 17.81 125.48 18.29 125.47 C18.77 125.45 19.24 125.43 19.69
							 125.41 C20.14 125.4 20.56 125.38 20.97 125.36 C21.36 125.34 21.72 125.33 22.07 125.31 C22.41 125.29
							 22.73 125.27 23.03 125.25 C23.34 125.24 23.62 125.22 23.87 125.2 C24.12 125.18 24.35 125.16 24.55 125.14
							 C24.74 125.12 24.9 125.11 25.04 125.09 C25.18 125.07 25.29 125.05 25.38 125.03 C25.47 125.02 25.53 125
							 25.57 124.98 C25.61 124.96 25.63 124.94 25.6 124.93 C25.59 124.92 25.58 124.92 25.57 124.92 L0 126 Z"
						class="st1"/>
				<path d="M0 126 C0.66 125.98 1.31 125.97 1.97 125.95 C2.63 125.93 3.28 125.91 3.94 125.9 C4.62 125.88 5.29 125.86
							 5.96 125.85 C6.63 125.83 7.3 125.81 7.96 125.79 C8.6 125.77 9.22 125.76 9.85 125.74 C10.47 125.72 11.08
							 125.7 11.68 125.68 C12.3 125.66 12.91 125.65 13.5 125.63 C14.1 125.61 14.68 125.59 15.24 125.57 C15.78
							 125.55 16.3 125.54 16.81 125.52 C17.32 125.5 17.81 125.48 18.29 125.47 C18.77 125.45 19.24 125.43 19.69
							 125.41 C20.14 125.4 20.56 125.38 20.97 125.36 C21.36 125.34 21.72 125.33 22.07 125.31 C22.41 125.29
							 22.73 125.27 23.03 125.25 C23.34 125.24 23.62 125.22 23.87 125.2 C24.12 125.18 24.35 125.16 24.55 125.14
							 C24.74 125.12 24.9 125.11 25.04 125.09 C25.18 125.07 25.29 125.05 25.38 125.03 C25.47 125.02 25.53 125
							 25.57 124.98 C25.61 124.96 25.63 124.94 25.6 124.93 C25.59 124.92 25.58 124.92 25.57 124.92"
						class="st6"/>
			</g>
			<g id="shape568-206" v:mID="568" v:groupContext="shape" v:layerMember="1" transform="translate(3.7382,-27.6148)">
				<title>Sheet.568</title>
				<v:userDefs>
					<v:ud v:nameU="SOLSH" v:prompt="" v:val="VT4({13D0FF3B-CF5B-4a46-98AB-14030248EAEF})"/>
					<v:ud v:nameU="DWGEntityType" v:prompt="" v:val="VT4(SPLINE)"/>
				</v:userDefs>
				<path d="M0.1 126 C0.1 126 0.1 126 0.1 126 C-0.01 125.96 -0.01 125.92 0.01 125.88 C0.03 125.84 0.07 125.8 0.15 125.76
							 C0.24 125.72 0.36 125.67 0.53 125.63 C0.7 125.59 0.9 125.55 1.14 125.5 C1.38 125.46 1.67 125.42 1.98
							 125.37 C2.3 125.33 2.66 125.29 3.05 125.24 C3.4 125.2 3.79 125.17 4.2 125.13 C4.62 125.09 5.05 125.05
							 5.52 125.01 C5.98 124.97 6.47 124.94 6.98 124.9 C7.63 124.85 8.32 124.81 9.04 124.76 C9.77 124.71 10.53
							 124.66 11.33 124.61 C12.13 124.56 12.96 124.51 13.81 124.46 C14.67 124.41 15.55 124.36 16.44 124.3 C17.34
							 124.25 18.25 124.2 19.17 124.15 C19.46 124.14 19.76 124.12 20.06 124.1 L0.1 126 Z" class="st1"/>
				<path d="M0.1 126 C0.1 126 0.1 126 0.1 126 C-0.01 125.96 -0.01 125.92 0.01 125.88 C0.03 125.84 0.07 125.8 0.15 125.76
							 C0.24 125.72 0.36 125.67 0.53 125.63 C0.7 125.59 0.9 125.55 1.14 125.5 C1.38 125.46 1.67 125.42 1.98
							 125.37 C2.3 125.33 2.66 125.29 3.05 125.24 C3.4 125.2 3.79 125.17 4.2 125.13 C4.62 125.09 5.05 125.05
							 5.52 125.01 C5.98 124.97 6.47 124.94 6.98 124.9 C7.63 124.85 8.32 124.81 9.04 124.76 C9.77 124.71 10.53
							 124.66 11.33 124.61 C12.13 124.56 12.96 124.51 13.81 124.46 C14.67 124.41 15.55 124.36 16.44 124.3 C17.34
							 124.25 18.25 124.2 19.17 124.15 C19.46 124.14 19.76 124.12 20.06 124.1" class="st6"/>
			</g>
		</g>
		<g id="shape570-209" v:mID="570" v:groupContext="shape" transform="translate(353.215,-10.0434)">
			<title>Sheet.570</title>
			<desc>D</desc>
			<v:textBlock v:margins="rect(4,4,4,4)" v:tabSpace="42.5197"/>
			<v:textRect cx="16.2385" cy="105.732" width="32.48" height="40.5354"/>
			<rect x="0" y="85.4646" width="32.477" height="40.5354" class="st10"/>
			<text x="4" y="117.13" class="st11" v:langID="1033"><v:paragraph v:horizAlign="1"/><v:tabList/>D</text>		</g>
		<g id="shape571-212" v:mID="571" v:groupContext="shape" transform="translate(336.937,-10.1666)">
			<title>Sheet.571</title>
			<desc>3</desc>
			<v:textBlock v:margins="rect(4,4,4,4)" v:tabSpace="42.5197"/>
			<v:textRect cx="13.4646" cy="105.732" width="26.93" height="40.5354"/>
			<rect x="0" y="85.4646" width="26.9291" height="40.5354" class="st10"/>
			<text x="4" y="117.43" class="st12" v:langID="1033"><v:paragraph v:horizAlign="1"/><v:tabList/>3</text>		</g>
		<g id="shape572-215" v:mID="572" v:groupContext="shape" transform="translate(95.5391,-12.0092)">
			<title>Sheet.572</title>
			<desc>ccomplish</desc>
			<v:textBlock v:margins="rect(4,4,4,4)" v:tabSpace="42.5197"/>
			<v:textRect cx="124.889" cy="108.992" width="249.78" height="34.0157"/>
			<rect x="0" y="91.9843" width="249.777" height="34.0157" class="st10"/>
			<text x="43.75" y="119.79" class="st13" v:langID="1033"><v:paragraph v:horizAlign="2"/><v:tabList/>ccomplish</text>		</g>
		<g id="shape573-218" v:mID="573" v:groupContext="shape" transform="translate(336.37,-10.1666)">
			<title>Sheet.573</title>
			<desc>3</desc>
			<v:textBlock v:margins="rect(4,4,4,4)" v:tabSpace="42.5197"/>
			<v:textRect cx="13.4646" cy="105.732" width="26.93" height="40.5354"/>
			<rect x="0" y="85.4646" width="26.9291" height="40.5354" class="st10"/>
			<text x="4" y="117.13" class="st11" v:langID="1033"><v:paragraph v:horizAlign="1"/><v:tabList/>3</text>		</g>
	</g>
</svg>

