<?xml version="1.0" encoding="UTF-8" standalone="no"?>
<!DOCTYPE svg PUBLIC "-//W3C//DTD SVG 1.1//EN" "http://www.w3.org/Graphics/SVG/1.1/DTD/svg11.dtd">
<!-- Generated by Microsoft Visio, SVG Export Logo-Vectored.svg Logo w/o Name -->
<svg xmlns="http://www.w3.org/2000/svg" xmlns:xlink="http://www.w3.org/1999/xlink" xmlns:ev="http://www.w3.org/2001/xml-events"
		xmlns:v="http://schemas.microsoft.com/visio/2003/SVGExtensions/" width="11in" height="8.5in" viewBox="0 0 792 612"
		xml:space="preserve" color-interpolation-filters="sRGB" class="st10">
	<v:documentProperties v:langID="4105" v:metric="true" v:viewMarkup="false">
		<v:userDefs>
			<v:ud v:nameU="msvNoAutoConnect" v:val="VT0(1):26"/>
		</v:userDefs>
	</v:documentProperties>

	<style type="text/css">
	<![CDATA[
		.st1 {fill:none}
		.st2 {fill:#000000;stroke:#000000;stroke-linecap:round;stroke-linejoin:round;stroke-width:0.2}
		.st3 {fill:url(#grad0-11);stroke:none;stroke-linecap:round;stroke-linejoin:round;stroke-width:0.2}
		.st4 {fill:#ffd965;stroke:#000000;stroke-linecap:round;stroke-linejoin:round;stroke-width:0.2}
		.st5 {fill:url(#grad0-17);stroke:none;stroke-linecap:round;stroke-linejoin:round;stroke-width:0.2}
		.st6 {stroke:#000000;stroke-linecap:round;stroke-linejoin:round;stroke-width:0.2}
		.st7 {fill:#ffffff}
		.st8 {stroke:#000000;stroke-linecap:butt;stroke-width:0.2}
		.st9 {fill:none;stroke:#000000;stroke-linecap:round;stroke-linejoin:round;stroke-width:0.2}
		.st10 {fill:none;fill-rule:evenodd;font-size:12px;overflow:visible;stroke-linecap:square;stroke-miterlimit:3}
	]]>
	</style>

	<defs id="Patterns_And_Gradients">
		<linearGradient id="grad0-11" x1="0" y1="0" x2="1" y2="0" gradientTransform="rotate(0 0.5 0.5)">
			<stop offset="0.43" stop-color="#ffd965" stop-opacity="1"/>
			<stop offset="0.8" stop-color="#cc9900" stop-opacity="1"/>
		</linearGradient>
		<linearGradient id="grad0-17" x1="0" y1="0" x2="1" y2="0" gradientTransform="rotate(0 0.5 0.5)">
			<stop offset="0" stop-color="#ffd965" stop-opacity="1"/>
			<stop offset="0.62" stop-color="#cc9900" stop-opacity="1"/>
		</linearGradient>
	</defs>
	<g v:mID="6" v:index="4" v:groupContext="foregroundPage">
		<title>Logo w/o Name</title>
		<v:pageProperties v:drawingScale="0.0393701" v:pageScale="0.0393701" v:drawingUnits="24" v:shadowOffsetX="8.50394"
				v:shadowOffsetY="-8.50394"/>
		<v:layer v:name="CAD Drawing" v:index="0"/>
		<v:layer v:name="0" v:index="1" color="#000000"/>
		<g id="shape67-1" v:mID="67" v:groupContext="shape" transform="translate(190.159,-353.594)">
			<title>DWG-88997D93B055425887499FD39D</title>
			<v:userDefs>
				<v:ud v:nameU="SOLSH" v:prompt="" v:val="VT4({13D0FF3B-CF5B-4a46-98AB-14030248EAEF})"/>
			</v:userDefs>
			<path d="M0 -1134.48 L2452.06 -1134.48 L2452.06 612 L0 612 L0 -1134.48 Z" class="st1"/>
		</g>
		<g id="group575-4" transform="translate(18,-40.5354)" v:mID="575" v:groupContext="group">
			<title>Sheet.575</title>
			<g id="shape576-5" v:mID="576" v:groupContext="shape" transform="translate(0,-6.78385E-08)">
				<title>Sheet.576</title>
				<path d="M588.51 85.53 L466.07 85.53 L0 612 L137.24 612 L229.25 504.84 L424.3 504.84 L405.48 612 L493.04 612 L493.04
							 408.55 L311 408.55 L588.51 85.53 Z" class="st2"/>
			</g>
			<g id="group577-7" transform="translate(442.766,0)" v:mID="577" v:groupContext="group">
				<title>Sheet.577</title>
				<g id="shape578-8" v:mID="578" v:groupContext="shape" transform="translate(1.3749E-12,-203.454)">
					<title>Sheet.578</title>
					<path d="M145.74 288.98 L167.66 288.98 L313.23 458.83 L313.23 606.05 L306.88 612 L6.35 612 L0 606.05 L0 458.82
								 L145.74 288.98 Z" class="st3"/>
				</g>
				<g id="shape579-12" v:mID="579" v:groupContext="shape" transform="translate(21.3411,-6.78385E-08)">
					<title>Sheet.579</title>
					<path d="M246.88 408.55 L24.38 408.55 L24.47 433.61 L0 448.12 L0 453.77 L24.47 467.9 L24.47 478.82 L0 493.33
								 L0 498.98 L24.47 513.11 L24.47 524.03 L0 538.54 L0 544.19 L24.47 558.69 L24.47 569.24 L0 583.74
								 L13.42 597.16 L24.47 603.9 L24.47 608.21 L28.26 612 L243.01 612 L256.92 598.09 L246.8 591.85 L246.8
								 581.3 L271.27 566.8 L271.27 561.14 L246.8 546.64 L246.8 536.09 L271.27 521.58 L271.27 515.93 L246.8
								 501.43 L246.8 490.88 L271.27 476.37 L270.73 470.1 L246.8 456.22 L246.8 445.66 L260.47 437.73 L246.79
								 429.44 L246.88 408.55 Z" class="st4"/>
				</g>
				<g id="shape580-14" v:mID="580" v:groupContext="shape" transform="translate(165.482,-6.78381E-08)">
					<title>Sheet.580</title>
					<path d="M0 612 L97.98 612 L111.89 598.09 L101.76 591.85 L101.76 581.3 L126.23 566.8 L126.23 561.14 L101.76 546.64
								 L101.76 536.09 L126.23 521.58 L126.23 515.93 L101.76 501.43 L101.76 490.88 L126.23 476.37 L125.7
								 470.1 L101.76 456.22 L101.76 445.66 L115.43 437.73 L101.75 429.44 L101.84 408.55 L0 408.55 L0 612
								 Z" class="st5"/>
				</g>
				<g id="shape581-18" v:mID="581" v:groupContext="shape" v:layerMember="1"
						transform="translate(-24.5886,967.326) rotate(-149.997)">
					<title>Sheet.581</title>
					<v:userDefs>
						<v:ud v:nameU="SOLSH" v:prompt="" v:val="VT4({13D0FF3B-CF5B-4a46-98AB-14030248EAEF})"/>
						<v:ud v:nameU="DWGEntityType" v:prompt="" v:val="VT4(LINE)"/>
					</v:userDefs>
					<path d="M0 612 L15.78 612" class="st6"/>
				</g>
				<g id="shape582-21" v:mID="582" v:groupContext="shape" v:layerMember="1" transform="translate(21.5182,-53.3067)">
					<title>Sheet.582</title>
					<v:userDefs>
						<v:ud v:nameU="SOLSH" v:prompt="" v:val="VT4({13D0FF3B-CF5B-4a46-98AB-14030248EAEF})"/>
						<v:ud v:nameU="DWGEntityType" v:prompt="" v:val="VT4(SPLINE)"/>
					</v:userDefs>
					<path d="M0 598.11 C4.62 600.79 9.23 603.47 13.85 606.14 C17.21 608.1 20.57 610.05 23.94 612 L0 598.11 Z"
							class="st1"/>
					<path d="M0 598.11 C4.62 600.79 9.23 603.47 13.85 606.14 C17.21 608.1 20.57 610.05 23.94 612" class="st6"/>
				</g>
				<g id="shape583-24" v:mID="583" v:groupContext="shape" v:layerMember="1" transform="translate(21.5182,-98.5182)">
					<title>Sheet.583</title>
					<v:userDefs>
						<v:ud v:nameU="SOLSH" v:prompt="" v:val="VT4({13D0FF3B-CF5B-4a46-98AB-14030248EAEF})"/>
						<v:ud v:nameU="DWGEntityType" v:prompt="" v:val="VT4(SPLINE)"/>
					</v:userDefs>
					<path d="M0 598.11 C4.62 600.79 9.24 603.47 13.87 606.15 C17.22 608.1 20.58 610.05 23.94 612 L0 598.11 Z"
							class="st1"/>
					<path d="M0 598.11 C4.62 600.79 9.24 603.47 13.87 606.15 C17.22 608.1 20.58 610.05 23.94 612" class="st6"/>
				</g>
				<g id="shape584-27" v:mID="584" v:groupContext="shape" v:layerMember="1" transform="translate(21.5182,-143.73)">
					<title>Sheet.584</title>
					<v:userDefs>
						<v:ud v:nameU="SOLSH" v:prompt="" v:val="VT4({13D0FF3B-CF5B-4a46-98AB-14030248EAEF})"/>
						<v:ud v:nameU="DWGEntityType" v:prompt="" v:val="VT4(SPLINE)"/>
					</v:userDefs>
					<path d="M0 598.11 C4.63 600.8 9.26 603.48 13.88 606.16 C17.23 608.11 20.58 610.05 23.94 612 L0 598.11 Z"
							class="st1"/>
					<path d="M0 598.11 C4.63 600.8 9.26 603.48 13.88 606.16 C17.23 608.11 20.58 610.05 23.94 612" class="st6"/>
				</g>
				<g id="shape585-30" v:mID="585" v:groupContext="shape" v:layerMember="1" transform="translate(267.123,-75.5307)">
					<title>Sheet.585</title>
					<v:userDefs>
						<v:ud v:nameU="SOLSH" v:prompt="" v:val="VT4({13D0FF3B-CF5B-4a46-98AB-14030248EAEF})"/>
						<v:ud v:nameU="DWGEntityType" v:prompt="" v:val="VT4(SPLINE)"/>
					</v:userDefs>
					<path d="M0 612 C3.58 609.92 7.16 607.84 10.74 605.76 C15.36 603.08 19.98 600.41 24.59 597.73 L0 612 Z"
							class="st1"/>
					<path d="M0 612 C3.58 609.92 7.16 607.84 10.74 605.76 C15.36 603.08 19.98 600.41 24.59 597.73" class="st6"/>
				</g>
				<g id="shape586-33" v:mID="586" v:groupContext="shape" v:layerMember="1" transform="translate(267.123,-120.742)">
					<title>Sheet.586</title>
					<v:userDefs>
						<v:ud v:nameU="SOLSH" v:prompt="" v:val="VT4({13D0FF3B-CF5B-4a46-98AB-14030248EAEF})"/>
						<v:ud v:nameU="DWGEntityType" v:prompt="" v:val="VT4(SPLINE)"/>
					</v:userDefs>
					<path d="M0 612 C3.58 609.92 7.15 607.85 10.73 605.77 C15.35 603.09 19.97 600.41 24.59 597.73 L0 612 Z"
							class="st1"/>
					<path d="M0 612 C3.58 609.92 7.15 607.85 10.73 605.77 C15.35 603.09 19.97 600.41 24.59 597.73" class="st6"/>
				</g>
				<g id="shape587-36" v:mID="587" v:groupContext="shape" v:layerMember="1" transform="translate(267.123,-165.954)">
					<title>Sheet.587</title>
					<v:userDefs>
						<v:ud v:nameU="SOLSH" v:prompt="" v:val="VT4({13D0FF3B-CF5B-4a46-98AB-14030248EAEF})"/>
						<v:ud v:nameU="DWGEntityType" v:prompt="" v:val="VT4(SPLINE)"/>
					</v:userDefs>
					<path d="M0 612 C3.57 609.93 7.14 607.85 10.71 605.78 C11.92 605.08 13.12 604.38 14.33 603.69 L0 612 Z"
							class="st1"/>
					<path d="M0 612 C3.57 609.93 7.14 607.85 10.71 605.78 C11.92 605.08 13.12 604.38 14.33 603.69" class="st6"/>
				</g>
				<g id="shape588-39" v:mID="588" v:groupContext="shape" v:layerMember="1" transform="translate(267.123,-30.3192)">
					<title>Sheet.588</title>
					<v:userDefs>
						<v:ud v:nameU="SOLSH" v:prompt="" v:val="VT4({13D0FF3B-CF5B-4a46-98AB-14030248EAEF})"/>
						<v:ud v:nameU="DWGEntityType" v:prompt="" v:val="VT4(SPLINE)"/>
					</v:userDefs>
					<path d="M0 612 C3.59 609.92 7.17 607.84 10.76 605.75 C15.37 603.08 19.98 600.4 24.59 597.73 L0 612 Z"
							class="st1"/>
					<path d="M0 612 C3.59 609.92 7.17 607.84 10.76 605.75 C15.37 603.08 19.98 600.4 24.59 597.73" class="st6"/>
				</g>
				<g id="shape589-42" v:mID="589" v:groupContext="shape" v:layerMember="1"
						transform="translate(343.986,69.5597) rotate(30.137)">
					<title>Sheet.589</title>
					<v:userDefs>
						<v:ud v:nameU="SOLSH" v:prompt="" v:val="VT4({13D0FF3B-CF5B-4a46-98AB-14030248EAEF})"/>
						<v:ud v:nameU="DWGEntityType" v:prompt="" v:val="VT4(LINE)"/>
					</v:userDefs>
					<path d="M0 612 L10.1 612" class="st6"/>
				</g>
				<g id="shape590-45" v:mID="590" v:groupContext="shape" v:layerMember="1"
						transform="translate(632.983,538.537) rotate(90)">
					<title>Sheet.590</title>
					<v:userDefs>
						<v:ud v:nameU="SOLSH" v:prompt="" v:val="VT4({13D0FF3B-CF5B-4a46-98AB-14030248EAEF})"/>
						<v:ud v:nameU="DWGEntityType" v:prompt="" v:val="VT4(LINE)"/>
					</v:userDefs>
					<path d="M0 612 L5.65 612" class="st6"/>
				</g>
				<g id="shape591-48" v:mID="591" v:groupContext="shape" v:layerMember="1"
						transform="translate(632.983,493.327) rotate(90)">
					<title>Sheet.591</title>
					<v:userDefs>
						<v:ud v:nameU="SOLSH" v:prompt="" v:val="VT4({13D0FF3B-CF5B-4a46-98AB-14030248EAEF})"/>
						<v:ud v:nameU="DWGEntityType" v:prompt="" v:val="VT4(LINE)"/>
					</v:userDefs>
					<path d="M0 612 L5.65 612" class="st6"/>
				</g>
				<g id="shape592-51" v:mID="592" v:groupContext="shape" v:layerMember="1"
						transform="translate(632.983,448.116) rotate(90)">
					<title>Sheet.592</title>
					<v:userDefs>
						<v:ud v:nameU="SOLSH" v:prompt="" v:val="VT4({13D0FF3B-CF5B-4a46-98AB-14030248EAEF})"/>
						<v:ud v:nameU="DWGEntityType" v:prompt="" v:val="VT4(LINE)"/>
					</v:userDefs>
					<path d="M0 612 L5.65 612" class="st6"/>
				</g>
				<g id="shape593-54" v:mID="593" v:groupContext="shape" v:layerMember="1"
						transform="translate(-319.748,476.372) rotate(-90)">
					<title>Sheet.593</title>
					<v:userDefs>
						<v:ud v:nameU="SOLSH" v:prompt="" v:val="VT4({13D0FF3B-CF5B-4a46-98AB-14030248EAEF})"/>
						<v:ud v:nameU="DWGEntityType" v:prompt="" v:val="VT4(LINE)"/>
					</v:userDefs>
					<path d="M0 612 L5.65 612" class="st6"/>
				</g>
				<g id="shape594-57" v:mID="594" v:groupContext="shape" v:layerMember="1"
						transform="translate(-319.748,521.584) rotate(-90)">
					<title>Sheet.594</title>
					<v:userDefs>
						<v:ud v:nameU="SOLSH" v:prompt="" v:val="VT4({13D0FF3B-CF5B-4a46-98AB-14030248EAEF})"/>
						<v:ud v:nameU="DWGEntityType" v:prompt="" v:val="VT4(LINE)"/>
					</v:userDefs>
					<path d="M0 612 L5.65 612" class="st6"/>
				</g>
				<g id="shape595-60" v:mID="595" v:groupContext="shape" v:layerMember="1"
						transform="translate(-319.748,566.795) rotate(-90)">
					<title>Sheet.595</title>
					<v:userDefs>
						<v:ud v:nameU="SOLSH" v:prompt="" v:val="VT4({13D0FF3B-CF5B-4a46-98AB-14030248EAEF})"/>
						<v:ud v:nameU="DWGEntityType" v:prompt="" v:val="VT4(LINE)"/>
					</v:userDefs>
					<path d="M0 612 L5.65 612" class="st6"/>
				</g>
				<g id="shape596-63" v:mID="596" v:groupContext="shape" v:layerMember="1" transform="translate(267.78,-141.897)">
					<title>Sheet.596</title>
					<v:userDefs>
						<v:ud v:nameU="SOLSH" v:prompt="" v:val="VT4({13D0FF3B-CF5B-4a46-98AB-14030248EAEF})"/>
						<v:ud v:nameU="DWGEntityType" v:prompt="" v:val="VT4(SPLINE)"/>
					</v:userDefs>
					<path d="M23.94 612 C19.83 609.62 15.73 607.24 11.63 604.86 C7.75 602.61 3.88 600.36 0 598.11 L23.94 612 Z"
							class="st1"/>
					<path d="M23.94 612 C19.83 609.62 15.73 607.24 11.63 604.86 C7.75 602.61 3.88 600.36 0 598.11" class="st6"/>
				</g>
				<g id="shape597-66" v:mID="597" v:groupContext="shape" v:layerMember="1" transform="translate(267.78,-96.6856)">
					<title>Sheet.597</title>
					<v:userDefs>
						<v:ud v:nameU="SOLSH" v:prompt="" v:val="VT4({13D0FF3B-CF5B-4a46-98AB-14030248EAEF})"/>
						<v:ud v:nameU="DWGEntityType" v:prompt="" v:val="VT4(SPLINE)"/>
					</v:userDefs>
					<path d="M23.94 612 C19.83 609.62 15.73 607.24 11.63 604.86 C7.75 602.61 3.88 600.36 0 598.11 L23.94 612 Z"
							class="st1"/>
					<path d="M23.94 612 C19.83 609.62 15.73 607.24 11.63 604.86 C7.75 602.61 3.88 600.36 0 598.11" class="st6"/>
				</g>
				<g id="shape598-69" v:mID="598" v:groupContext="shape" v:layerMember="1" transform="translate(267.78,-51.474)">
					<title>Sheet.598</title>
					<v:userDefs>
						<v:ud v:nameU="SOLSH" v:prompt="" v:val="VT4({13D0FF3B-CF5B-4a46-98AB-14030248EAEF})"/>
						<v:ud v:nameU="DWGEntityType" v:prompt="" v:val="VT4(SPLINE)"/>
					</v:userDefs>
					<path d="M23.94 612 C19.83 609.62 15.73 607.24 11.63 604.86 C7.75 602.61 3.88 600.36 0 598.11 L23.94 612 Z"
							class="st1"/>
					<path d="M23.94 612 C19.83 609.62 15.73 607.24 11.63 604.86 C7.75 602.61 3.88 600.36 0 598.11" class="st6"/>
				</g>
				<g id="shape599-72" v:mID="599" v:groupContext="shape" v:layerMember="1"
						transform="translate(-29.568,1126.88) rotate(-149.865)">
					<title>Sheet.599</title>
					<v:userDefs>
						<v:ud v:nameU="SOLSH" v:prompt="" v:val="VT4({13D0FF3B-CF5B-4a46-98AB-14030248EAEF})"/>
						<v:ud v:nameU="DWGEntityType" v:prompt="" v:val="VT4(LINE)"/>
					</v:userDefs>
					<path d="M0 612 L11.45 612" class="st6"/>
				</g>
				<g id="shape600-75" v:mID="600" v:groupContext="shape" v:layerMember="1" transform="translate(21.5187,-28.8682)">
					<title>Sheet.600</title>
					<v:userDefs>
						<v:ud v:nameU="SOLSH" v:prompt="" v:val="VT4({13D0FF3B-CF5B-4a46-98AB-14030248EAEF})"/>
						<v:ud v:nameU="DWGEntityType" v:prompt="" v:val="VT4(SPLINE)"/>
					</v:userDefs>
					<path d="M24.6 597.73 C20.5 600.11 16.4 602.49 12.31 604.86 C8.2 607.24 4.1 609.62 0 612 L24.6 597.73 Z"
							class="st1"/>
					<path d="M24.6 597.73 C20.5 600.11 16.4 602.49 12.31 604.86 C8.2 607.24 4.1 609.62 0 612" class="st6"/>
				</g>
				<g id="shape601-78" v:mID="601" v:groupContext="shape" v:layerMember="1" transform="translate(21.5189,-74.0798)">
					<title>Sheet.601</title>
					<v:userDefs>
						<v:ud v:nameU="SOLSH" v:prompt="" v:val="VT4({13D0FF3B-CF5B-4a46-98AB-14030248EAEF})"/>
						<v:ud v:nameU="DWGEntityType" v:prompt="" v:val="VT4(SPLINE)"/>
					</v:userDefs>
					<path d="M24.6 597.73 C20.5 600.11 16.4 602.49 12.31 604.86 C8.2 607.24 4.1 609.62 -0 612 L24.6 597.73 Z"
							class="st1"/>
					<path d="M24.6 597.73 C20.5 600.11 16.4 602.49 12.31 604.86 C8.2 607.24 4.1 609.62 -0 612" class="st6"/>
				</g>
				<g id="shape602-81" v:mID="602" v:groupContext="shape" v:layerMember="1" transform="translate(21.519,-119.291)">
					<title>Sheet.602</title>
					<v:userDefs>
						<v:ud v:nameU="SOLSH" v:prompt="" v:val="VT4({13D0FF3B-CF5B-4a46-98AB-14030248EAEF})"/>
						<v:ud v:nameU="DWGEntityType" v:prompt="" v:val="VT4(SPLINE)"/>
					</v:userDefs>
					<path d="M24.6 597.73 C20.5 600.11 16.4 602.49 12.31 604.86 C8.2 607.24 4.1 609.62 0 612 L24.6 597.73 Z"
							class="st1"/>
					<path d="M24.6 597.73 C20.5 600.11 16.4 602.49 12.31 604.86 C8.2 607.24 4.1 609.62 0 612" class="st6"/>
				</g>
				<g id="shape603-84" v:mID="603" v:groupContext="shape" v:layerMember="1" transform="translate(21.5191,-164.503)">
					<title>Sheet.603</title>
					<v:userDefs>
						<v:ud v:nameU="SOLSH" v:prompt="" v:val="VT4({13D0FF3B-CF5B-4a46-98AB-14030248EAEF})"/>
						<v:ud v:nameU="DWGEntityType" v:prompt="" v:val="VT4(SPLINE)"/>
					</v:userDefs>
					<path d="M24.6 597.73 C20.5 600.11 16.4 602.49 12.31 604.86 C8.2 607.24 4.1 609.62 -0 612 L24.6 597.73 Z"
							class="st1"/>
					<path d="M24.6 597.73 C20.5 600.11 16.4 602.49 12.31 604.86 C8.2 607.24 4.1 609.62 -0 612" class="st6"/>
				</g>
				<g id="shape604-87" v:mID="604" v:groupContext="shape" v:layerMember="1"
						transform="translate(478.204,175.465) rotate(45)">
					<title>Sheet.604</title>
					<v:userDefs>
						<v:ud v:nameU="SOLSH" v:prompt="" v:val="VT4({13D0FF3B-CF5B-4a46-98AB-14030248EAEF})"/>
						<v:ud v:nameU="DWGEntityType" v:prompt="" v:val="VT4(LINE)"/>
					</v:userDefs>
					<path d="M0 612 L5.35 612" class="st6"/>
				</g>
				<g id="shape605-90" v:mID="605" v:groupContext="shape" v:layerMember="1"
						transform="translate(453.738,151) rotate(45)">
					<title>Sheet.605</title>
					<v:userDefs>
						<v:ud v:nameU="SOLSH" v:prompt="" v:val="VT4({13D0FF3B-CF5B-4a46-98AB-14030248EAEF})"/>
						<v:ud v:nameU="DWGEntityType" v:prompt="" v:val="VT4(LINE)"/>
					</v:userDefs>
					<path d="M0 612 L18.97 612" class="st6"/>
				</g>
				<g id="shape606-93" v:mID="606" v:groupContext="shape" v:layerMember="1"
						transform="translate(-168.755,179.251) rotate(-45)">
					<title>Sheet.606</title>
					<v:userDefs>
						<v:ud v:nameU="SOLSH" v:prompt="" v:val="VT4({13D0FF3B-CF5B-4a46-98AB-14030248EAEF})"/>
						<v:ud v:nameU="DWGEntityType" v:prompt="" v:val="VT4(LINE)"/>
					</v:userDefs>
					<path d="M0 612 L19.67 612" class="st6"/>
				</g>
				<g id="shape607-96" v:mID="607" v:groupContext="shape" v:layerMember="1"
						transform="translate(-344.22,456.589) rotate(-90)">
					<title>Sheet.607</title>
					<v:userDefs>
						<v:ud v:nameU="SOLSH" v:prompt="" v:val="VT4({13D0FF3B-CF5B-4a46-98AB-14030248EAEF})"/>
						<v:ud v:nameU="DWGEntityType" v:prompt="" v:val="VT4(LINE)"/>
					</v:userDefs>
					<path d="M0 612 L10.92 612" class="st6"/>
				</g>
				<g id="shape608-99" v:mID="608" v:groupContext="shape" v:layerMember="1"
						transform="translate(-344.22,501.802) rotate(-90)">
					<title>Sheet.608</title>
					<v:userDefs>
						<v:ud v:nameU="SOLSH" v:prompt="" v:val="VT4({13D0FF3B-CF5B-4a46-98AB-14030248EAEF})"/>
						<v:ud v:nameU="DWGEntityType" v:prompt="" v:val="VT4(LINE)"/>
					</v:userDefs>
					<path d="M0 612 L10.93 612" class="st6"/>
				</g>
				<g id="shape609-102" v:mID="609" v:groupContext="shape" v:layerMember="1"
						transform="translate(-344.22,547.015) rotate(-90)">
					<title>Sheet.609</title>
					<v:userDefs>
						<v:ud v:nameU="SOLSH" v:prompt="" v:val="VT4({13D0FF3B-CF5B-4a46-98AB-14030248EAEF})"/>
						<v:ud v:nameU="DWGEntityType" v:prompt="" v:val="VT4(LINE)"/>
					</v:userDefs>
					<path d="M0 612 L10.93 612" class="st6"/>
				</g>
				<g id="shape610-105" v:mID="610" v:groupContext="shape" v:layerMember="1"
						transform="translate(-344.22,592.227) rotate(-90)">
					<title>Sheet.610</title>
					<v:userDefs>
						<v:ud v:nameU="SOLSH" v:prompt="" v:val="VT4({13D0FF3B-CF5B-4a46-98AB-14030248EAEF})"/>
						<v:ud v:nameU="DWGEntityType" v:prompt="" v:val="VT4(LINE)"/>
					</v:userDefs>
					<path d="M0 612 L10.93 612" class="st6"/>
				</g>
				<g id="shape611-108" v:mID="611" v:groupContext="shape" v:layerMember="1"
						transform="translate(657.454,603.527) rotate(90)">
					<title>Sheet.611</title>
					<v:userDefs>
						<v:ud v:nameU="SOLSH" v:prompt="" v:val="VT4({13D0FF3B-CF5B-4a46-98AB-14030248EAEF})"/>
						<v:ud v:nameU="DWGEntityType" v:prompt="" v:val="VT4(LINE)"/>
					</v:userDefs>
					<path d="M0 612 L4.69 612" class="st6"/>
				</g>
				<g id="shape612-111" v:mID="612" v:groupContext="shape" v:layerMember="1"
						transform="translate(657.454,558.316) rotate(90)">
					<title>Sheet.612</title>
					<v:userDefs>
						<v:ud v:nameU="SOLSH" v:prompt="" v:val="VT4({13D0FF3B-CF5B-4a46-98AB-14030248EAEF})"/>
						<v:ud v:nameU="DWGEntityType" v:prompt="" v:val="VT4(LINE)"/>
					</v:userDefs>
					<path d="M0 612 L10.93 612" class="st6"/>
				</g>
				<g id="shape613-114" v:mID="613" v:groupContext="shape" v:layerMember="1"
						transform="translate(657.454,513.107) rotate(90)">
					<title>Sheet.613</title>
					<v:userDefs>
						<v:ud v:nameU="SOLSH" v:prompt="" v:val="VT4({13D0FF3B-CF5B-4a46-98AB-14030248EAEF})"/>
						<v:ud v:nameU="DWGEntityType" v:prompt="" v:val="VT4(LINE)"/>
					</v:userDefs>
					<path d="M0 612 L10.93 612" class="st6"/>
				</g>
				<g id="shape614-117" v:mID="614" v:groupContext="shape" v:layerMember="1"
						transform="translate(657.454,467.897) rotate(90)">
					<title>Sheet.614</title>
					<v:userDefs>
						<v:ud v:nameU="SOLSH" v:prompt="" v:val="VT4({13D0FF3B-CF5B-4a46-98AB-14030248EAEF})"/>
						<v:ud v:nameU="DWGEntityType" v:prompt="" v:val="VT4(LINE)"/>
					</v:userDefs>
					<path d="M0 612 L10.92 612" class="st6"/>
				</g>
				<g id="shape615-120" v:mID="615" v:groupContext="shape" v:layerMember="1"
						transform="translate(657.36,406.353) rotate(89.7947)">
					<title>Sheet.615</title>
					<v:userDefs>
						<v:ud v:nameU="SOLSH" v:prompt="" v:val="VT4({13D0FF3B-CF5B-4a46-98AB-14030248EAEF})"/>
						<v:ud v:nameU="DWGEntityType" v:prompt="" v:val="VT4(LINE)"/>
					</v:userDefs>
					<path d="M0 612 L25.06 612" class="st6"/>
				</g>
				<g id="shape616-123" v:mID="616" v:groupContext="shape" v:layerMember="1"
						transform="translate(-344.223,426.86) rotate(-89.7583)">
					<title>Sheet.616</title>
					<v:userDefs>
						<v:ud v:nameU="SOLSH" v:prompt="" v:val="VT4({13D0FF3B-CF5B-4a46-98AB-14030248EAEF})"/>
						<v:ud v:nameU="DWGEntityType" v:prompt="" v:val="VT4(LINE)"/>
					</v:userDefs>
					<path d="M0 612 L20.9 612" class="st6"/>
				</g>
				<g id="shape617-126" v:mID="617" v:groupContext="shape" v:layerMember="1" transform="translate(46.1184,-168.435)">
					<title>Sheet.617</title>
					<v:userDefs>
						<v:ud v:nameU="SOLSH" v:prompt="" v:val="VT4({13D0FF3B-CF5B-4a46-98AB-14030248EAEF})"/>
						<v:ud v:nameU="DWGEntityType" v:prompt="" v:val="VT4(SPLINE)"/>
					</v:userDefs>
					<path d="M0 612 C5.05 612 10.74 612 17.1 612 C23.46 612 30.38 612 37.69 612 C45.01 612 52.82 612 60.94 612 C69.07
								 612 77.37 612 85.85 612 L0 612 Z" class="st7"/>
					<path d="M0 612 C5.05 612 10.74 612 17.1 612 C23.46 612 30.38 612 37.69 612 C45.01 612 52.82 612 60.94 612 C69.07
								 612 77.37 612 85.85 612" class="st6"/>
				</g>
				<g id="shape618-129" v:mID="618" v:groupContext="shape" v:layerMember="1" transform="translate(66.8532,-182.554)">
					<title>Sheet.618</title>
					<v:userDefs>
						<v:ud v:nameU="SOLSH" v:prompt="" v:val="VT4({13D0FF3B-CF5B-4a46-98AB-14030248EAEF})"/>
						<v:ud v:nameU="DWGEntityType" v:prompt="" v:val="VT4(LWPOLYLINE)"/>
					</v:userDefs>
					<path d="M0 611.99 L4.6 611.99 L9.58 611.99 L14.93 611.99 L20.61 611.99 L26.61 611.99 L32.9 611.99 L39.44 611.99
								 L46.22 611.99 L53.19 611.99 L60.32 611.99 L67.59 611.99 L74.97 611.99 L82.41 611.99 L89.88 611.99
								 L97.36 611.99 L104.8 611.99 L112.17 611.99 L119.44 611.99 L126.58 611.99 L133.56 611.99 L140.33
								 611.99 L146.88 611.99 L153.17 611.99 L159.18 611.99 L164.87 611.99 L170.22 611.99 L175.21 611.99
								 L179.81 611.99 L184 611.99 L187.77 612 L191.1 612 L193.97 612 L196.37 612 L198.28 612 L199.71 612
								 L200.64 612 L201.06 612 L201.09 612 L201.09 612 L0 611.99 Z" class="st7"/>
					<path d="M0 611.99 L4.6 611.99 L9.58 611.99 L14.93 611.99 L20.61 611.99 L26.61 611.99 L32.9 611.99 L39.44 611.99
								 L46.22 611.99 L53.19 611.99 L60.32 611.99 L67.59 611.99 L74.97 611.99 L82.41 611.99 L89.88 611.99
								 L97.36 611.99 L104.8 611.99 L112.17 611.99 L119.44 611.99 L126.58 611.99 L133.56 611.99 L140.33
								 611.99 L146.88 611.99 L153.17 611.99 L159.18 611.99 L164.87 611.99 L170.22 611.99 L175.21 611.99
								 L179.81 611.99 L184 611.99 L187.77 612 L191.1 612 L193.97 612 L196.37 612 L198.28 612 L199.71 612
								 L200.64 612 L201.06 612 L201.09 612 L201.09 612" class="st8"/>
				</g>
				<g id="shape619-132" v:mID="619" v:groupContext="shape" v:layerMember="1" transform="translate(60.7939,-28.2572)">
					<title>Sheet.619</title>
					<v:userDefs>
						<v:ud v:nameU="SOLSH" v:prompt="" v:val="VT4({13D0FF3B-CF5B-4a46-98AB-14030248EAEF})"/>
						<v:ud v:nameU="DWGEntityType" v:prompt="" v:val="VT4(SPLINE)"/>
					</v:userDefs>
					<path d="M0 612 C3.83 611.73 7.66 611.47 11.73 611.19 C15.87 610.92 20.26 610.63 24.81 610.34 C29.39 610.06 34.12
								 609.76 39 609.47 C43.88 609.18 48.91 608.89 54.03 608.59 C59.13 608.3 64.32 608.01 69.58 607.73
								 C74.05 607.48 78.57 607.24 83.11 607.01 C87.58 606.77 92.08 606.55 96.57 606.32 C101.07 606.09 105.57
								 605.86 110.05 605.62 C114.59 605.39 119.11 605.14 123.58 604.9 C128.09 604.65 132.56 604.4 136.95
								 604.15 C141.28 603.91 145.55 603.66 149.72 603.41 C153.89 603.16 157.97 602.92 161.94 602.67 C165.88
								 602.43 169.72 602.18 173.42 601.94 C177.09 601.71 180.63 601.47 184.02 601.24 C187.43 601.01 190.69
								 600.78 193.79 600.55 C196.91 600.32 199.87 600.09 202.65 599.86 C205.47 599.62 208.11 599.37 210.55
								 599.13 C213.01 598.88 215.28 598.63 217.33 598.38 C219.38 598.13 221.23 597.87 222.85 597.62 C224.45
								 597.37 225.83 597.13 226.98 596.88 C228.12 596.64 229.04 596.4 229.77 596.16 C230.49 595.92 231.03
								 595.69 231.22 595.46 C231.33 595.32 231.32 595.19 231.31 595.05 L0 612 Z" class="st1"/>
					<path d="M0 612 C3.83 611.73 7.66 611.47 11.73 611.19 C15.87 610.92 20.26 610.63 24.81 610.34 C29.39 610.06 34.12
								 609.76 39 609.47 C43.88 609.18 48.91 608.89 54.03 608.59 C59.13 608.3 64.32 608.01 69.58 607.73
								 C74.05 607.48 78.57 607.24 83.11 607.01 C87.58 606.77 92.08 606.55 96.57 606.32 C101.07 606.09 105.57
								 605.86 110.05 605.62 C114.59 605.39 119.11 605.14 123.58 604.9 C128.09 604.65 132.56 604.4 136.95
								 604.15 C141.28 603.91 145.55 603.66 149.72 603.41 C153.89 603.16 157.97 602.92 161.94 602.67 C165.88
								 602.43 169.72 602.18 173.42 601.94 C177.09 601.71 180.63 601.47 184.02 601.24 C187.43 601.01 190.69
								 600.78 193.79 600.55 C196.91 600.32 199.87 600.09 202.65 599.86 C205.47 599.62 208.11 599.37 210.55
								 599.13 C213.01 598.88 215.28 598.63 217.33 598.38 C219.38 598.13 221.23 597.87 222.85 597.62 C224.45
								 597.37 225.83 597.13 226.98 596.88 C228.12 596.64 229.04 596.4 229.77 596.16 C230.49 595.92 231.03
								 595.69 231.22 595.46 C231.33 595.32 231.32 595.19 231.31 595.05" class="st6"/>
				</g>
				<g id="shape620-135" v:mID="620" v:groupContext="shape" v:layerMember="1" transform="translate(20.94,-67.1944)">
					<title>Sheet.620</title>
					<v:userDefs>
						<v:ud v:nameU="SOLSH" v:prompt="" v:val="VT4({13D0FF3B-CF5B-4a46-98AB-14030248EAEF})"/>
						<v:ud v:nameU="DWGEntityType" v:prompt="" v:val="VT4(SPLINE)"/>
					</v:userDefs>
					<path d="M0.58 612 C0.58 612 0.57 612 0.57 612 C-0.05 611.76 -0.06 611.54 0.05 611.31 C0.16 611.08 0.39 610.85
								 0.87 610.61 C1.35 610.38 2.08 610.14 3.02 609.9 C3.97 609.66 5.13 609.41 6.51 609.17 C7.9 608.92
								 9.51 608.67 11.32 608.42 C13.14 608.18 15.16 607.93 17.38 607.68 C19.43 607.46 21.63 607.23 24 607.01
								 C26.35 606.79 28.85 606.57 31.49 606.36 C34.14 606.15 36.93 605.94 39.85 605.73 C43.56 605.46 47.48
								 605.19 51.58 604.92 C55.76 604.64 60.13 604.36 64.66 604.07 C69.23 603.78 73.98 603.49 78.85 603.2
								 C83.74 602.91 88.76 602.61 93.88 602.32 C98.98 602.03 104.17 601.74 109.43 601.45 C113.9 601.21
								 118.42 600.97 122.96 600.73 C127.44 600.5 131.93 600.27 136.42 600.04 C140.93 599.81 145.43 599.58
								 149.9 599.35 C154.44 599.11 158.96 598.87 163.43 598.62 C167.95 598.38 172.41 598.13 176.8 597.88
								 C181.14 597.63 185.4 597.38 189.58 597.14 C193.75 596.89 197.82 596.64 201.79 596.4 C205.74 596.15
								 209.57 595.91 213.28 595.67 C216.94 595.43 220.48 595.2 223.88 594.97 C227.28 594.73 230.54 594.51
								 233.65 594.28 C236.77 594.05 239.73 593.82 242.51 593.58 C245.33 593.34 247.96 593.1 250.4 592.85
								 C252.87 592.6 255.13 592.35 257.18 592.1 C259.24 591.85 261.08 591.6 262.71 591.35 C264.3 591.1
								 265.68 590.85 266.83 590.61 C267.98 590.37 268.89 590.12 269.62 589.89 C270.35 589.65 270.89 589.42
								 271.07 589.19 C271.19 589.05 271.17 588.91 271.16 588.78 L0.58 612 Z" class="st1"/>
					<path d="M0.58 612 C0.58 612 0.57 612 0.57 612 C-0.05 611.76 -0.06 611.54 0.05 611.31 C0.16 611.08 0.39 610.85
								 0.87 610.61 C1.35 610.38 2.08 610.14 3.02 609.9 C3.97 609.66 5.13 609.41 6.51 609.17 C7.9 608.92
								 9.51 608.67 11.32 608.42 C13.14 608.18 15.16 607.93 17.38 607.68 C19.43 607.46 21.63 607.23 24 607.01
								 C26.35 606.79 28.85 606.57 31.49 606.36 C34.14 606.15 36.93 605.94 39.85 605.73 C43.56 605.46 47.48
								 605.19 51.58 604.92 C55.76 604.64 60.13 604.36 64.66 604.07 C69.23 603.78 73.98 603.49 78.85 603.2
								 C83.74 602.91 88.76 602.61 93.88 602.32 C98.98 602.03 104.17 601.74 109.43 601.45 C113.9 601.21
								 118.42 600.97 122.96 600.73 C127.44 600.5 131.93 600.27 136.42 600.04 C140.93 599.81 145.43 599.58
								 149.9 599.35 C154.44 599.11 158.96 598.87 163.43 598.62 C167.95 598.38 172.41 598.13 176.8 597.88
								 C181.14 597.63 185.4 597.38 189.58 597.14 C193.75 596.89 197.82 596.64 201.79 596.4 C205.74 596.15
								 209.57 595.91 213.28 595.67 C216.94 595.43 220.48 595.2 223.88 594.97 C227.28 594.73 230.54 594.51
								 233.65 594.28 C236.77 594.05 239.73 593.82 242.51 593.58 C245.33 593.34 247.96 593.1 250.4 592.85
								 C252.87 592.6 255.13 592.35 257.18 592.1 C259.24 591.85 261.08 591.6 262.71 591.35 C264.3 591.1
								 265.68 590.85 266.83 590.61 C267.98 590.37 268.89 590.12 269.62 589.89 C270.35 589.65 270.89 589.42
								 271.07 589.19 C271.19 589.05 271.17 588.91 271.16 588.78" class="st6"/>
				</g>
				<g id="shape621-138" v:mID="621" v:groupContext="shape" v:layerMember="1" transform="translate(20.94,-112.406)">
					<title>Sheet.621</title>
					<v:userDefs>
						<v:ud v:nameU="SOLSH" v:prompt="" v:val="VT4({13D0FF3B-CF5B-4a46-98AB-14030248EAEF})"/>
						<v:ud v:nameU="DWGEntityType" v:prompt="" v:val="VT4(SPLINE)"/>
					</v:userDefs>
					<path d="M0.58 612 C0.58 612 0.57 612 0.57 612 C-0.05 611.76 -0.06 611.54 0.05 611.31 C0.16 611.08 0.39 610.85
								 0.87 610.61 C1.35 610.38 2.08 610.14 3.02 609.9 C3.97 609.66 5.13 609.41 6.51 609.17 C7.9 608.92
								 9.51 608.67 11.32 608.42 C13.14 608.18 15.16 607.93 17.38 607.68 C19.43 607.46 21.63 607.23 24 607.01
								 C26.35 606.79 28.85 606.57 31.49 606.36 C34.14 606.15 36.93 605.94 39.85 605.73 C43.56 605.46 47.48
								 605.19 51.58 604.92 C55.76 604.64 60.13 604.36 64.66 604.07 C69.23 603.78 73.98 603.49 78.85 603.2
								 C83.74 602.91 88.76 602.61 93.88 602.32 C98.98 602.03 104.17 601.74 109.43 601.45 C113.9 601.21
								 118.42 600.97 122.96 600.73 C127.44 600.5 131.93 600.27 136.42 600.04 C140.93 599.81 145.43 599.58
								 149.9 599.35 C154.44 599.11 158.96 598.87 163.43 598.62 C167.95 598.38 172.41 598.13 176.8 597.88
								 C181.14 597.63 185.4 597.38 189.58 597.14 C193.75 596.89 197.82 596.64 201.79 596.4 C205.74 596.15
								 209.57 595.91 213.28 595.67 C216.94 595.43 220.48 595.2 223.88 594.97 C227.28 594.73 230.54 594.51
								 233.65 594.28 C236.77 594.05 239.73 593.82 242.51 593.58 C245.33 593.34 247.96 593.1 250.4 592.85
								 C252.87 592.6 255.13 592.35 257.18 592.1 C259.24 591.85 261.08 591.6 262.71 591.35 C264.3 591.1
								 265.68 590.85 266.83 590.61 C267.98 590.37 268.89 590.12 269.62 589.89 C270.35 589.65 270.89 589.42
								 271.07 589.19 C271.19 589.05 271.17 588.91 271.16 588.78 L0.58 612 Z" class="st1"/>
					<path d="M0.58 612 C0.58 612 0.57 612 0.57 612 C-0.05 611.76 -0.06 611.54 0.05 611.31 C0.16 611.08 0.39 610.85
								 0.87 610.61 C1.35 610.38 2.08 610.14 3.02 609.9 C3.97 609.66 5.13 609.41 6.51 609.17 C7.9 608.92
								 9.51 608.67 11.32 608.42 C13.14 608.18 15.16 607.93 17.38 607.68 C19.43 607.46 21.63 607.23 24 607.01
								 C26.35 606.79 28.85 606.57 31.49 606.36 C34.14 606.15 36.93 605.94 39.85 605.73 C43.56 605.46 47.48
								 605.19 51.58 604.92 C55.76 604.64 60.13 604.36 64.66 604.07 C69.23 603.78 73.98 603.49 78.85 603.2
								 C83.74 602.91 88.76 602.61 93.88 602.32 C98.98 602.03 104.17 601.74 109.43 601.45 C113.9 601.21
								 118.42 600.97 122.96 600.73 C127.44 600.5 131.93 600.27 136.42 600.04 C140.93 599.81 145.43 599.58
								 149.9 599.35 C154.44 599.11 158.96 598.87 163.43 598.62 C167.95 598.38 172.41 598.13 176.8 597.88
								 C181.14 597.63 185.4 597.38 189.58 597.14 C193.75 596.89 197.82 596.64 201.79 596.4 C205.74 596.15
								 209.57 595.91 213.28 595.67 C216.94 595.43 220.48 595.2 223.88 594.97 C227.28 594.73 230.54 594.51
								 233.65 594.28 C236.77 594.05 239.73 593.82 242.51 593.58 C245.33 593.34 247.96 593.1 250.4 592.85
								 C252.87 592.6 255.13 592.35 257.18 592.1 C259.24 591.85 261.08 591.6 262.71 591.35 C264.3 591.1
								 265.68 590.85 266.83 590.61 C267.98 590.37 268.89 590.12 269.62 589.89 C270.35 589.65 270.89 589.42
								 271.07 589.19 C271.19 589.05 271.17 588.91 271.16 588.78" class="st6"/>
				</g>
				<g id="shape622-141" v:mID="622" v:groupContext="shape" v:layerMember="1" transform="translate(45.655,-8.47445)">
					<title>Sheet.622</title>
					<v:userDefs>
						<v:ud v:nameU="SOLSH" v:prompt="" v:val="VT4({13D0FF3B-CF5B-4a46-98AB-14030248EAEF})"/>
						<v:ud v:nameU="DWGEntityType" v:prompt="" v:val="VT4(SPLINE)"/>
					</v:userDefs>
					<path d="M0 612 C-0 611.81 -0.01 611.62 0.18 611.43 C0.47 611.13 1.24 610.82 2.27 610.51 C3.3 610.2 4.6 609.88
								 6.21 609.56 C7.83 609.24 9.75 608.91 11.95 608.59 C14.14 608.27 16.61 607.96 19.34 607.64 C22.03
								 607.33 24.97 607.03 28.14 606.73 C31.27 606.44 34.61 606.15 38.16 605.86 C41.75 605.56 45.55 605.25
								 49.52 604.94 C53.54 604.63 57.73 604.31 62.06 603.99 C66.41 603.67 70.9 603.35 75.48 603.03 C80.05
								 602.71 84.72 602.39 89.45 602.07 C94.12 601.76 98.85 601.46 103.6 601.16 C108.27 600.86 112.97 600.58
								 117.65 600.29 C122.39 599.99 127.12 599.68 131.79 599.37 C136.52 599.06 141.2 598.74 145.77 598.42
								 C150.37 598.1 154.87 597.78 159.23 597.46 C163.58 597.14 167.78 596.82 171.82 596.5 C175.81 596.19
								 179.63 595.88 183.25 595.59 C186.81 595.29 190.18 595 193.33 594.71 C196.51 594.41 199.48 594.11
								 202.19 593.8 C204.94 593.49 207.44 593.17 209.65 592.85 C211.87 592.53 213.81 592.21 215.48 591.89
								 C217.14 591.57 218.54 591.25 219.51 590.94 C220.32 590.67 220.83 590.41 221.35 590.16 L0 612 Z"
							class="st1"/>
					<path d="M0 612 C-0 611.81 -0.01 611.62 0.18 611.43 C0.47 611.13 1.24 610.82 2.27 610.51 C3.3 610.2 4.6 609.88
								 6.21 609.56 C7.83 609.24 9.75 608.91 11.95 608.59 C14.14 608.27 16.61 607.96 19.34 607.64 C22.03
								 607.33 24.97 607.03 28.14 606.73 C31.27 606.44 34.61 606.15 38.16 605.86 C41.75 605.56 45.55 605.25
								 49.52 604.94 C53.54 604.63 57.73 604.31 62.06 603.99 C66.41 603.67 70.9 603.35 75.48 603.03 C80.05
								 602.71 84.72 602.39 89.45 602.07 C94.12 601.76 98.85 601.46 103.6 601.16 C108.27 600.86 112.97 600.58
								 117.65 600.29 C122.39 599.99 127.12 599.68 131.79 599.37 C136.52 599.06 141.2 598.74 145.77 598.42
								 C150.37 598.1 154.87 597.78 159.23 597.46 C163.58 597.14 167.78 596.82 171.82 596.5 C175.81 596.19
								 179.63 595.88 183.25 595.59 C186.81 595.29 190.18 595 193.33 594.71 C196.51 594.41 199.48 594.11
								 202.19 593.8 C204.94 593.49 207.44 593.17 209.65 592.85 C211.87 592.53 213.81 592.21 215.48 591.89
								 C217.14 591.57 218.54 591.25 219.51 590.94 C220.32 590.67 220.83 590.41 221.35 590.16" class="st6"/>
				</g>
				<g id="shape623-144" v:mID="623" v:groupContext="shape" v:layerMember="1" transform="translate(45.6545,-53.6847)">
					<title>Sheet.623</title>
					<v:userDefs>
						<v:ud v:nameU="SOLSH" v:prompt="" v:val="VT4({13D0FF3B-CF5B-4a46-98AB-14030248EAEF})"/>
						<v:ud v:nameU="DWGEntityType" v:prompt="" v:val="VT4(SPLINE)"/>
					</v:userDefs>
					<path d="M0 612 C-0 611.81 -0.01 611.62 0.18 611.43 C0.47 611.13 1.24 610.82 2.27 610.51 C3.31 610.19 4.6 609.88
								 6.21 609.56 C7.83 609.23 9.75 608.91 11.95 608.59 C14.14 608.27 16.61 607.96 19.34 607.64 C22.03
								 607.33 24.97 607.03 28.14 606.73 C31.27 606.44 34.61 606.15 38.16 605.86 C41.75 605.56 45.55 605.25
								 49.52 604.94 C53.54 604.63 57.73 604.31 62.06 603.99 C66.41 603.67 70.9 603.34 75.49 603.02 C80.05
								 602.7 84.72 602.39 89.45 602.07 C94.12 601.76 98.85 601.46 103.6 601.16 C108.27 600.86 112.97 600.58
								 117.65 600.28 C122.39 599.99 127.12 599.68 131.79 599.37 C136.52 599.06 141.2 598.74 145.77 598.42
								 C150.37 598.1 154.87 597.78 159.23 597.46 C163.58 597.14 167.78 596.82 171.82 596.5 C175.81 596.19
								 179.63 595.88 183.25 595.58 C186.81 595.29 190.18 595 193.33 594.71 C196.52 594.41 199.48 594.11
								 202.19 593.8 C204.94 593.49 207.44 593.17 209.65 592.85 C211.87 592.53 213.81 592.21 215.48 591.89
								 C217.14 591.57 218.54 591.25 219.51 590.93 C220.32 590.67 220.84 590.41 221.35 590.16 L0 612 Z"
							class="st1"/>
					<path d="M0 612 C-0 611.81 -0.01 611.62 0.18 611.43 C0.47 611.13 1.24 610.82 2.27 610.51 C3.31 610.19 4.6 609.88
								 6.21 609.56 C7.83 609.23 9.75 608.91 11.95 608.59 C14.14 608.27 16.61 607.96 19.34 607.64 C22.03
								 607.33 24.97 607.03 28.14 606.73 C31.27 606.44 34.61 606.15 38.16 605.86 C41.75 605.56 45.55 605.25
								 49.52 604.94 C53.54 604.63 57.73 604.31 62.06 603.99 C66.41 603.67 70.9 603.34 75.49 603.02 C80.05
								 602.7 84.72 602.39 89.45 602.07 C94.12 601.76 98.85 601.46 103.6 601.16 C108.27 600.86 112.97 600.58
								 117.65 600.28 C122.39 599.99 127.12 599.68 131.79 599.37 C136.52 599.06 141.2 598.74 145.77 598.42
								 C150.37 598.1 154.87 597.78 159.23 597.46 C163.58 597.14 167.78 596.82 171.82 596.5 C175.81 596.19
								 179.63 595.88 183.25 595.58 C186.81 595.29 190.18 595 193.33 594.71 C196.52 594.41 199.48 594.11
								 202.19 593.8 C204.94 593.49 207.44 593.17 209.65 592.85 C211.87 592.53 213.81 592.21 215.48 591.89
								 C217.14 591.57 218.54 591.25 219.51 590.93 C220.32 590.67 220.84 590.41 221.35 590.16" class="st6"/>
				</g>
				<g id="shape624-147" v:mID="624" v:groupContext="shape" v:layerMember="1" transform="translate(45.6538,-98.8942)">
					<title>Sheet.624</title>
					<v:userDefs>
						<v:ud v:nameU="SOLSH" v:prompt="" v:val="VT4({13D0FF3B-CF5B-4a46-98AB-14030248EAEF})"/>
						<v:ud v:nameU="DWGEntityType" v:prompt="" v:val="VT4(SPLINE)"/>
					</v:userDefs>
					<path d="M0 612 C-0 611.81 -0.01 611.62 0.18 611.43 C0.47 611.13 1.24 610.82 2.27 610.51 C3.31 610.19 4.61 609.87
								 6.21 609.55 C7.83 609.23 9.75 608.91 11.95 608.59 C14.15 608.27 16.61 607.95 19.34 607.64 C22.03
								 607.33 24.97 607.03 28.14 606.73 C31.27 606.44 34.62 606.15 38.16 605.86 C41.76 605.56 45.55 605.25
								 49.52 604.94 C53.54 604.62 57.73 604.31 62.06 603.99 C66.41 603.67 70.9 603.34 75.49 603.02 C80.05
								 602.7 84.72 602.38 89.45 602.07 C94.12 601.76 98.85 601.45 103.6 601.16 C108.27 600.86 112.97 600.58
								 117.65 600.28 C122.39 599.98 127.12 599.68 131.79 599.37 C136.52 599.06 141.2 598.74 145.77 598.42
								 C150.37 598.1 154.87 597.78 159.23 597.45 C163.58 597.14 167.79 596.82 171.82 596.5 C175.81 596.19
								 179.63 595.88 183.25 595.58 C186.81 595.29 190.18 595 193.33 594.71 C196.52 594.41 199.48 594.11
								 202.19 593.8 C204.94 593.49 207.44 593.17 209.65 592.85 C211.88 592.53 213.81 592.21 215.48 591.89
								 C217.14 591.57 218.54 591.25 219.51 590.93 C220.32 590.67 220.84 590.41 221.35 590.15 L0 612 Z"
							class="st1"/>
					<path d="M0 612 C-0 611.81 -0.01 611.62 0.18 611.43 C0.47 611.13 1.24 610.82 2.27 610.51 C3.31 610.19 4.61 609.87
								 6.21 609.55 C7.83 609.23 9.75 608.91 11.95 608.59 C14.15 608.27 16.61 607.95 19.34 607.64 C22.03
								 607.33 24.97 607.03 28.14 606.73 C31.27 606.44 34.62 606.15 38.16 605.86 C41.76 605.56 45.55 605.25
								 49.52 604.94 C53.54 604.62 57.73 604.31 62.06 603.99 C66.41 603.67 70.9 603.34 75.49 603.02 C80.05
								 602.7 84.72 602.38 89.45 602.07 C94.12 601.76 98.85 601.45 103.6 601.16 C108.27 600.86 112.97 600.58
								 117.65 600.28 C122.39 599.98 127.12 599.68 131.79 599.37 C136.52 599.06 141.2 598.74 145.77 598.42
								 C150.37 598.1 154.87 597.78 159.23 597.45 C163.58 597.14 167.79 596.82 171.82 596.5 C175.81 596.19
								 179.63 595.88 183.25 595.58 C186.81 595.29 190.18 595 193.33 594.71 C196.52 594.41 199.48 594.11
								 202.19 593.8 C204.94 593.49 207.44 593.17 209.65 592.85 C211.88 592.53 213.81 592.21 215.48 591.89
								 C217.14 591.57 218.54 591.25 219.51 590.93 C220.32 590.67 220.84 590.41 221.35 590.15" class="st6"/>
				</g>
				<g id="shape625-150" v:mID="625" v:groupContext="shape" v:layerMember="1" transform="translate(45.6533,-144.104)">
					<title>Sheet.625</title>
					<v:userDefs>
						<v:ud v:nameU="SOLSH" v:prompt="" v:val="VT4({13D0FF3B-CF5B-4a46-98AB-14030248EAEF})"/>
						<v:ud v:nameU="DWGEntityType" v:prompt="" v:val="VT4(SPLINE)"/>
					</v:userDefs>
					<path d="M0 612 C-0 611.81 -0.01 611.62 0.18 611.43 C0.47 611.13 1.24 610.82 2.27 610.51 C3.31 610.19 4.61 609.87
								 6.21 609.55 C7.83 609.23 9.75 608.91 11.95 608.59 C14.15 608.27 16.61 607.95 19.34 607.64 C22.03
								 607.33 24.97 607.03 28.14 606.73 C31.27 606.43 34.62 606.15 38.16 605.85 C41.76 605.56 45.55 605.25
								 49.52 604.94 C53.54 604.62 57.73 604.3 62.06 603.98 C66.41 603.66 70.9 603.34 75.49 603.02 C80.05
								 602.7 84.72 602.38 89.45 602.07 C94.12 601.76 98.85 601.45 103.6 601.15 C108.27 600.86 112.97 600.57
								 117.65 600.28 C122.39 599.98 127.12 599.68 131.79 599.37 C136.52 599.05 141.2 598.74 145.77 598.42
								 C150.37 598.1 154.87 597.77 159.23 597.45 C163.58 597.13 167.79 596.82 171.82 596.5 C175.81 596.19
								 179.63 595.88 183.25 595.58 C186.81 595.29 190.18 595 193.33 594.71 C196.52 594.41 199.48 594.11
								 202.19 593.8 C204.94 593.49 207.44 593.17 209.65 592.85 C211.88 592.53 213.81 592.21 215.48 591.89
								 C217.14 591.57 218.54 591.25 219.51 590.93 C220.32 590.67 220.84 590.41 221.35 590.15 L0 612 Z"
							class="st1"/>
					<path d="M0 612 C-0 611.81 -0.01 611.62 0.18 611.43 C0.47 611.13 1.24 610.82 2.27 610.51 C3.31 610.19 4.61 609.87
								 6.21 609.55 C7.83 609.23 9.75 608.91 11.95 608.59 C14.15 608.27 16.61 607.95 19.34 607.64 C22.03
								 607.33 24.97 607.03 28.14 606.73 C31.27 606.43 34.62 606.15 38.16 605.85 C41.76 605.56 45.55 605.25
								 49.52 604.94 C53.54 604.62 57.73 604.3 62.06 603.98 C66.41 603.66 70.9 603.34 75.49 603.02 C80.05
								 602.7 84.72 602.38 89.45 602.07 C94.12 601.76 98.85 601.45 103.6 601.15 C108.27 600.86 112.97 600.57
								 117.65 600.28 C122.39 599.98 127.12 599.68 131.79 599.37 C136.52 599.05 141.2 598.74 145.77 598.42
								 C150.37 598.1 154.87 597.77 159.23 597.45 C163.58 597.13 167.79 596.82 171.82 596.5 C175.81 596.19
								 179.63 595.88 183.25 595.58 C186.81 595.29 190.18 595 193.33 594.71 C196.52 594.41 199.48 594.11
								 202.19 593.8 C204.94 593.49 207.44 593.17 209.65 592.85 C211.88 592.53 213.81 592.21 215.48 591.89
								 C217.14 591.57 218.54 591.25 219.51 590.93 C220.32 590.67 220.84 590.41 221.35 590.15" class="st6"/>
				</g>
				<g id="shape626-153" v:mID="626" v:groupContext="shape" v:layerMember="1" transform="translate(33.2702,-13.2051)">
					<title>Sheet.626</title>
					<v:userDefs>
						<v:ud v:nameU="SOLSH" v:prompt="" v:val="VT4({13D0FF3B-CF5B-4a46-98AB-14030248EAEF})"/>
						<v:ud v:nameU="DWGEntityType" v:prompt="" v:val="VT4(SPLINE)"/>
					</v:userDefs>
					<path d="M3.47 612 C3.13 611.81 2.78 611.62 2.48 611.44 C1.74 610.99 1.27 610.55 0.89 610.12 C0.53 609.69 0.26
								 609.27 0.12 608.84 C-0.03 608.41 -0.04 607.97 0.07 607.54 C0.18 607.09 0.41 606.65 0.77 606.2 C1.13
								 605.75 1.62 605.31 2.24 604.86 C2.99 604.31 3.94 603.77 5.08 603.22 C6.22 602.67 7.55 602.13 9.07
								 601.59 C10.87 600.95 12.92 600.33 15.21 599.71 C17.53 599.08 20.08 598.47 22.91 597.88 C24.4 597.56
								 25.96 597.26 27.52 596.95 L3.47 612 Z" class="st1"/>
					<path d="M3.47 612 C3.13 611.81 2.78 611.62 2.48 611.44 C1.74 610.99 1.27 610.55 0.89 610.12 C0.53 609.69 0.26
								 609.27 0.12 608.84 C-0.03 608.41 -0.04 607.97 0.07 607.54 C0.18 607.09 0.41 606.65 0.77 606.2 C1.13
								 605.75 1.62 605.31 2.24 604.86 C2.99 604.31 3.94 603.77 5.08 603.22 C6.22 602.67 7.55 602.13 9.07
								 601.59 C10.87 600.95 12.92 600.33 15.21 599.71 C17.53 599.08 20.08 598.47 22.91 597.88 C24.4 597.56
								 25.96 597.26 27.52 596.95" class="st6"/>
				</g>
				<g id="shape627-156" v:mID="627" v:groupContext="shape" v:layerMember="1" transform="translate(20.9828,-28.2572)">
					<title>Sheet.627</title>
					<v:userDefs>
						<v:ud v:nameU="SOLSH" v:prompt="" v:val="VT4({13D0FF3B-CF5B-4a46-98AB-14030248EAEF})"/>
						<v:ud v:nameU="DWGEntityType" v:prompt="" v:val="VT4(SPLINE)"/>
					</v:userDefs>
					<path d="M0 612 C0.06 611.85 0.11 611.71 0.28 611.56 C0.45 611.41 0.74 611.26 1.11 611.11 C1.59 610.92 2.23 610.72
								 3.01 610.51 C3.8 610.31 4.74 610.11 5.83 609.91 C6.96 609.7 8.24 609.48 9.68 609.27 C11.11 609.06
								 12.7 608.85 14.44 608.64 C16.13 608.44 17.96 608.23 19.93 608.03 C21.89 607.83 23.99 607.63 26.21
								 607.43 C28.5 607.22 30.92 607.02 33.47 606.82 C36.02 606.62 38.69 606.43 41.48 606.23 C44.19 606.04
								 47.01 605.85 49.93 605.65 C52.84 605.45 55.86 605.25 58.96 605.05 C62.16 604.85 65.45 604.64 68.82
								 604.43 C72.19 604.22 75.64 604.01 79.16 603.8 C82.58 603.6 86.07 603.39 89.61 603.19 C93.15 602.98
								 96.74 602.78 100.38 602.57 C104.12 602.36 107.9 602.16 111.71 601.95 C115.52 601.74 119.36 601.54
								 123.22 601.34 C126.97 601.14 130.73 600.95 134.5 600.76 C138.26 600.57 142.03 600.38 145.78 600.18
								 C149.64 599.98 153.49 599.78 157.32 599.58 C161.14 599.37 164.94 599.16 168.7 598.96 C172.35 598.75
								 175.96 598.55 179.52 598.34 C183.08 598.14 186.59 597.93 190.04 597.73 C193.58 597.52 197.06 597.31
								 200.47 597.1 C203.87 596.89 207.19 596.68 210.42 596.47 C213.56 596.27 216.61 596.07 219.57 595.88
								 C222.53 595.68 225.39 595.48 228.14 595.29 C230.98 595.09 233.69 594.9 236.29 594.7 C238.89 594.5
								 241.36 594.3 243.7 594.1 C245.98 593.9 248.13 593.7 250.14 593.5 C252.16 593.29 254.05 593.09 255.79
								 592.89 C257.59 592.68 259.24 592.47 260.73 592.26 C262.23 592.04 263.57 591.83 264.76 591.62 C265.91
								 591.42 266.91 591.22 267.76 591.01 C268.61 590.81 269.31 590.61 269.85 590.41 C270.41 590.21 270.79
								 590.01 271.03 589.81 C271.27 589.61 271.37 589.41 271.22 589.22 C271.11 589.07 270.88 588.93 270.64
								 588.78 L0 612 Z" class="st1"/>
					<path d="M0 612 C0.06 611.85 0.11 611.71 0.28 611.56 C0.45 611.41 0.74 611.26 1.11 611.11 C1.59 610.92 2.23 610.72
								 3.01 610.51 C3.8 610.31 4.74 610.11 5.83 609.91 C6.96 609.7 8.24 609.48 9.68 609.27 C11.11 609.06
								 12.7 608.85 14.44 608.64 C16.13 608.44 17.96 608.23 19.93 608.03 C21.89 607.83 23.99 607.63 26.21
								 607.43 C28.5 607.22 30.92 607.02 33.47 606.82 C36.02 606.62 38.69 606.43 41.48 606.23 C44.19 606.04
								 47.01 605.85 49.93 605.65 C52.84 605.45 55.86 605.25 58.96 605.05 C62.16 604.85 65.45 604.64 68.82
								 604.43 C72.19 604.22 75.64 604.01 79.16 603.8 C82.58 603.6 86.07 603.39 89.61 603.19 C93.15 602.98
								 96.74 602.78 100.38 602.57 C104.12 602.36 107.9 602.16 111.71 601.95 C115.52 601.74 119.36 601.54
								 123.22 601.34 C126.97 601.14 130.73 600.95 134.5 600.76 C138.26 600.57 142.03 600.38 145.78 600.18
								 C149.64 599.98 153.49 599.78 157.32 599.58 C161.14 599.37 164.94 599.16 168.7 598.96 C172.35 598.75
								 175.96 598.55 179.52 598.34 C183.08 598.14 186.59 597.93 190.04 597.73 C193.58 597.52 197.06 597.31
								 200.47 597.1 C203.87 596.89 207.19 596.68 210.42 596.47 C213.56 596.27 216.61 596.07 219.57 595.88
								 C222.53 595.68 225.39 595.48 228.14 595.29 C230.98 595.09 233.69 594.9 236.29 594.7 C238.89 594.5
								 241.36 594.3 243.7 594.1 C245.98 593.9 248.13 593.7 250.14 593.5 C252.16 593.29 254.05 593.09 255.79
								 592.89 C257.59 592.68 259.24 592.47 260.73 592.26 C262.23 592.04 263.57 591.83 264.76 591.62 C265.91
								 591.42 266.91 591.22 267.76 591.01 C268.61 590.81 269.31 590.61 269.85 590.41 C270.41 590.21 270.79
								 590.01 271.03 589.81 C271.27 589.61 271.37 589.41 271.22 589.22 C271.11 589.07 270.88 588.93 270.64
								 588.78" class="st6"/>
				</g>
				<g id="shape628-159" v:mID="628" v:groupContext="shape" v:layerMember="1" transform="translate(20.989,-73.4628)">
					<title>Sheet.628</title>
					<v:userDefs>
						<v:ud v:nameU="SOLSH" v:prompt="" v:val="VT4({13D0FF3B-CF5B-4a46-98AB-14030248EAEF})"/>
						<v:ud v:nameU="DWGEntityType" v:prompt="" v:val="VT4(SPLINE)"/>
					</v:userDefs>
					<path d="M0.04 612 C0.02 611.98 0.01 611.96 -0 611.94 C-0.1 611.75 0.19 611.56 0.57 611.36 C0.96 611.16 1.46
								 610.95 2.13 610.75 C2.81 610.54 3.67 610.33 4.68 610.13 C5.66 609.92 6.79 609.72 8.07 609.51 C9.35
								 609.31 10.77 609.1 12.34 608.9 C13.96 608.69 15.72 608.48 17.63 608.27 C19.54 608.06 21.6 607.85
								 23.79 607.65 C25.92 607.44 28.18 607.25 30.56 607.05 C32.94 606.85 35.44 606.66 38.05 606.47 C40.74
								 606.27 43.56 606.08 46.47 605.88 C49.39 605.68 52.42 605.47 55.55 605.27 C58.59 605.07 61.72 604.87
								 64.93 604.67 C68.14 604.47 71.43 604.26 74.8 604.06 C78.26 603.85 81.79 603.64 85.39 603.43 C88.99
								 603.21 92.65 603 96.35 602.79 C99.96 602.59 103.6 602.39 107.29 602.19 C110.97 601.98 114.68 601.78
								 118.41 601.59 C122.26 601.38 126.12 601.18 129.99 600.99 C133.86 600.79 137.74 600.59 141.61 600.39
								 C145.37 600.2 149.12 600.01 152.86 599.81 C156.59 599.61 160.3 599.41 163.98 599.21 C167.77 599
								 171.52 598.79 175.23 598.58 C178.93 598.37 182.59 598.16 186.18 597.95 C189.67 597.75 193.11 597.54
								 196.47 597.34 C199.83 597.13 203.13 596.93 206.34 596.73 C209.64 596.52 212.86 596.31 215.98 596.11
								 C219.1 595.9 222.12 595.7 225.04 595.5 C227.87 595.31 230.59 595.12 233.21 594.92 C235.82 594.73
								 238.33 594.54 240.71 594.34 C243.16 594.14 245.48 593.94 247.66 593.73 C249.84 593.53 251.89 593.32
								 253.79 593.11 C255.64 592.9 257.35 592.7 258.92 592.5 C260.49 592.29 261.91 592.09 263.19 591.88
								 C264.51 591.67 265.67 591.46 266.67 591.25 C267.67 591.04 268.5 590.83 269.18 590.63 C269.84 590.43
								 270.35 590.23 270.69 590.03 C271.02 589.84 271.19 589.65 271.26 589.46 C271.33 589.26 271.29 589.06
								 270.86 588.86 C270.8 588.83 270.73 588.8 270.66 588.78 L0.04 612 Z" class="st1"/>
					<path d="M0.04 612 C0.02 611.98 0.01 611.96 -0 611.94 C-0.1 611.75 0.19 611.56 0.57 611.36 C0.96 611.16 1.46
								 610.95 2.13 610.75 C2.81 610.54 3.67 610.33 4.68 610.13 C5.66 609.92 6.79 609.72 8.07 609.51 C9.35
								 609.31 10.77 609.1 12.34 608.9 C13.96 608.69 15.72 608.48 17.63 608.27 C19.54 608.06 21.6 607.85
								 23.79 607.65 C25.92 607.44 28.18 607.25 30.56 607.05 C32.94 606.85 35.44 606.66 38.05 606.47 C40.74
								 606.27 43.56 606.08 46.47 605.88 C49.39 605.68 52.42 605.47 55.55 605.27 C58.59 605.07 61.72 604.87
								 64.93 604.67 C68.14 604.47 71.43 604.26 74.8 604.06 C78.26 603.85 81.79 603.64 85.39 603.43 C88.99
								 603.21 92.65 603 96.35 602.79 C99.96 602.59 103.6 602.39 107.29 602.19 C110.97 601.98 114.68 601.78
								 118.41 601.59 C122.26 601.38 126.12 601.18 129.99 600.99 C133.86 600.79 137.74 600.59 141.61 600.39
								 C145.37 600.2 149.12 600.01 152.86 599.81 C156.59 599.61 160.3 599.41 163.98 599.21 C167.77 599
								 171.52 598.79 175.23 598.58 C178.93 598.37 182.59 598.16 186.18 597.95 C189.67 597.75 193.11 597.54
								 196.47 597.34 C199.83 597.13 203.13 596.93 206.34 596.73 C209.64 596.52 212.86 596.31 215.98 596.11
								 C219.1 595.9 222.12 595.7 225.04 595.5 C227.87 595.31 230.59 595.12 233.21 594.92 C235.82 594.73
								 238.33 594.54 240.71 594.34 C243.16 594.14 245.48 593.94 247.66 593.73 C249.84 593.53 251.89 593.32
								 253.79 593.11 C255.64 592.9 257.35 592.7 258.92 592.5 C260.49 592.29 261.91 592.09 263.19 591.88
								 C264.51 591.67 265.67 591.46 266.67 591.25 C267.67 591.04 268.5 590.83 269.18 590.63 C269.84 590.43
								 270.35 590.23 270.69 590.03 C271.02 589.84 271.19 589.65 271.26 589.46 C271.33 589.26 271.29 589.06
								 270.86 588.86 C270.8 588.83 270.73 588.8 270.66 588.78" class="st6"/>
				</g>
				<g id="shape629-162" v:mID="629" v:groupContext="shape" v:layerMember="1" transform="translate(21.0844,-118.673)">
					<title>Sheet.629</title>
					<v:userDefs>
						<v:ud v:nameU="SOLSH" v:prompt="" v:val="VT4({13D0FF3B-CF5B-4a46-98AB-14030248EAEF})"/>
						<v:ud v:nameU="DWGEntityType" v:prompt="" v:val="VT4(SPLINE)"/>
					</v:userDefs>
					<path d="M0 612 C0.01 611.86 0.02 611.72 0.15 611.58 C0.34 611.38 0.76 611.18 1.32 610.99 C1.87 610.79 2.56 610.59
								 3.41 610.38 C4.28 610.18 5.32 609.97 6.51 609.76 C7.71 609.55 9.06 609.34 10.57 609.13 C12.03 608.92
								 13.64 608.72 15.38 608.51 C17.13 608.31 19.01 608.1 21.03 607.9 C23.11 607.69 25.32 607.49 27.67
								 607.28 C30.02 607.08 32.5 606.88 35.1 606.68 C37.63 606.49 40.28 606.3 43.03 606.11 C45.79 605.91
								 48.65 605.72 51.6 605.52 C54.65 605.32 57.79 605.12 61.03 604.91 C64.27 604.7 67.59 604.49 71 604.28
								 C74.31 604.08 77.69 603.87 81.14 603.67 C84.59 603.46 88.1 603.26 91.66 603.06 C95.32 602.84 99.04
								 602.63 102.8 602.43 C106.56 602.22 110.36 602.01 114.18 601.81 C117.9 601.61 121.64 601.41 125.39
								 601.22 C129.15 601.02 132.91 600.83 136.68 600.64 C140.55 600.44 144.43 600.24 148.28 600.04 C152.14
								 599.84 155.98 599.64 159.79 599.43 C163.49 599.23 167.17 599.03 170.8 598.83 C174.44 598.62 178.03
								 598.42 181.57 598.21 C185.21 598 188.8 597.79 192.32 597.58 C195.83 597.37 199.28 597.16 202.65
								 596.95 C205.92 596.75 209.11 596.55 212.21 596.34 C215.32 596.14 218.34 595.94 221.25 595.75 C224.26
								 595.55 227.15 595.35 229.93 595.15 C232.72 594.96 235.38 594.76 237.92 594.56 C240.39 594.37 242.74
								 594.17 244.96 593.97 C247.19 593.77 249.29 593.57 251.25 593.37 C253.27 593.16 255.15 592.95 256.88
								 592.74 C258.61 592.53 260.19 592.32 261.62 592.11 C263 591.9 264.25 591.7 265.34 591.49 C266.43
								 591.29 267.37 591.09 268.16 590.88 C268.97 590.68 269.62 590.47 270.1 590.27 C270.58 590.07 270.89
								 589.86 271.06 589.67 C271.23 589.47 271.26 589.28 271.04 589.09 C270.91 588.99 270.71 588.88 270.51
								 588.77 L0 612 Z" class="st1"/>
					<path d="M0 612 C0.01 611.86 0.02 611.72 0.15 611.58 C0.34 611.38 0.76 611.18 1.32 610.99 C1.87 610.79 2.56 610.59
								 3.41 610.38 C4.28 610.18 5.32 609.97 6.51 609.76 C7.71 609.55 9.06 609.34 10.57 609.13 C12.03 608.92
								 13.64 608.72 15.38 608.51 C17.13 608.31 19.01 608.1 21.03 607.9 C23.11 607.69 25.32 607.49 27.67
								 607.28 C30.02 607.08 32.5 606.88 35.1 606.68 C37.63 606.49 40.28 606.3 43.03 606.11 C45.79 605.91
								 48.65 605.72 51.6 605.52 C54.65 605.32 57.79 605.12 61.03 604.91 C64.27 604.7 67.59 604.49 71 604.28
								 C74.31 604.08 77.69 603.87 81.14 603.67 C84.59 603.46 88.1 603.26 91.66 603.06 C95.32 602.84 99.04
								 602.63 102.8 602.43 C106.56 602.22 110.36 602.01 114.18 601.81 C117.9 601.61 121.64 601.41 125.39
								 601.22 C129.15 601.02 132.91 600.83 136.68 600.64 C140.55 600.44 144.43 600.24 148.28 600.04 C152.14
								 599.84 155.98 599.64 159.79 599.43 C163.49 599.23 167.17 599.03 170.8 598.83 C174.44 598.62 178.03
								 598.42 181.57 598.21 C185.21 598 188.8 597.79 192.32 597.58 C195.83 597.37 199.28 597.16 202.65
								 596.95 C205.92 596.75 209.11 596.55 212.21 596.34 C215.32 596.14 218.34 595.94 221.25 595.75 C224.26
								 595.55 227.15 595.35 229.93 595.15 C232.72 594.96 235.38 594.76 237.92 594.56 C240.39 594.37 242.74
								 594.17 244.96 593.97 C247.19 593.77 249.29 593.57 251.25 593.37 C253.27 593.16 255.15 592.95 256.88
								 592.74 C258.61 592.53 260.19 592.32 261.62 592.11 C263 591.9 264.25 591.7 265.34 591.49 C266.43
								 591.29 267.37 591.09 268.16 590.88 C268.97 590.68 269.62 590.47 270.1 590.27 C270.58 590.07 270.89
								 589.86 271.06 589.67 C271.23 589.47 271.26 589.28 271.04 589.09 C270.91 588.99 270.71 588.88 270.51
								 588.77" class="st6"/>
				</g>
				<g id="shape630-165" v:mID="630" v:groupContext="shape" v:layerMember="1" transform="translate(21.0278,-163.884)">
					<title>Sheet.630</title>
					<v:userDefs>
						<v:ud v:nameU="SOLSH" v:prompt="" v:val="VT4({13D0FF3B-CF5B-4a46-98AB-14030248EAEF})"/>
						<v:ud v:nameU="DWGEntityType" v:prompt="" v:val="VT4(SPLINE)"/>
					</v:userDefs>
					<path d="M0.06 612 C0.03 611.94 -0 611.88 -0 611.82 C0 611.62 0.34 611.42 0.8 611.22 C1.25 611.02 1.83 610.81
								 2.58 610.61 C3.31 610.41 4.21 610.2 5.25 610 C6.29 609.8 7.48 609.59 8.82 609.39 C10.2 609.18 11.74
								 608.97 13.42 608.76 C15.09 608.54 16.91 608.33 18.9 608.13 C21.08 607.9 23.47 607.67 25.86 607.45
								 L0.06 612 Z" class="st1"/>
					<path d="M0.06 612 C0.03 611.94 -0 611.88 -0 611.82 C0 611.62 0.34 611.42 0.8 611.22 C1.25 611.02 1.83 610.81
								 2.58 610.61 C3.31 610.41 4.21 610.2 5.25 610 C6.29 609.8 7.48 609.59 8.82 609.39 C10.2 609.18 11.74
								 608.97 13.42 608.76 C15.09 608.54 16.91 608.33 18.9 608.13 C21.08 607.9 23.47 607.67 25.86 607.45"
							class="st6"/>
				</g>
				<g id="shape631-168" v:mID="631" v:groupContext="shape" v:layerMember="1" transform="translate(89.5827,-3.78575)">
					<title>Sheet.631</title>
					<v:userDefs>
						<v:ud v:nameU="SOLSH" v:prompt="" v:val="VT4({13D0FF3B-CF5B-4a46-98AB-14030248EAEF})"/>
						<v:ud v:nameU="DWGEntityType" v:prompt="" v:val="VT4(SPLINE)"/>
					</v:userDefs>
					<path d="M0 612 C3.38 611.73 6.77 611.46 10.31 611.19 C13.88 610.92 17.61 610.64 21.42 610.36 C25.29 610.08 29.25
								 609.8 33.28 609.52 C37.3 609.24 41.39 608.96 45.52 608.69 C49.61 608.42 53.75 608.15 57.9 607.88
								 C61.99 607.63 66.1 607.37 70.2 607.12 C74.33 606.86 78.46 606.6 82.56 606.33 C86.71 606.06 90.83
								 605.79 94.9 605.51 C98.99 605.24 103.03 604.96 106.97 604.68 C110.92 604.39 114.79 604.11 118.54
								 603.83 C122.28 603.55 125.9 603.28 129.39 603 C132.84 602.73 136.16 602.46 139.32 602.2 C142.44
								 601.94 145.4 601.69 148.21 601.44 C151.03 601.18 153.69 600.91 156.17 600.65 C158.68 600.38 160.99
								 600.1 163.11 599.83 C165.23 599.55 167.15 599.27 168.85 598.99 C170.55 598.71 172.03 598.42 173.28
								 598.14 C174.51 597.87 175.51 597.59 176.3 597.31 C177.09 597.04 177.68 596.78 177.9 596.51 C178.05
								 596.35 178.05 596.18 178.04 596.01 L0 612 Z" class="st1"/>
					<path d="M0 612 C3.38 611.73 6.77 611.46 10.31 611.19 C13.88 610.92 17.61 610.64 21.42 610.36 C25.29 610.08 29.25
								 609.8 33.28 609.52 C37.3 609.24 41.39 608.96 45.52 608.69 C49.61 608.42 53.75 608.15 57.9 607.88
								 C61.99 607.63 66.1 607.37 70.2 607.12 C74.33 606.86 78.46 606.6 82.56 606.33 C86.71 606.06 90.83
								 605.79 94.9 605.51 C98.99 605.24 103.03 604.96 106.97 604.68 C110.92 604.39 114.79 604.11 118.54
								 603.83 C122.28 603.55 125.9 603.28 129.39 603 C132.84 602.73 136.16 602.46 139.32 602.2 C142.44
								 601.94 145.4 601.69 148.21 601.44 C151.03 601.18 153.69 600.91 156.17 600.65 C158.68 600.38 160.99
								 600.1 163.11 599.83 C165.23 599.55 167.15 599.27 168.85 598.99 C170.55 598.71 172.03 598.42 173.28
								 598.14 C174.51 597.87 175.51 597.59 176.3 597.31 C177.09 597.04 177.68 596.78 177.9 596.51 C178.05
								 596.35 178.05 596.18 178.04 596.01" class="st6"/>
				</g>
				<g id="shape632-171" v:mID="632" v:groupContext="shape" v:layerMember="1" transform="translate(46.2897,-43.1437)">
					<title>Sheet.632</title>
					<v:userDefs>
						<v:ud v:nameU="SOLSH" v:prompt="" v:val="VT4({13D0FF3B-CF5B-4a46-98AB-14030248EAEF})"/>
						<v:ud v:nameU="DWGEntityType" v:prompt="" v:val="VT4(SPLINE)"/>
					</v:userDefs>
					<path d="M0 612 C0.21 611.86 0.43 611.72 0.75 611.57 C1.37 611.3 2.38 611.03 3.58 610.75 C4.78 610.47 6.18 610.19
								 7.81 609.91 C9.44 609.63 11.3 609.34 13.38 609.07 C15.44 608.79 17.7 608.51 20.16 608.24 C22.58
								 607.97 25.2 607.71 27.99 607.45 C30.74 607.19 33.66 606.94 36.73 606.69 C39.85 606.42 43.12 606.16
								 46.52 605.89 C49.97 605.62 53.55 605.34 57.25 605.06 C60.97 604.78 64.81 604.5 68.74 604.22 C72.66
								 603.94 76.68 603.66 80.75 603.38 C84.81 603.1 88.92 602.83 93.07 602.55 C97.17 602.29 101.3 602.02
								 105.44 601.76 C109.54 601.51 113.64 601.26 117.73 601 C121.88 600.74 126.02 600.47 130.11 600.2
								 C134.25 599.93 138.35 599.65 142.39 599.37 C146.44 599.09 150.43 598.81 154.31 598.53 C158.2 598.25
								 161.99 597.97 165.66 597.69 C169.3 597.41 172.83 597.14 176.21 596.87 C179.55 596.6 182.75 596.34
								 185.79 596.08 C188.8 595.82 191.66 595.57 194.34 595.32 C197.07 595.05 199.62 594.79 201.97 594.52
								 C204.36 594.24 206.54 593.96 208.52 593.69 C210.5 593.41 212.27 593.12 213.82 592.84 C215.37 592.56
								 216.69 592.28 217.77 592 C218.84 591.73 219.66 591.45 220.31 591.18 C220.94 590.92 221.42 590.65
								 221.42 590.39 C221.43 590.32 221.39 590.24 221.34 590.16 L0 612 Z" class="st1"/>
					<path d="M0 612 C0.21 611.86 0.43 611.72 0.75 611.57 C1.37 611.3 2.38 611.03 3.58 610.75 C4.78 610.47 6.18 610.19
								 7.81 609.91 C9.44 609.63 11.3 609.34 13.38 609.07 C15.44 608.79 17.7 608.51 20.16 608.24 C22.58
								 607.97 25.2 607.71 27.99 607.45 C30.74 607.19 33.66 606.94 36.73 606.69 C39.85 606.42 43.12 606.16
								 46.52 605.89 C49.97 605.62 53.55 605.34 57.25 605.06 C60.97 604.78 64.81 604.5 68.74 604.22 C72.66
								 603.94 76.68 603.66 80.75 603.38 C84.81 603.1 88.92 602.83 93.07 602.55 C97.17 602.29 101.3 602.02
								 105.44 601.76 C109.54 601.51 113.64 601.26 117.73 601 C121.88 600.74 126.02 600.47 130.11 600.2
								 C134.25 599.93 138.35 599.65 142.39 599.37 C146.44 599.09 150.43 598.81 154.31 598.53 C158.2 598.25
								 161.99 597.97 165.66 597.69 C169.3 597.41 172.83 597.14 176.21 596.87 C179.55 596.6 182.75 596.34
								 185.79 596.08 C188.8 595.82 191.66 595.57 194.34 595.32 C197.07 595.05 199.62 594.79 201.97 594.52
								 C204.36 594.24 206.54 593.96 208.52 593.69 C210.5 593.41 212.27 593.12 213.82 592.84 C215.37 592.56
								 216.69 592.28 217.77 592 C218.84 591.73 219.66 591.45 220.31 591.18 C220.94 590.92 221.42 590.65
								 221.42 590.39 C221.43 590.32 221.39 590.24 221.34 590.16" class="st6"/>
				</g>
				<g id="shape633-174" v:mID="633" v:groupContext="shape" v:layerMember="1" transform="translate(46.1907,-88.3526)">
					<title>Sheet.633</title>
					<v:userDefs>
						<v:ud v:nameU="SOLSH" v:prompt="" v:val="VT4({13D0FF3B-CF5B-4a46-98AB-14030248EAEF})"/>
						<v:ud v:nameU="DWGEntityType" v:prompt="" v:val="VT4(SPLINE)"/>
					</v:userDefs>
					<path d="M0 612 C0.47 611.76 0.95 611.53 1.66 611.29 C2.49 611.02 3.63 610.74 4.98 610.46 C6.33 610.18 7.89 609.89
								 9.68 609.61 C11.46 609.33 13.47 609.05 15.68 608.78 C17.87 608.5 20.26 608.23 22.84 607.96 C25.38
								 607.7 28.1 607.44 30.99 607.18 C33.86 606.93 36.9 606.67 40.08 606.41 C43.32 606.15 46.7 605.88
								 50.22 605.6 C53.76 605.33 57.44 605.05 61.23 604.77 C65.03 604.49 68.93 604.21 72.92 603.93 C76.9
								 603.65 80.96 603.37 85.07 603.09 C89.15 602.81 93.27 602.54 97.43 602.28 C101.53 602.01 105.65 601.76
								 109.77 601.5 C113.88 601.24 118 600.99 122.09 600.73 C126.24 600.46 130.38 600.19 134.46 599.92
								 C138.58 599.64 142.65 599.36 146.64 599.08 C150.65 598.8 154.57 598.52 158.39 598.24 C162.2 597.96
								 165.91 597.68 169.49 597.4 C173.03 597.13 176.45 596.86 179.72 596.59 C182.94 596.33 186.02 596.07
								 188.94 595.82 C191.85 595.56 194.6 595.3 197.18 595.04 C199.79 594.78 202.22 594.5 204.45 594.23
								 C206.71 593.95 208.76 593.67 210.59 593.39 C212.43 593.11 214.05 592.83 215.43 592.55 C216.82 592.27
								 217.97 591.99 218.9 591.72 C219.83 591.44 220.54 591.17 220.95 590.9 C221.34 590.65 221.45 590.4
								 221.57 590.15 L0 612 Z" class="st1"/>
					<path d="M0 612 C0.47 611.76 0.95 611.53 1.66 611.29 C2.49 611.02 3.63 610.74 4.98 610.46 C6.33 610.18 7.89 609.89
								 9.68 609.61 C11.46 609.33 13.47 609.05 15.68 608.78 C17.87 608.5 20.26 608.23 22.84 607.96 C25.38
								 607.7 28.1 607.44 30.99 607.18 C33.86 606.93 36.9 606.67 40.08 606.41 C43.32 606.15 46.7 605.88
								 50.22 605.6 C53.76 605.33 57.44 605.05 61.23 604.77 C65.03 604.49 68.93 604.21 72.92 603.93 C76.9
								 603.65 80.96 603.37 85.07 603.09 C89.15 602.81 93.27 602.54 97.43 602.28 C101.53 602.01 105.65 601.76
								 109.77 601.5 C113.88 601.24 118 600.99 122.09 600.73 C126.24 600.46 130.38 600.19 134.46 599.92
								 C138.58 599.64 142.65 599.36 146.64 599.08 C150.65 598.8 154.57 598.52 158.39 598.24 C162.2 597.96
								 165.91 597.68 169.49 597.4 C173.03 597.13 176.45 596.86 179.72 596.59 C182.94 596.33 186.02 596.07
								 188.94 595.82 C191.85 595.56 194.6 595.3 197.18 595.04 C199.79 594.78 202.22 594.5 204.45 594.23
								 C206.71 593.95 208.76 593.67 210.59 593.39 C212.43 593.11 214.05 592.83 215.43 592.55 C216.82 592.27
								 217.97 591.99 218.9 591.72 C219.83 591.44 220.54 591.17 220.95 590.9 C221.34 590.65 221.45 590.4
								 221.57 590.15" class="st6"/>
				</g>
				<g id="shape634-177" v:mID="634" v:groupContext="shape" v:layerMember="1" transform="translate(46.2363,-133.566)">
					<title>Sheet.634</title>
					<v:userDefs>
						<v:ud v:nameU="SOLSH" v:prompt="" v:val="VT4({13D0FF3B-CF5B-4a46-98AB-14030248EAEF})"/>
						<v:ud v:nameU="DWGEntityType" v:prompt="" v:val="VT4(SPLINE)"/>
					</v:userDefs>
					<path d="M0 612 C0.06 611.94 0.13 611.88 0.22 611.83 C0.62 611.56 1.53 611.28 2.6 611.01 C3.68 610.73 4.91 610.45
								 6.4 610.17 C7.88 609.89 9.61 609.61 11.56 609.33 C13.49 609.05 15.63 608.77 17.98 608.49 C20.29
								 608.22 22.81 607.95 25.5 607.69 C28.15 607.43 30.97 607.18 33.95 606.92 C36.95 606.67 40.11 606.41
								 43.42 606.14 C46.76 605.87 50.26 605.6 53.87 605.32 C57.51 605.04 61.28 604.76 65.14 604.48 C69.01
								 604.2 72.98 603.92 77.02 603.64 C81.04 603.36 85.13 603.08 89.27 602.81 C93.36 602.54 97.49 602.27
								 101.65 602.01 C105.73 601.75 109.84 601.5 113.94 601.24 C118.08 600.98 122.21 600.72 126.3 600.45
								 C130.46 600.18 134.58 599.91 138.64 599.63 C142.73 599.36 146.76 599.07 150.7 598.79 C154.65 598.51
								 158.51 598.23 162.25 597.95 C165.98 597.67 169.59 597.4 173.07 597.12 C176.51 596.85 179.82 596.58
								 182.97 596.32 C186.07 596.06 189.03 595.81 191.82 595.56 C194.64 595.3 197.29 595.03 199.75 594.77
								 C202.25 594.5 204.56 594.22 206.66 593.95 C208.77 593.67 210.68 593.39 212.36 593.11 C214.05 592.82
								 215.52 592.54 216.74 592.26 C217.96 591.98 218.94 591.71 219.72 591.43 C220.49 591.16 221.07 590.9
								 221.28 590.64 C221.41 590.47 221.4 590.31 221.39 590.16 L0 612 Z" class="st1"/>
					<path d="M0 612 C0.06 611.94 0.13 611.88 0.22 611.83 C0.62 611.56 1.53 611.28 2.6 611.01 C3.68 610.73 4.91 610.45
								 6.4 610.17 C7.88 609.89 9.61 609.61 11.56 609.33 C13.49 609.05 15.63 608.77 17.98 608.49 C20.29
								 608.22 22.81 607.95 25.5 607.69 C28.15 607.43 30.97 607.18 33.95 606.92 C36.95 606.67 40.11 606.41
								 43.42 606.14 C46.76 605.87 50.26 605.6 53.87 605.32 C57.51 605.04 61.28 604.76 65.14 604.48 C69.01
								 604.2 72.98 603.92 77.02 603.64 C81.04 603.36 85.13 603.08 89.27 602.81 C93.36 602.54 97.49 602.27
								 101.65 602.01 C105.73 601.75 109.84 601.5 113.94 601.24 C118.08 600.98 122.21 600.72 126.3 600.45
								 C130.46 600.18 134.58 599.91 138.64 599.63 C142.73 599.36 146.76 599.07 150.7 598.79 C154.65 598.51
								 158.51 598.23 162.25 597.95 C165.98 597.67 169.59 597.4 173.07 597.12 C176.51 596.85 179.82 596.58
								 182.97 596.32 C186.07 596.06 189.03 595.81 191.82 595.56 C194.64 595.3 197.29 595.03 199.75 594.77
								 C202.25 594.5 204.56 594.22 206.66 593.95 C208.77 593.67 210.68 593.39 212.36 593.11 C214.05 592.82
								 215.52 592.54 216.74 592.26 C217.96 591.98 218.94 591.71 219.72 591.43 C220.49 591.16 221.07 590.9
								 221.28 590.64 C221.41 590.47 221.4 590.31 221.39 590.16" class="st6"/>
				</g>
				<g id="shape635-180" v:mID="635" v:groupContext="shape" v:layerMember="1" transform="translate(46.2879,-178.778)">
					<title>Sheet.635</title>
					<v:userDefs>
						<v:ud v:nameU="SOLSH" v:prompt="" v:val="VT4({13D0FF3B-CF5B-4a46-98AB-14030248EAEF})"/>
						<v:ud v:nameU="DWGEntityType" v:prompt="" v:val="VT4(SPLINE)"/>
					</v:userDefs>
					<path d="M0 612 C0.23 611.85 0.47 611.7 0.82 611.55 C1.46 611.28 2.48 611 3.69 610.72 C4.92 610.44 6.33 610.16
								 7.97 609.88 C9.61 609.6 11.46 609.32 13.58 609.04 C15.68 608.76 18.04 608.49 20.4 608.21 L0 612
								 Z" class="st1"/>
					<path d="M0 612 C0.23 611.85 0.47 611.7 0.82 611.55 C1.46 611.28 2.48 611 3.69 610.72 C4.92 610.44 6.33 610.16
								 7.97 609.88 C9.61 609.6 11.46 609.32 13.58 609.04 C15.68 608.76 18.04 608.49 20.4 608.21"
							class="st6"/>
				</g>
				<g id="shape636-183" v:mID="636" v:groupContext="shape" v:layerMember="1" transform="translate(89.5827,-3.78575)">
					<title>Sheet.636</title>
					<v:userDefs>
						<v:ud v:nameU="SOLSH" v:prompt="" v:val="VT4({13D0FF3B-CF5B-4a46-98AB-14030248EAEF})"/>
						<v:ud v:nameU="DWGEntityType" v:prompt="" v:val="VT4(SPLINE)"/>
					</v:userDefs>
					<path d="M188.08 601.42 C188.16 601.45 188.24 601.48 188.3 601.52 C188.54 601.64 188.47 601.76 188.31 601.89
								 C188.14 602.01 187.88 602.13 187.46 602.26 C187.02 602.39 186.42 602.52 185.67 602.65 C184.92 602.79
								 184.02 602.92 182.97 603.06 C181.98 603.18 180.85 603.31 179.59 603.44 C178.33 603.57 176.95 603.71
								 175.43 603.84 C173.88 603.97 172.19 604.1 170.37 604.24 C168.56 604.37 166.62 604.51 164.56 604.64
								 C162.58 604.77 160.48 604.89 158.28 605.02 C156.08 605.14 153.78 605.27 151.38 605.39 C148.91 605.52
								 146.34 605.64 143.68 605.77 C141.01 605.9 138.25 606.03 135.41 606.16 C132.69 606.29 129.89 606.42
								 127.02 606.55 C124.16 606.68 121.23 606.81 118.24 606.94 C115.16 607.08 112.03 607.21 108.84 607.35
								 C105.66 607.48 102.43 607.62 99.16 607.75 C96.04 607.88 92.89 608.01 89.72 608.14 C86.55 608.27
								 83.35 608.4 80.15 608.52 C76.85 608.65 73.55 608.78 70.24 608.91 C66.93 609.03 63.63 609.16 60.34
								 609.29 C57.16 609.41 53.99 609.54 50.84 609.66 C47.7 609.79 44.58 609.92 41.5 610.05 C38.32 610.19
								 35.19 610.32 32.1 610.46 C29.01 610.59 25.98 610.73 23 610.87 C18.92 611.06 14.93 611.25 11.14 611.43
								 C7.29 611.62 3.65 611.81 -0 612 L188.08 601.42 Z" class="st1"/>
					<path d="M188.08 601.42 C188.16 601.45 188.24 601.48 188.3 601.52 C188.54 601.64 188.47 601.76 188.31 601.89
								 C188.14 602.01 187.88 602.13 187.46 602.26 C187.02 602.39 186.42 602.52 185.67 602.65 C184.92 602.79
								 184.02 602.92 182.97 603.06 C181.98 603.18 180.85 603.31 179.59 603.44 C178.33 603.57 176.95 603.71
								 175.43 603.84 C173.88 603.97 172.19 604.1 170.37 604.24 C168.56 604.37 166.62 604.51 164.56 604.64
								 C162.58 604.77 160.48 604.89 158.28 605.02 C156.08 605.14 153.78 605.27 151.38 605.39 C148.91 605.52
								 146.34 605.64 143.68 605.77 C141.01 605.9 138.25 606.03 135.41 606.16 C132.69 606.29 129.89 606.42
								 127.02 606.55 C124.16 606.68 121.23 606.81 118.24 606.94 C115.16 607.08 112.03 607.21 108.84 607.35
								 C105.66 607.48 102.43 607.62 99.16 607.75 C96.04 607.88 92.89 608.01 89.72 608.14 C86.55 608.27
								 83.35 608.4 80.15 608.52 C76.85 608.65 73.55 608.78 70.24 608.91 C66.93 609.03 63.63 609.16 60.34
								 609.29 C57.16 609.41 53.99 609.54 50.84 609.66 C47.7 609.79 44.58 609.92 41.5 610.05 C38.32 610.19
								 35.19 610.32 32.1 610.46 C29.01 610.59 25.98 610.73 23 610.87 C18.92 611.06 14.93 611.25 11.14 611.43
								 C7.29 611.62 3.65 611.81 -0 612" class="st6"/>
				</g>
				<g id="shape637-186" v:mID="637" v:groupContext="shape" v:layerMember="1" transform="translate(45.5354,-3.78575)">
					<title>Sheet.637</title>
					<v:userDefs>
						<v:ud v:nameU="SOLSH" v:prompt="" v:val="VT4({13D0FF3B-CF5B-4a46-98AB-14030248EAEF})"/>
						<v:ud v:nameU="DWGEntityType" v:prompt="" v:val="VT4(SPLINE)"/>
					</v:userDefs>
					<path d="M44.05 612 C41.1 612 38.16 612 35.38 612 C32.57 612 29.92 612 27.41 612 C25.39 612 23.46 612 21.63 612
								 C19.8 612 18.07 612 16.46 612 C14.79 612 13.24 612 11.82 612 C10.39 612 9.08 612 7.9 612 C6.76 612
								 5.73 612 4.83 612 C3.92 612 3.13 612 2.48 612 C1.81 612 1.27 612 0.85 612 C0.43 612 0.11 612 0.03
								 612 C-0.02 612 -0 612 0.01 612 L44.05 612 Z" class="st1"/>
					<path d="M44.05 612 C41.1 612 38.16 612 35.38 612 C32.57 612 29.92 612 27.41 612 C25.39 612 23.46 612 21.63 612
								 C19.8 612 18.07 612 16.46 612 C14.79 612 13.24 612 11.82 612 C10.39 612 9.08 612 7.9 612 C6.76 612
								 5.73 612 4.83 612 C3.92 612 3.13 612 2.48 612 C1.81 612 1.27 612 0.85 612 C0.43 612 0.11 612 0.03
								 612 C-0.02 612 -0 612 0.01 612" class="st6"/>
				</g>
				<g id="shape638-189" v:mID="638" v:groupContext="shape" v:layerMember="1"
						transform="translate(49.2399,-6.78383E-08)">
					<title>Sheet.638</title>
					<v:userDefs>
						<v:ud v:nameU="SOLSH" v:prompt="" v:val="VT4({13D0FF3B-CF5B-4a46-98AB-14030248EAEF})"/>
						<v:ud v:nameU="DWGEntityType" v:prompt="" v:val="VT4(SPLINE)"/>
					</v:userDefs>
					<path d="M1.03 612 C0.43 612 -0.18 612 -0 612 C0.54 612 8.32 612 18.95 612 C29.58 612 43.04 612 60.2 612 C77.93
								 612 99.6 612 126.02 612 C152.43 612 183.59 612 214.75 612 L1.03 612 Z" class="st1"/>
					<path d="M1.03 612 C0.43 612 -0.18 612 -0 612 C0.54 612 8.32 612 18.95 612 C29.58 612 43.04 612 60.2 612 C77.93
								 612 99.6 612 126.02 612 C152.43 612 183.59 612 214.75 612" class="st6"/>
				</g>
				<g id="shape639-192" v:mID="639" v:groupContext="shape" transform="translate(0,-356.629)">
					<title>Sheet.639</title>
					<path d="M234.93 612 C240.95 605.19 247.15 599.33 253.64 595.09 C256.89 592.98 260.21 591.27 263.63 590.09 C267.05
								 588.92 270.54 588.29 273.98 588.28 C277.43 588.27 280.85 588.86 284.27 590 C287.69 591.15 291.09
								 592.87 294.37 595 C300.95 599.26 307.19 605.16 313.23 612 L167.66 442.16 L145.74 442.16 L0 612 C6.03
								 605.19 12.22 599.33 18.72 595.09 C21.96 592.98 25.28 591.27 28.7 590.09 C32.12 588.92 35.61 588.29
								 39.06 588.28 C42.5 588.27 45.93 588.86 49.34 590 C52.76 591.15 56.16 592.87 59.45 595 C66.02 599.26
								 72.26 605.16 78.31 612 C90.26 605.25 102.92 599.25 116.02 595 C129.12 590.76 143.05 588.27 156.74
								 588.28 C163.59 588.29 170.41 588.89 177.2 590.04 C184 591.19 190.8 592.92 197.36 595.05 C210.48
								 599.32 222.9 605.2 234.93 612 Z" class="st9"/>
				</g>
				<g id="shape640-194" v:mID="640" v:groupContext="shape" transform="translate(71.7589,-203.454)">
					<title>Sheet.640</title>
					<path d="M0 612 L19.06 612 L6.35 606.05 L0 612 Z" class="st9"/>
				</g>
				<g id="shape641-196" v:mID="641" v:groupContext="shape" transform="translate(221.646,-203.454)">
					<title>Sheet.641</title>
					<path d="M0 612 L19.68 612 L12.71 606.05 L0 612 Z" class="st9"/>
				</g>
				<g id="shape642-198" v:mID="642" v:groupContext="shape" transform="translate(234.926,-203.454)">
					<title>Sheet.642</title>
					<path d="M78.31 458.83 C72.26 451.99 66.02 446.09 59.45 441.83 C56.16 439.7 52.76 437.98 49.34 436.83 C45.93
								 435.69 42.5 435.1 39.06 435.11 C35.61 435.12 32.12 435.75 28.7 436.92 C25.28 438.1 21.96 439.81
								 18.72 441.92 C12.22 446.16 6.03 452.02 0 458.83 L0 606.05 L6.35 612 L71.96 612 L78.31 606.05 L78.31
								 458.83 Z" class="st9"/>
				</g>
				<g id="shape643-200" v:mID="643" v:groupContext="shape" transform="translate(78.3086,-203.454)">
					<title>Sheet.643</title>
					<path d="M156.62 458.83 C144.59 452.03 132.17 446.14 119.05 441.88 C112.49 439.74 105.69 438.02 98.9 436.86 C92.1
								 435.71 85.28 435.12 78.43 435.11 C64.74 435.09 50.81 437.58 37.71 441.83 C24.61 446.08 11.95 452.07
								 0 458.83 L0 606.05 L12.71 612 L143.91 612 L156.62 606.05 L156.62 458.83 Z" class="st9"/>
				</g>
				<g id="shape644-202" v:mID="644" v:groupContext="shape" transform="translate(-3.43725E-13,-203.454)">
					<title>Sheet.644</title>
					<path d="M78.31 459.06 L78.31 458.83 L78.11 458.83 C72.12 451.96 65.95 446.03 59.45 441.73 C56.16 439.56 52.76
								 437.81 49.34 436.64 C45.93 435.47 42.5 434.87 39.06 434.89 C35.61 434.9 32.12 435.53 28.7 436.73
								 C25.28 437.93 21.96 439.67 18.72 441.83 C12.29 446.1 6.16 451.99 0.2 458.83 L0 458.83 L0 459.06
								 L0 606.05 L6.35 612 L71.96 612 L78.31 606.05 L78.31 459.06 Z" class="st9"/>
				</g>
				<g id="shape645-204" v:mID="645" v:groupContext="shape" v:layerMember="1" transform="translate(135.858,-168.472)">
					<title>Sheet.645</title>
					<v:userDefs>
						<v:ud v:nameU="SOLSH" v:prompt="" v:val="VT4({13D0FF3B-CF5B-4a46-98AB-14030248EAEF})"/>
						<v:ud v:nameU="DWGEntityType" v:prompt="" v:val="VT4(SPLINE)"/>
					</v:userDefs>
					<path d="M0 612 C3.74 611.9 7.49 611.8 11.24 611.71 C14.99 611.61 18.75 611.51 22.5 611.42 C26.37 611.32 30.22
								 611.22 34.05 611.12 C37.87 611.02 41.68 610.91 45.44 610.81 C49.07 610.71 52.66 610.61 56.21 610.5
								 C59.75 610.4 63.24 610.3 66.68 610.19 C70.21 610.09 73.68 609.98 77.08 609.87 C80.47 609.77 83.79
								 609.66 87.01 609.55 C90.09 609.45 93.08 609.35 95.98 609.25 C98.88 609.15 101.69 609.05 104.39 608.95
								 C107.18 608.85 109.85 608.75 112.41 608.65 C114.97 608.55 117.4 608.45 119.7 608.35 C121.92 608.25
								 124.02 608.15 125.98 608.05 C127.94 607.95 129.78 607.84 131.47 607.74 C133.22 607.63 134.82 607.53
								 136.27 607.42 C137.72 607.31 139.02 607.2 140.15 607.09 C141.23 606.99 142.16 606.89 142.95 606.79
								 C143.74 606.69 144.39 606.59 144.89 606.48 C145.4 606.38 145.74 606.28 145.97 606.18 C146.21 606.07
								 146.34 605.97 146.13 605.87 C146.09 605.85 146.02 605.83 145.96 605.81 L0 612 Z" class="st1"/>
					<path d="M0 612 C3.74 611.9 7.49 611.8 11.24 611.71 C14.99 611.61 18.75 611.51 22.5 611.42 C26.37 611.32 30.22
								 611.22 34.05 611.12 C37.87 611.02 41.68 610.91 45.44 610.81 C49.07 610.71 52.66 610.61 56.21 610.5
								 C59.75 610.4 63.24 610.3 66.68 610.19 C70.21 610.09 73.68 609.98 77.08 609.87 C80.47 609.77 83.79
								 609.66 87.01 609.55 C90.09 609.45 93.08 609.35 95.98 609.25 C98.88 609.15 101.69 609.05 104.39 608.95
								 C107.18 608.85 109.85 608.75 112.41 608.65 C114.97 608.55 117.4 608.45 119.7 608.35 C121.92 608.25
								 124.02 608.15 125.98 608.05 C127.94 607.95 129.78 607.84 131.47 607.74 C133.22 607.63 134.82 607.53
								 136.27 607.42 C137.72 607.31 139.02 607.2 140.15 607.09 C141.23 606.99 142.16 606.89 142.95 606.79
								 C143.74 606.69 144.39 606.59 144.89 606.48 C145.4 606.38 145.74 606.28 145.97 606.18 C146.21 606.07
								 146.34 605.97 146.13 605.87 C146.09 605.85 146.02 605.83 145.96 605.81" class="st6"/>
				</g>
				<g id="shape646-207" v:mID="646" v:groupContext="shape" v:layerMember="1" transform="translate(21.3411,-157.651)">
					<title>Sheet.646</title>
					<v:userDefs>
						<v:ud v:nameU="SOLSH" v:prompt="" v:val="VT4({13D0FF3B-CF5B-4a46-98AB-14030248EAEF})"/>
						<v:ud v:nameU="DWGEntityType" v:prompt="" v:val="VT4(SPLINE)"/>
					</v:userDefs>
					<path d="M0.58 612 C0.58 612 0.57 612 0.57 612 C-0.05 611.76 -0.06 611.54 0.05 611.31 C0.16 611.08 0.39 610.85
								 0.87 610.61 C1.35 610.38 2.08 610.14 3.02 609.9 C3.97 609.66 5.13 609.41 6.51 609.17 C7.9 608.92
								 9.51 608.67 11.32 608.42 C13.14 608.18 15.16 607.93 17.38 607.68 C19.43 607.46 21.63 607.23 24 607.01
								 C26.35 606.79 28.85 606.57 31.49 606.36 C34.14 606.15 36.93 605.94 39.85 605.73 C43.56 605.46 47.48
								 605.19 51.58 604.92 C55.76 604.64 60.13 604.36 64.66 604.07 C69.23 603.78 73.98 603.49 78.85 603.2
								 C83.74 602.91 88.76 602.61 93.88 602.32 C98.98 602.03 104.17 601.74 109.43 601.45 C111.12 601.36
								 112.82 601.27 114.52 601.18 L0.58 612 Z" class="st1"/>
					<path d="M0.58 612 C0.58 612 0.57 612 0.57 612 C-0.05 611.76 -0.06 611.54 0.05 611.31 C0.16 611.08 0.39 610.85
								 0.87 610.61 C1.35 610.38 2.08 610.14 3.02 609.9 C3.97 609.66 5.13 609.41 6.51 609.17 C7.9 608.92
								 9.51 608.67 11.32 608.42 C13.14 608.18 15.16 607.93 17.38 607.68 C19.43 607.46 21.63 607.23 24 607.01
								 C26.35 606.79 28.85 606.57 31.49 606.36 C34.14 606.15 36.93 605.94 39.85 605.73 C43.56 605.46 47.48
								 605.19 51.58 604.92 C55.76 604.64 60.13 604.36 64.66 604.07 C69.23 603.78 73.98 603.49 78.85 603.2
								 C83.74 602.91 88.76 602.61 93.88 602.32 C98.98 602.03 104.17 601.74 109.43 601.45 C111.12 601.36
								 112.82 601.27 114.52 601.18" class="st6"/>
				</g>
			</g>
		</g>
	</g>
</svg>
